CommonSerif-Regular.ufo
<glyph name="exclam" format="2">
  <advance width="288"/>
  <unicode hex="0021"/>
  <outline>
    <contour>
      <point x="144" y="658" type="curve" smooth="yes"/>
      <point x="120" y="658"/>
      <point x="91" y="639"/>
      <point x="91" y="585" type="curve" smooth="yes"/>
      <point x="91" y="466"/>
      <point x="129" y="329"/>
      <point x="129" y="210" type="curve" smooth="yes"/>
      <point x="129" y="197"/>
      <point x="134" y="190"/>
      <point x="144" y="190" type="curve" smooth="yes"/>
      <point x="154" y="190"/>
      <point x="158" y="197"/>
      <point x="158" y="210" type="curve" smooth="yes"/>
      <point x="158" y="329"/>
      <point x="197" y="467"/>
      <point x="197" y="585" type="curve" smooth="yes"/>
      <point x="197" y="639"/>
      <point x="168" y="658"/>
    </contour>
    <contour>
      <point x="91" y="43" type="curve" smooth="yes"/>
      <point x="91" y="14"/>
      <point x="115" y="-10"/>
      <point x="144" y="-10" type="curve" smooth="yes"/>
      <point x="173" y="-10"/>
      <point x="197" y="14"/>
      <point x="197" y="43" type="curve" smooth="yes"/>
      <point x="197" y="72"/>
      <point x="173" y="96"/>
      <point x="144" y="96" type="curve" smooth="yes"/>
      <point x="115" y="96"/>
      <point x="91" y="72"/>
    </contour>
  </outline>
</glyph>
<glyph name="quotedbl" format="2">
	<unicode hex="0022"/>
	<advance width="336"/>
	<outline>
		<contour>
			<point x="89" y="426" type="line"/>
			<point x="100" y="424" type="line"/>
			<point x="116" y="430" type="line"/>
			<point x="149" y="611" type="line"/>
			<point x="149" y="627"/>
			<point x="140" y="644"/>
			<point x="115" y="644" type="curve" smooth="yes"/>
			<point x="84" y="644"/>
			<point x="63" y="616"/>
			<point x="63" y="594" type="curve"/>
		</contour>
		<contour>
			<point x="215" y="426" type="line"/>
			<point x="226" y="424" type="line"/>
			<point x="242" y="430" type="line"/>
			<point x="275" y="611" type="line"/>
			<point x="275" y="627"/>
			<point x="266" y="644"/>
			<point x="241" y="644" type="curve" smooth="yes"/>
			<point x="210" y="644"/>
			<point x="189" y="616"/>
			<point x="189" y="594" type="curve"/>
		</contour>
	</outline>
</glyph>
<glyph name="numbersign" format="2">
  <advance width="465"/>
  <unicode hex="0023"/>
  <outline>
    <contour>
      <point x="335" y="360" type="line"/>
      <point x="430" y="360" type="line"/>
      <point x="438" y="413" type="line"/>
      <point x="342" y="413" type="line"/>
      <point x="371" y="592" type="line"/>
      <point x="333" y="592" type="line"/>
      <point x="305" y="413" type="line"/>
      <point x="191" y="413" type="line"/>
      <point x="221" y="592" type="line"/>
      <point x="183" y="592" type="line"/>
      <point x="154" y="413" type="line"/>
      <point x="61" y="413" type="line"/>
      <point x="53" y="360" type="line"/>
      <point x="146" y="360" type="line"/>
      <point x="128" y="245" type="line"/>
      <point x="34" y="245" type="line"/>
      <point x="26" y="192" type="line"/>
      <point x="119" y="192" type="line"/>
      <point x="91" y="14" type="line"/>
      <point x="128" y="14" type="line"/>
      <point x="157" y="192" type="line"/>
      <point x="269" y="192" type="line"/>
      <point x="242" y="14" type="line"/>
      <point x="280" y="14" type="line"/>
      <point x="310" y="192" type="line"/>
      <point x="404" y="192" type="line"/>
      <point x="411" y="245" type="line"/>
      <point x="316" y="245" type="line"/>
    </contour>
    <contour>
      <point x="279" y="245" type="line"/>
      <point x="165" y="245" type="line"/>
      <point x="184" y="360" type="line"/>
      <point x="297" y="360" type="line"/>
    </contour>
  </outline>
</glyph>
<glyph name="ampersand" format="2">
  <advance width="705"/>
  <unicode hex="0026"/>
  <outline>
    <contour>
      <point x="450" y="57" type="curve" smooth="yes"/>
      <point x="499" y="-6"/>
      <point x="534" y="-10"/>
      <point x="565" y="-10" type="curve" smooth="yes"/>
      <point x="600" y="-10"/>
      <point x="645" y="18"/>
      <point x="668" y="88" type="curve"/>
      <point x="663" y="93"/>
      <point x="658" y="98"/>
      <point x="647" y="98" type="curve"/>
      <point x="627" y="59"/>
      <point x="609.764" y="44"/>
      <point x="576.764" y="44" type="curve" smooth="yes"/>
      <point x="547.884" y="44"/>
      <point x="516.323" y="77"/>
      <point x="479.261" y="126.01" type="curve" smooth="yes"/>
      <point x="417.968" y="207.062"/>
      <point x="361.955" y="287.763"/>
      <point x="308.283" y="374.263" type="curve" smooth="yes"/>
      <point x="274.579" y="428.582"/>
      <point x="251" y="483.082"/>
      <point x="251" y="519" type="curve" smooth="yes"/>
      <point x="251" y="585"/>
      <point x="300" y="614"/>
      <point x="326" y="614" type="curve" smooth="yes"/>
      <point x="367" y="614"/>
      <point x="390" y="584"/>
      <point x="390" y="539" type="curve" smooth="yes"/>
      <point x="390" y="499.825"/>
      <point x="346.186" y="441.703"/>
      <point x="271.443" y="398.138" type="curve"/>
      <point x="293.762" y="361.943" type="line"/>
      <point x="384.223" y="410.584"/>
      <point x="459" y="480.457"/>
      <point x="459" y="539" type="curve" smooth="yes"/>
      <point x="459" y="602"/>
      <point x="401" y="647"/>
      <point x="331" y="647" type="curve" smooth="yes"/>
      <point x="231" y="647"/>
      <point x="177" y="576"/>
      <point x="177" y="517" type="curve" smooth="yes"/>
      <point x="177" y="479"/>
      <point x="188.648" y="438.581"/>
      <point x="228" y="376" type="curve" smooth="yes"/>
      <point x="298.129" y="264.476"/>
      <point x="371.761" y="160.817"/>
    </contour>
    <contour>
      <point x="43" y="156" type="curve" smooth="yes"/>
      <point x="43" y="34"/>
      <point x="128" y="-10"/>
      <point x="235" y="-10" type="curve" smooth="yes"/>
      <point x="325.734" y="-10"/>
      <point x="382.283" y="36.7178"/>
      <point x="430.192" y="107.043" type="curve"/>
      <point x="409.509" y="141.938" type="line"/>
      <point x="354.309" y="64.7258"/>
      <point x="318.438" y="23"/>
      <point x="242" y="23" type="curve" smooth="yes"/>
      <point x="179" y="23"/>
      <point x="125" y="58"/>
      <point x="125" y="156" type="curve" smooth="yes"/>
      <point x="125" y="231.54"/>
      <point x="149.904" y="287.837"/>
      <point x="270.77" y="348.977" type="curve"/>
      <point x="248.265" y="387.085" type="line"/>
      <point x="101.398" y="308.629"/>
      <point x="43" y="238.925"/>
    </contour>
    <contour>
      <point x="446.991" y="141.519" type="line"/>
      <point x="494.162" y="207.013"/>
      <point x="517.621" y="249.77"/>
      <point x="547" y="302" type="curve" smooth="yes"/>
      <point x="593" y="384"/>
      <point x="600" y="389"/>
      <point x="661" y="393" type="curve"/>
      <point x="667" y="399"/>
      <point x="667" y="420"/>
      <point x="661" y="426" type="curve"/>
      <point x="641" y="425"/>
      <point x="611" y="424"/>
      <point x="577" y="424" type="curve" smooth="yes"/>
      <point x="543" y="424"/>
      <point x="502" y="425"/>
      <point x="482" y="426" type="curve"/>
      <point x="476" y="420"/>
      <point x="476" y="399"/>
      <point x="482" y="393" type="curve"/>
      <point x="515.626" y="391.132"/>
      <point x="534.13" y="388.488"/>
      <point x="534.13" y="369.857" type="curve" smooth="yes"/>
      <point x="534.13" y="358.568"/>
      <point x="522.857" y="334.759"/>
      <point x="513" y="315" type="curve" smooth="yes"/>
      <point x="511.04" y="311.071" type="line" smooth="yes"/>
      <point x="493.37" y="275.648"/>
      <point x="465.811" y="229.397"/>
      <point x="424.793" y="170.741" type="curve"/>
    </contour>
  </outline>
</glyph>
<glyph name="parenright" format="2">
  <advance width="298"/>
  <unicode hex="0029"/>
  <outline>
    <contour>
      <point x="254" y="252" type="curve" smooth="yes"/>
      <point x="254" y="415.441"/>
      <point x="169.136" y="597.978"/>
      <point x="42" y="708" type="curve"/>
      <point x="32.4297" y="706.086"/>
      <point x="24.141" y="699.376"/>
      <point x="21" y="691" type="curve"/>
      <point x="111.056" y="587.3"/>
      <point x="171" y="411.862"/>
      <point x="171" y="252" type="curve" smooth="yes"/>
      <point x="171" y="90.8015"/>
      <point x="111.139" y="-83.5937"/>
      <point x="21" y="-185" type="curve"/>
      <point x="24.2019" y="-195.673"/>
      <point x="31.6525" y="-202.059"/>
      <point x="42" y="-203" type="curve"/>
      <point x="169.271" y="-93.9107"/>
      <point x="254" y="87.9373"/>
    </contour>
  </outline>
</glyph>
<glyph name="asterisk" format="2">
  <advance width="369"/>
  <unicode hex="002A"/>
  <outline>
    <contour>
      <point x="84" y="459" type="curve" smooth="yes"/>
      <point x="84" y="443.293"/>
      <point x="96.7321" y="431"/>
      <point x="113" y="431" type="curve" smooth="yes"/>
      <point x="150.463" y="431"/>
      <point x="166.453" y="505.216"/>
      <point x="183" y="535" type="curve"/>
      <point x="203.352" y="504.473"/>
      <point x="215.371" y="431"/>
      <point x="254" y="431" type="curve" smooth="yes"/>
      <point x="270" y="431"/>
      <point x="283" y="444"/>
      <point x="283" y="460" type="curve" smooth="yes"/>
      <point x="283" y="497.614"/>
      <point x="224.687" y="520.135"/>
      <point x="200" y="547" type="curve"/>
      <point x="216.355" y="549.726"/>
      <point x="233.875" y="551"/>
      <point x="255" y="551" type="curve" smooth="yes"/>
      <point x="300.722" y="551"/>
      <point x="324" y="563.335"/>
      <point x="324" y="587.562" type="curve" smooth="yes"/>
      <point x="324" y="604.721"/>
      <point x="309.167" y="618"/>
      <point x="290" y="618" type="curve" smooth="yes"/>
      <point x="259.911" y="618"/>
      <point x="224.105" y="577.896"/>
      <point x="195" y="565.24" type="curve"/>
      <point x="197.289" y="597.849"/>
      <point x="215.195" y="631.387"/>
      <point x="215.195" y="662.494" type="curve" smooth="yes"/>
      <point x="215.195" y="684.205"/>
      <point x="202.68" y="697.762"/>
      <point x="182.64" y="697.762" type="curve" smooth="yes"/>
      <point x="161.923" y="697.762"/>
      <point x="150.311" y="685.257"/>
      <point x="150.311" y="662.946" type="curve" smooth="yes"/>
      <point x="150.311" y="636.146"/>
      <point x="170.718" y="599.13"/>
      <point x="174" y="566.255" type="curve"/>
      <point x="142.176" y="579.464"/>
      <point x="108.199" y="618"/>
      <point x="78" y="618" type="curve" smooth="yes"/>
      <point x="58.2756" y="618"/>
      <point x="44.9376" y="605.697"/>
      <point x="45" y="587.562" type="curve" smooth="yes"/>
      <point x="45.089" y="561.711"/>
      <point x="61.9081" y="550.043"/>
      <point x="98.7682" y="550.263" type="curve" smooth="yes"/>
      <point x="121.63" y="550.399"/>
      <point x="145.77" y="553.214"/>
      <point x="168" y="547" type="curve"/>
      <point x="142.861" y="518.813"/>
      <point x="84" y="499.782"/>
    </contour>
  </outline>
</glyph>
<glyph name="comma" format="2">
  <advance width="220"/>
  <unicode hex="002C"/>
  <outline>
    <contour>
      <point x="104" y="95" type="curve" smooth="yes"/>
      <point x="73" y="95"/>
      <point x="51" y="74"/>
      <point x="51" y="46" type="curve" smooth="yes"/>
      <point x="51" y="19"/>
      <point x="70.9618" y="8.86807"/>
      <point x="88" y="4" type="curve" smooth="yes"/>
      <point x="95" y="2" type="line" smooth="yes"/>
      <point x="122.691" y="-5.91177"/>
      <point x="131" y="-13.0666"/>
      <point x="131" y="-25.052" type="curve" smooth="yes"/>
      <point x="131" y="-50"/>
      <point x="95" y="-96"/>
      <point x="43" y="-109" type="curve"/>
      <point x="43" y="-119"/>
      <point x="45" y="-126"/>
      <point x="52" y="-133" type="curve"/>
      <point x="116.213" y="-122.298"/>
      <point x="170" y="-71.5604"/>
      <point x="170" y="3.68494" type="curve" smooth="yes"/>
      <point x="170" y="56"/>
      <point x="144" y="95"/>
    </contour>
  </outline>
</glyph>
<glyph name="two" format="2">
  <advance width="465"/>
  <unicode hex="0032"/>
  <outline>
    <contour>
      <point x="49" y="18" type="curve" smooth="yes"/>
      <point x="49" y="14"/>
      <point x="51" y="5"/>
      <point x="53" y="-2" type="curve"/>
      <point x="58" y="-2"/>
      <point x="103" y="0"/>
      <point x="135" y="0" type="curve" smooth="yes"/>
      <point x="312" y="0" type="line" smooth="yes"/>
      <point x="344" y="0"/>
      <point x="384" y="-2"/>
      <point x="389" y="-2" type="curve"/>
      <point x="393" y="42"/>
      <point x="403" y="117"/>
      <point x="412" y="156" type="curve"/>
      <point x="406" y="161"/>
      <point x="393" y="163"/>
      <point x="384" y="161" type="curve"/>
      <point x="368" y="95"/>
      <point x="330" y="65"/>
      <point x="285" y="65" type="curve" smooth="yes"/>
      <point x="135" y="65" type="line"/>
      <point x="135" y="107"/>
      <point x="188" y="165"/>
      <point x="205" y="181" type="curve" smooth="yes"/>
      <point x="262" y="235" type="line" smooth="yes"/>
      <point x="380" y="349"/>
      <point x="410" y="395"/>
      <point x="410" y="457" type="curve" smooth="yes"/>
      <point x="410" y="547"/>
      <point x="343" y="610"/>
      <point x="248" y="610" type="curve" smooth="yes"/>
      <point x="148" y="610"/>
      <point x="61" y="541"/>
      <point x="61" y="467" type="curve" smooth="yes"/>
      <point x="61" y="445"/>
      <point x="79" y="428"/>
      <point x="101" y="428" type="curve" smooth="yes"/>
      <point x="129" y="428"/>
      <point x="148" y="444"/>
      <point x="148" y="468" type="curve" smooth="yes"/>
      <point x="148" y="476"/>
      <point x="146" y="482"/>
      <point x="144" y="489" type="curve" smooth="yes"/>
      <point x="142" y="496"/>
      <point x="136" y="505"/>
      <point x="136" y="513" type="curve" smooth="yes"/>
      <point x="136" y="538"/>
      <point x="162" y="574"/>
      <point x="236" y="574" type="curve" smooth="yes"/>
      <point x="272" y="574"/>
      <point x="324" y="549"/>
      <point x="324" y="453" type="curve" smooth="yes"/>
      <point x="324" y="389"/>
      <point x="302" y="336"/>
      <point x="241" y="278" type="curve" smooth="yes"/>
      <point x="166" y="205" type="line" smooth="yes"/>
      <point x="123" y="162"/>
      <point x="49" y="85"/>
    </contour>
  </outline>
</glyph>
<glyph name="three" format="2">
  <advance width="465"/>
  <unicode hex="0033"/>
  <outline>
    <contour>
      <point x="213" y="574" type="curve" smooth="yes"/>
      <point x="263" y="574"/>
      <point x="296" y="542"/>
      <point x="296" y="494" type="curve" smooth="yes"/>
      <point x="296" y="424"/>
      <point x="226" y="356"/>
      <point x="141" y="344" type="curve"/>
      <point x="146" y="312" type="line"/>
      <point x="153" y="313"/>
      <point x="163" y="314"/>
      <point x="176" y="314" type="curve" smooth="yes"/>
      <point x="277" y="314"/>
      <point x="327" y="272"/>
      <point x="327" y="187" type="curve" smooth="yes"/>
      <point x="327" y="98"/>
      <point x="271" y="26"/>
      <point x="202" y="26" type="curve" smooth="yes"/>
      <point x="172" y="26"/>
      <point x="147" y="40"/>
      <point x="129" y="66" type="curve" smooth="yes"/>
      <point x="117" y="84"/>
      <point x="103" y="93"/>
      <point x="88" y="93" type="curve" smooth="yes"/>
      <point x="66" y="93"/>
      <point x="44" y="75"/>
      <point x="44" y="56" type="curve" smooth="yes"/>
      <point x="44" y="22"/>
      <point x="117" y="-10"/>
      <point x="193" y="-10" type="curve" smooth="yes"/>
      <point x="319" y="-10"/>
      <point x="413" y="78"/>
      <point x="413" y="194" type="curve" smooth="yes"/>
      <point x="413" y="281"/>
      <point x="359" y="342"/>
      <point x="270" y="357" type="curve"/>
      <point x="269" y="359" type="line"/>
      <point x="345" y="393"/>
      <point x="376" y="431"/>
      <point x="376" y="488" type="curve" smooth="yes"/>
      <point x="376" y="563"/>
      <point x="321" y="610"/>
      <point x="235" y="610" type="curve" smooth="yes"/>
      <point x="139" y="610"/>
      <point x="47" y="549"/>
      <point x="47" y="486" type="curve" smooth="yes"/>
      <point x="47" y="462"/>
      <point x="61" y="447"/>
      <point x="82" y="447" type="curve" smooth="yes"/>
      <point x="105" y="447"/>
      <point x="120" y="465"/>
      <point x="120" y="493" type="curve" smooth="yes"/>
      <point x="120" y="539"/>
      <point x="160" y="574"/>
    </contour>
  </outline>
</glyph>
<glyph name="four" format="2">
  <advance width="465"/>
  <unicode hex="0034"/>
  <outline>
    <contour>
      <point x="62" y="172" type="curve" smooth="yes"/>
      <point x="271" y="172" type="line"/>
      <point x="271" y="111" type="line" smooth="yes"/>
      <point x="271" y="38"/>
      <point x="261" y="36"/>
      <point x="190" y="31" type="curve"/>
      <point x="184" y="25"/>
      <point x="184" y="4"/>
      <point x="190" y="-2" type="curve"/>
      <point x="218" y="-1"/>
      <point x="262" y="0"/>
      <point x="301" y="0" type="curve" smooth="yes"/>
      <point x="318" y="0" type="line" smooth="yes"/>
      <point x="357" y="0"/>
      <point x="385" y="-1"/>
      <point x="417" y="-2" type="curve"/>
      <point x="423" y="4"/>
      <point x="423" y="25"/>
      <point x="417" y="31" type="curve"/>
      <point x="363" y="36"/>
      <point x="347" y="38"/>
      <point x="347" y="111" type="curve" smooth="yes"/>
      <point x="347" y="172" type="line"/>
      <point x="416" y="172" type="line" smooth="yes"/>
      <point x="430" y="172"/>
      <point x="445" y="191"/>
      <point x="445" y="203" type="curve" smooth="yes"/>
      <point x="445" y="213"/>
      <point x="441" y="219"/>
      <point x="430" y="219" type="curve" smooth="yes"/>
      <point x="347" y="219" type="line"/>
      <point x="347" y="511" type="line" smooth="yes"/>
      <point x="347" y="561"/>
      <point x="347" y="600"/>
      <point x="349" y="608" type="curve"/>
      <point x="347" y="610" type="line"/>
      <point x="315" y="610" type="line" smooth="yes"/>
      <point x="308" y="610"/>
      <point x="303" y="604"/>
      <point x="299" y="599" type="curve" smooth="yes"/>
      <point x="293" y="592" type="line" smooth="yes"/>
      <point x="231" y="516"/>
      <point x="125" y="364"/>
      <point x="37" y="228" type="curve" smooth="yes"/>
      <point x="28" y="214" type="line"/>
      <point x="35" y="177"/>
      <point x="48" y="172"/>
    </contour>
    <contour>
      <point x="80" y="219" type="line"/>
      <point x="131" y="301"/>
      <point x="202" y="413"/>
      <point x="271" y="507" type="curve"/>
      <point x="271" y="219" type="line"/>
    </contour>
  </outline>
</glyph>
<glyph name="five" format="2">
  <advance width="465"/>
  <unicode hex="0035"/>
  <outline>
    <contour>
      <point x="54" y="64" type="curve" smooth="yes"/>
      <point x="54" y="24"/>
      <point x="121" y="-11"/>
      <point x="196" y="-11" type="curve" smooth="yes"/>
      <point x="319" y="-11"/>
      <point x="408" y="81"/>
      <point x="408" y="207" type="curve" smooth="yes"/>
      <point x="408" y="313"/>
      <point x="332" y="391"/>
      <point x="228" y="391" type="curve" smooth="yes"/>
      <point x="198" y="391"/>
      <point x="155" y="384"/>
      <point x="131" y="375" type="curve"/>
      <point x="151" y="542" type="line"/>
      <point x="191" y="535"/>
      <point x="224" y="533"/>
      <point x="268" y="533" type="curve" smooth="yes"/>
      <point x="283" y="533" type="line" smooth="yes"/>
      <point x="305" y="533"/>
      <point x="345" y="536"/>
      <point x="373" y="539" type="curve"/>
      <point x="389" y="607" type="line"/>
      <point x="382" y="611" type="line"/>
      <point x="331" y="604"/>
      <point x="282" y="600"/>
      <point x="234" y="600" type="curve" smooth="yes"/>
      <point x="218" y="600" type="line" smooth="yes"/>
      <point x="185" y="600"/>
      <point x="149" y="601"/>
      <point x="110" y="605" type="curve"/>
      <point x="76" y="317" type="line"/>
      <point x="82" y="312" type="line"/>
      <point x="114" y="328"/>
      <point x="167" y="341"/>
      <point x="203" y="341" type="curve" smooth="yes"/>
      <point x="277" y="341"/>
      <point x="319" y="286"/>
      <point x="319" y="189" type="curve" smooth="yes"/>
      <point x="319" y="97"/>
      <point x="271" y="24"/>
      <point x="209" y="24" type="curve" smooth="yes"/>
      <point x="186" y="24"/>
      <point x="170" y="33"/>
      <point x="152" y="57" type="curve" smooth="yes"/>
      <point x="143" y="69" type="line" smooth="yes"/>
      <point x="127" y="90"/>
      <point x="110" y="101"/>
      <point x="92" y="101" type="curve" smooth="yes"/>
      <point x="72" y="101"/>
      <point x="54" y="83"/>
    </contour>
  </outline>
</glyph>
<glyph name="six" format="2">
  <advance width="465"/>
  <unicode hex="0036"/>
  <outline>
    <contour>
      <point x="44" y="232" type="curve" smooth="yes"/>
      <point x="44" y="29"/>
      <point x="159" y="-11"/>
      <point x="236" y="-11" type="curve" smooth="yes"/>
      <point x="367" y="-11"/>
      <point x="421" y="116"/>
      <point x="421" y="202" type="curve" smooth="yes"/>
      <point x="421" y="316"/>
      <point x="344" y="365"/>
      <point x="239" y="365" type="curve" smooth="yes"/>
      <point x="213" y="365"/>
      <point x="174" y="357"/>
      <point x="144" y="343" type="curve"/>
      <point x="177" y="458"/>
      <point x="257" y="543"/>
      <point x="368" y="585" type="curve"/>
      <point x="368" y="597"/>
      <point x="364" y="606"/>
      <point x="356" y="611" type="curve"/>
      <point x="184" y="560"/>
      <point x="44" y="420"/>
    </contour>
    <contour>
      <point x="127" y="229" type="curve" smooth="yes"/>
      <point x="127" y="255"/>
      <point x="129" y="281"/>
      <point x="135" y="307" type="curve"/>
      <point x="168" y="329"/>
      <point x="201" y="330"/>
      <point x="218" y="330" type="curve" smooth="yes"/>
      <point x="308" y="330"/>
      <point x="338" y="249"/>
      <point x="338" y="197" type="curve" smooth="yes"/>
      <point x="338" y="141"/>
      <point x="329" y="24"/>
      <point x="247" y="24" type="curve" smooth="yes"/>
      <point x="184" y="24"/>
      <point x="127" y="58"/>
    </contour>
  </outline>
</glyph>
<glyph name="seven" format="2">
  <advance width="465"/>
  <unicode hex="0037"/>
  <outline>
    <contour>
      <point x="124" y="-6" type="curve"/>
      <point x="132" y="-13" type="line"/>
      <point x="200" y="-10" type="line"/>
      <point x="232" y="129"/>
      <point x="318" y="335"/>
      <point x="454" y="599" type="curve"/>
      <point x="438" y="611" type="line"/>
      <point x="421" y="606"/>
      <point x="399" y="600"/>
      <point x="361" y="600" type="curve" smooth="yes"/>
      <point x="125" y="600" type="line" smooth="yes"/>
      <point x="111" y="600"/>
      <point x="89" y="606"/>
      <point x="75" y="614" type="curve"/>
      <point x="72" y="614"/>
      <point x="71" y="613"/>
      <point x="71" y="610" type="curve" smooth="yes"/>
      <point x="71" y="562"/>
      <point x="62" y="504"/>
      <point x="51" y="451" type="curve"/>
      <point x="62" y="448"/>
      <point x="72" y="447"/>
      <point x="83" y="448" type="curve"/>
      <point x="105" y="528"/>
      <point x="138" y="535"/>
      <point x="170" y="535" type="curve" smooth="yes"/>
      <point x="389" y="535" type="line"/>
      <point x="264" y="331"/>
      <point x="155" y="118"/>
    </contour>
  </outline>
</glyph>
<glyph name="equal" format="2">
	<unicode hex="003D"/>
	<advance width="550"/>
	<outline>
		<contour>
			<point x="60" y="326" type="curve" smooth="yes"/>
			<point x="60" y="318"/>
			<point x="66" y="309"/>
			<point x="75" y="309" type="curve" smooth="yes"/>
			<point x="461" y="309" type="line" smooth="yes"/>
			<point x="474" y="309"/>
			<point x="491" y="332"/>
			<point x="491" y="342" type="curve" smooth="yes"/>
			<point x="491" y="350"/>
			<point x="487" y="359"/>
			<point x="477" y="359" type="curve" smooth="yes"/>
			<point x="90" y="359" type="line" smooth="yes"/>
			<point x="78" y="359"/>
			<point x="60" y="341"/>
		</contour>
		<contour>
			<point x="60" y="160" type="curve" smooth="yes"/>
			<point x="60" y="152"/>
			<point x="66" y="143"/>
			<point x="75" y="143" type="curve" smooth="yes"/>
			<point x="461" y="143" type="line" smooth="yes"/>
			<point x="474" y="143"/>
			<point x="491" y="166"/>
			<point x="491" y="176" type="curve" smooth="yes"/>
			<point x="491" y="184"/>
			<point x="487" y="193"/>
			<point x="477" y="193" type="curve" smooth="yes"/>
			<point x="90" y="193" type="line" smooth="yes"/>
			<point x="78" y="193"/>
			<point x="60" y="175"/>
		</contour>
	</outline>
</glyph>
<glyph name="question" format="2">
  <advance width="435"/>
  <unicode hex="003F"/>
  <outline>
    <contour>
      <point x="181" y="192" type="line" smooth="yes"/>
      <point x="181" y="183"/>
      <point x="185" y="174"/>
      <point x="199" y="174" type="curve" smooth="yes"/>
      <point x="212" y="174"/>
      <point x="214" y="183"/>
      <point x="214" y="191" type="curve" smooth="yes"/>
      <point x="214" y="228" type="line" smooth="yes"/>
      <point x="214" y="295"/>
      <point x="228" y="313"/>
      <point x="279" y="350" type="curve" smooth="yes"/>
      <point x="360" y="410"/>
      <point x="389" y="451"/>
      <point x="389" y="510" type="curve" smooth="yes"/>
      <point x="389" y="599"/>
      <point x="323" y="659"/>
      <point x="221" y="659" type="curve" smooth="yes"/>
      <point x="148" y="659"/>
      <point x="46" y="617"/>
      <point x="46" y="535" type="curve" smooth="yes"/>
      <point x="46" y="495"/>
      <point x="71" y="487"/>
      <point x="87" y="487" type="curve" smooth="yes"/>
      <point x="106" y="487"/>
      <point x="126" y="499"/>
      <point x="126" y="526" type="curve" smooth="yes"/>
      <point x="126" y="535"/>
      <point x="124" y="541"/>
      <point x="120" y="546" type="curve" smooth="yes"/>
      <point x="116" y="551"/>
      <point x="114" y="557"/>
      <point x="114" y="565" type="curve" smooth="yes"/>
      <point x="114" y="602"/>
      <point x="154" y="626"/>
      <point x="211" y="626" type="curve" smooth="yes"/>
      <point x="278" y="626"/>
      <point x="306" y="559"/>
      <point x="306" y="501" type="curve" smooth="yes"/>
      <point x="306" y="457"/>
      <point x="290" y="430"/>
      <point x="251" y="391" type="curve" smooth="yes"/>
      <point x="238" y="378" type="line" smooth="yes"/>
      <point x="184" y="324"/>
      <point x="181" y="270"/>
      <point x="181" y="230" type="curve" smooth="yes"/>
    </contour>
    <contour>
      <point x="144" y="43" type="curve" smooth="yes"/>
      <point x="144" y="14"/>
      <point x="168" y="-10"/>
      <point x="197" y="-10" type="curve" smooth="yes"/>
      <point x="226" y="-10"/>
      <point x="250" y="14"/>
      <point x="250" y="43" type="curve" smooth="yes"/>
      <point x="250" y="72"/>
      <point x="226" y="96"/>
      <point x="197" y="96" type="curve" smooth="yes"/>
      <point x="168" y="96"/>
      <point x="144" y="72"/>
    </contour>
  </outline>
</glyph>
<glyph name="at" format="2">
  <advance width="895"/>
  <unicode hex="0040"/>
  <outline>
    <contour>
      <point x="583" y="74" type="curve" smooth="yes"/>
      <point x="583" y="81"/>
      <point x="590" y="114"/>
      <point x="596" y="141" type="curve" smooth="yes"/>
      <point x="656" y="399" type="line"/>
      <point x="641" y="404" type="line"/>
      <point x="588" y="391" type="line"/>
      <point x="583" y="367" type="line"/>
      <point x="573" y="393"/>
      <point x="539" y="410"/>
      <point x="506" y="410" type="curve" smooth="yes"/>
      <point x="400" y="410"/>
      <point x="273" y="296"/>
      <point x="273" y="153" type="curve" smooth="yes"/>
      <point x="273" y="81.4215"/>
      <point x="322.073" y="29"/>
      <point x="395" y="29" type="curve" smooth="yes"/>
      <point x="430" y="29"/>
      <point x="484" y="58"/>
      <point x="528" y="132" type="curve"/>
      <point x="530" y="131" type="line"/>
      <point x="522" y="106"/>
      <point x="515" y="83"/>
      <point x="515" y="68" type="curve" smooth="yes"/>
      <point x="515" y="52"/>
      <point x="525.643" y="27" name=".hr01"/>
      <point x="569.733" y="27" type="curve" smooth="yes"/>
      <point x="733.835" y="27"/>
      <point x="839" y="126.593"/>
      <point x="839" y="282" type="curve" smooth="yes"/>
      <point x="839" y="469"/>
      <point x="684" y="611"/>
      <point x="469" y="611" type="curve" smooth="yes"/>
      <point x="244" y="611"/>
      <point x="59" y="438"/>
      <point x="59" y="223" type="curve" smooth="yes"/>
      <point x="59" y="10"/>
      <point x="215" y="-158"/>
      <point x="454" y="-158" type="curve" smooth="yes"/>
      <point x="567" y="-158"/>
      <point x="627" y="-123"/>
      <point x="687" y="-77" type="curve"/>
      <point x="674" y="-59" type="line"/>
      <point x="620" y="-102"/>
      <point x="558" y="-125"/>
      <point x="473" y="-125" type="curve" smooth="yes"/>
      <point x="215" y="-125"/>
      <point x="139" y="91"/>
      <point x="139" y="241" type="curve" smooth="yes"/>
      <point x="139" y="478"/>
      <point x="307" y="580"/>
      <point x="459" y="580" type="curve" smooth="yes"/>
      <point x="637.134" y="580"/>
      <point x="759" y="456.342"/>
      <point x="759" y="275" type="curve" smooth="yes"/>
      <point x="759" y="126.164"/>
      <point x="709.296" y="62"/>
      <point x="594" y="62" type="curve" smooth="yes"/>
      <point x="592" y="62"/>
      <point x="583" y="64"/>
    </contour>
    <contour>
      <point x="569" y="316" type="curve" smooth="yes"/>
      <point x="569" y="282"/>
      <point x="551.799" y="231.083"/>
      <point x="539" y="200" type="curve" smooth="yes"/>
      <point x="532" y="183" type="line" smooth="yes"/>
      <point x="504.924" y="117.244"/>
      <point x="456" y="70"/>
      <point x="424" y="70" type="curve" smooth="yes" name=".hr02"/>
      <point x="361" y="70"/>
      <point x="346" y="114"/>
      <point x="346" y="162" type="curve" smooth="yes"/>
      <point x="346" y="250.267"/>
      <point x="399.282" y="379"/>
      <point x="504" y="379" type="curve" smooth="yes"/>
      <point x="540.175" y="379"/>
      <point x="569" y="353.946"/>
    </contour>
  </outline>
</glyph>
<glyph name="B" format="2">
	<unicode hex="0042"/>
	<advance width="584"/>
	<outline>
		<contour>
			<point x="19" y="-2" type="curve"/>
			<point x="56" y="-1"/>
			<point x="122" y="0"/>
			<point x="154" y="0" type="curve"/>
			<point x="154" y="645" type="line"/>
			<point x="124" y="645"/>
			<point x="59" y="646"/>
			<point x="19" y="647" type="curve"/>
			<point x="13" y="641"/>
			<point x="13" y="620"/>
			<point x="19" y="614" type="curve"/>
			<point x="89" y="611"/>
			<point x="106" y="604"/>
			<point x="106" y="527" type="curve" smooth="yes"/>
			<point x="106" y="120" type="line" smooth="yes"/>
			<point x="106" y="39"/>
			<point x="89" y="34"/>
			<point x="19" y="31" type="curve"/>
			<point x="13" y="25"/>
			<point x="13" y="4"/>
		</contour>
		<contour>
			<point x="145" y="645" type="curve"/>
			<point x="145" y="0" type="line"/>
			<point x="181" y="0"/>
			<point x="212" y="-2"/>
			<point x="296" y="-2" type="curve" smooth="yes"/>
			<point x="495" y="-2"/>
			<point x="548" y="98"/>
			<point x="548" y="184" type="curve" smooth="yes"/>
			<point x="548" y="280"/>
			<point x="481" y="335"/>
			<point x="394" y="360" type="curve"/>
			<point x="394" y="362" type="line"/>
			<point x="444" y="387"/>
			<point x="489" y="439"/>
			<point x="489" y="493" type="curve" smooth="yes"/>
			<point x="489" y="560"/>
			<point x="460" y="647"/>
			<point x="274" y="647" type="curve" smooth="yes"/>
			<point x="239" y="647"/>
			<point x="181" y="645"/>
		</contour>
		<contour>
			<point x="192" y="332" type="line"/>
			<point x="261" y="332" type="line" smooth="yes"/>
			<point x="398" y="332"/>
			<point x="455" y="255"/>
			<point x="455" y="165" type="curve" smooth="yes"/>
			<point x="455" y="92"/>
			<point x="427" y="31"/>
			<point x="275" y="31" type="curve" smooth="yes"/>
			<point x="205" y="31"/>
			<point x="192" y="57"/>
			<point x="192" y="118" type="curve" smooth="yes"/>
		</contour>
		<contour>
			<point x="192" y="550" type="line" smooth="yes"/>
			<point x="192" y="603"/>
			<point x="192" y="613"/>
			<point x="279" y="613" type="curve" smooth="yes"/>
			<point x="335" y="613"/>
			<point x="408" y="583"/>
			<point x="408" y="481" type="curve" smooth="yes"/>
			<point x="408" y="396"/>
			<point x="349" y="366"/>
			<point x="266" y="366" type="curve" smooth="yes"/>
			<point x="192" y="366" type="line"/>
		</contour>
	</outline>
	<anchor name="t.uni0302" x="274" y="740"/>
	<anchor name="b.minus-60" x="275" y="-60"/>
</glyph>
<glyph name="C" format="2">
  <advance width="645"/>
  <unicode hex="0043"/>
  <anchor x="339" y="740" name="top"/>
  <anchor x="339" y="-60" name="b.minus-60"/>
  <anchor x="355" y="0" name="b.cedilla"/>
  <outline>
    <contour>
      <point x="356" y="-10" type="curve" smooth="yes"/>
      <point x="453" y="-10"/>
      <point x="542" y="36"/>
      <point x="610" y="125" type="curve"/>
      <point x="605" y="134"/>
      <point x="598" y="140"/>
      <point x="587" y="140" type="curve"/>
      <point x="516" y="62"/>
      <point x="448" y="31"/>
      <point x="355" y="31" type="curve" smooth="yes"/>
      <point x="220" y="31"/>
      <point x="127" y="183"/>
      <point x="127" y="329" type="curve" smooth="yes"/>
      <point x="127" y="455"/>
      <point x="196" y="621"/>
      <point x="346" y="621" type="curve" smooth="yes"/>
      <point x="484" y="621"/>
      <point x="539" y="539"/>
      <point x="565" y="453" type="curve"/>
      <point x="577" y="449"/>
      <point x="587" y="452"/>
      <point x="598" y="458" type="curve"/>
      <point x="593" y="510"/>
      <point x="586" y="558"/>
      <point x="576" y="613" type="curve"/>
      <point x="525" y="618"/>
      <point x="480" y="658"/>
      <point x="357" y="658" type="curve" smooth="yes"/>
      <point x="163" y="658"/>
      <point x="36" y="496"/>
      <point x="36" y="310" type="curve" smooth="yes"/>
      <point x="36" y="136"/>
      <point x="141" y="-10"/>
    </contour>
  </outline>
</glyph>
<glyph name="D" format="2">
  <advance width="703"/>
  <unicode hex="0044"/>
  <anchor x="302" y="740" name="top"/>
  <anchor x="332" y="-60" name="b.minus-60"/>
  <outline>
    <contour>
      <point x="333" y="-2" type="curve" smooth="yes"/>
      <point x="474" y="-2"/>
      <point x="660" y="62"/>
      <point x="660" y="308" type="curve" smooth="yes"/>
      <point x="660" y="494"/>
      <point x="507" y="647"/>
      <point x="315" y="647" type="curve" smooth="yes"/>
      <point x="246" y="647"/>
      <point x="176" y="645"/>
      <point x="147" y="645" type="curve" name=".sk1"/>
      <point x="122" y="645"/>
      <point x="87" y="646"/>
      <point x="20" y="647" type="curve"/>
      <point x="14" y="641"/>
      <point x="14" y="620"/>
      <point x="20" y="614" type="curve"/>
      <point x="98" y="611"/>
      <point x="107" y="600"/>
      <point x="107" y="525" type="curve"/>
      <point x="107" y="120" type="line" name=".sk2"/>
      <point x="107" y="45"/>
      <point x="98" y="34"/>
      <point x="20" y="31" type="curve"/>
      <point x="13" y="25"/>
      <point x="13" y="4"/>
      <point x="19" y="-2" type="curve"/>
      <point x="86" y="-1"/>
      <point x="120" y="0"/>
      <point x="146" y="0" type="curve"/>
      <point x="182" y="0"/>
      <point x="258" y="-2"/>
    </contour>
    <contour>
      <point x="193" y="84" type="curve" smooth="yes"/>
      <point x="193" y="564" type="line" smooth="yes"/>
      <point x="193" y="599"/>
      <point x="228" y="613"/>
      <point x="277" y="613" type="curve" smooth="yes"/>
      <point x="493" y="613"/>
      <point x="564" y="438"/>
      <point x="564" y="284" type="curve" smooth="yes"/>
      <point x="564" y="82"/>
      <point x="443" y="32"/>
      <point x="302" y="32" type="curve" smooth="yes"/>
      <point x="204" y="32"/>
      <point x="193" y="52"/>
    </contour>
  </outline>
</glyph>
<glyph name="E" format="2">
  <advance width="560"/>
  <unicode hex="0045"/>
  <anchor x="284" y="740" name="top"/>
  <anchor x="320" y="10" name="b.ogonek"/>
  <anchor x="284" y="-60" name="b.minus-60"/>
  <anchor x="359" y="0" name="b.cedilla"/>
  <outline>
    <contour>
      <point x="284" y="361" type="curve" smooth="yes"/>
      <point x="178" y="361" type="line"/>
      <point x="178" y="323" type="line"/>
      <point x="284" y="323" type="line" smooth="yes"/>
      <point x="369" y="323"/>
      <point x="372" y="300"/>
      <point x="375" y="255" type="curve"/>
      <point x="381" y="249"/>
      <point x="402" y="249"/>
      <point x="408" y="255" type="curve"/>
      <point x="407" y="281"/>
      <point x="406" y="309"/>
      <point x="406" y="343" type="curve" smooth="yes"/>
      <point x="406" y="371"/>
      <point x="407" y="405"/>
      <point x="408" y="429" type="curve"/>
      <point x="402" y="435"/>
      <point x="381" y="435"/>
      <point x="375" y="429" type="curve"/>
      <point x="372" y="374"/>
      <point x="369" y="361"/>
    </contour>
    <contour>
      <point x="107" y="120" type="line" name=".sk1"/>
      <point x="107" y="45"/>
      <point x="98" y="34"/>
      <point x="20" y="31" type="curve"/>
      <point x="13" y="25"/>
      <point x="13" y="4"/>
      <point x="20" y="-2" type="curve"/>
      <point x="87" y="-1"/>
      <point x="121" y="0"/>
      <point x="147" y="0" type="curve"/>
      <point x="366" y="0" type="line" smooth="yes"/>
      <point x="414" y="0"/>
      <point x="486" y="-2"/>
      <point x="494" y="-2" type="curve"/>
      <point x="508" y="48"/>
      <point x="523" y="114"/>
      <point x="531" y="165" type="curve"/>
      <point x="521" y="171"/>
      <point x="509" y="173"/>
      <point x="496" y="170" type="curve"/>
      <point x="476" y="98"/>
      <point x="441" y="39"/>
      <point x="365" y="39" type="curve" smooth="yes"/>
      <point x="249" y="39" type="line" smooth="yes"/>
      <point x="207" y="39"/>
      <point x="193" y="55"/>
      <point x="193" y="102" type="curve" smooth="yes"/>
      <point x="193" y="541" type="line" smooth="yes"/>
      <point x="193" y="585"/>
      <point x="205" y="605"/>
      <point x="259" y="605" type="curve" smooth="yes"/>
      <point x="334" y="605" type="line" smooth="yes"/>
      <point x="409" y="605"/>
      <point x="425" y="565"/>
      <point x="447" y="496" type="curve"/>
      <point x="459" y="494"/>
      <point x="470" y="496"/>
      <point x="480" y="501" type="curve"/>
      <point x="475" y="542"/>
      <point x="460" y="638"/>
      <point x="458" y="646" type="curve"/>
      <point x="458" y="648"/>
      <point x="457" y="649"/>
      <point x="454" y="649" type="curve"/>
      <point x="437" y="646"/>
      <point x="429" y="645"/>
      <point x="405" y="645" type="curve" smooth="yes"/>
      <point x="147" y="645" type="line" name=".sk2"/>
      <point x="122" y="645"/>
      <point x="87" y="646"/>
      <point x="20" y="647" type="curve"/>
      <point x="14" y="641"/>
      <point x="14" y="620"/>
      <point x="20" y="614" type="curve"/>
      <point x="98" y="611"/>
      <point x="107" y="600"/>
      <point x="107" y="525" type="curve"/>
    </contour>
  </outline>
</glyph>
<glyph name="F" format="2">
  <advance width="489"/>
  <unicode hex="0046"/>
  <anchor x="264" y="740" name="top"/>
  <anchor x="244" y="-60" name="b.minus-60"/>
  <outline>
    <contour>
      <point x="179" y="323" type="line"/>
      <point x="287" y="323" type="line" smooth="yes"/>
      <point x="372" y="323"/>
      <point x="375" y="300"/>
      <point x="378" y="255" type="curve"/>
      <point x="384" y="249"/>
      <point x="405" y="249"/>
      <point x="411" y="255" type="curve"/>
      <point x="410" y="280"/>
      <point x="409" y="309"/>
      <point x="409" y="343" type="curve" smooth="yes"/>
      <point x="409" y="377"/>
      <point x="410" y="403"/>
      <point x="411" y="429" type="curve"/>
      <point x="405" y="435"/>
      <point x="384" y="435"/>
      <point x="378" y="429" type="curve"/>
      <point x="375" y="374"/>
      <point x="372" y="361"/>
      <point x="287" y="361" type="curve" smooth="yes"/>
      <point x="179" y="361" type="line"/>
    </contour>
    <contour>
      <point x="108" y="120" type="line" name=".sk1"/>
      <point x="108" y="45"/>
      <point x="98" y="34"/>
      <point x="20" y="31" type="curve"/>
      <point x="13" y="25"/>
      <point x="13" y="4"/>
      <point x="20" y="-2" type="curve"/>
      <point x="87" y="-1"/>
      <point x="121" y="0"/>
      <point x="147" y="0" type="curve"/>
      <point x="153" y="0"/>
      <point x="246" y="-1"/>
      <point x="281" y="-2" type="curve"/>
      <point x="287" y="4"/>
      <point x="287" y="25"/>
      <point x="281" y="31" type="curve"/>
      <point x="211" y="34"/>
      <point x="194" y="40"/>
      <point x="194" y="120" type="curve" smooth="yes"/>
      <point x="194" y="541" type="line" smooth="yes"/>
      <point x="194" y="595"/>
      <point x="206" y="605"/>
      <point x="250" y="605" type="curve" smooth="yes"/>
      <point x="295" y="605" type="line" smooth="yes"/>
      <point x="401" y="605"/>
      <point x="426" y="565"/>
      <point x="448" y="496" type="curve"/>
      <point x="460" y="496"/>
      <point x="471" y="498"/>
      <point x="479" y="501" type="curve"/>
      <point x="474" y="542"/>
      <point x="459" y="638"/>
      <point x="457" y="646" type="curve"/>
      <point x="457" y="648"/>
      <point x="456" y="649"/>
      <point x="453" y="649" type="curve"/>
      <point x="436" y="646"/>
      <point x="431" y="645"/>
      <point x="406" y="645" type="curve" smooth="yes"/>
      <point x="148" y="645" type="line" name=".sk2"/>
      <point x="123" y="645"/>
      <point x="88" y="646"/>
      <point x="21" y="647" type="curve"/>
      <point x="15" y="641"/>
      <point x="15" y="620"/>
      <point x="21" y="614" type="curve"/>
      <point x="99" y="611"/>
      <point x="108" y="600"/>
      <point x="108" y="525" type="curve"/>
    </contour>
  </outline>
</glyph>
<glyph name="H" format="2">
	<unicode hex="0048"/>
	<advance width="724"/>
	<outline>
		<contour>
			<point x="19" y="-2" type="curve"/>
			<point x="63" y="-1"/>
			<point x="111" y="0"/>
			<point x="149" y="0" type="curve" smooth="yes"/>
			<point x="185" y="0"/>
			<point x="234" y="-1"/>
			<point x="278" y="-2" type="curve"/>
			<point x="284" y="4"/>
			<point x="284" y="25"/>
			<point x="278" y="31" type="curve"/>
			<point x="208" y="34"/>
			<point x="192" y="39"/>
			<point x="192" y="122" type="curve" smooth="yes"/>
			<point x="192" y="321" type="line"/>
			<point x="533" y="321" type="line"/>
			<point x="533" y="122" type="line" smooth="yes"/>
			<point x="533" y="39"/>
			<point x="516" y="34"/>
			<point x="446" y="31" type="curve"/>
			<point x="440" y="25"/>
			<point x="440" y="4"/>
			<point x="446" y="-2" type="curve"/>
			<point x="491" y="-1"/>
			<point x="539" y="0"/>
			<point x="576" y="0" type="curve" smooth="yes"/>
			<point x="613" y="0"/>
			<point x="661" y="-1"/>
			<point x="705" y="-2" type="curve"/>
			<point x="711" y="4"/>
			<point x="711" y="25"/>
			<point x="705" y="31" type="curve"/>
			<point x="635" y="34"/>
			<point x="619" y="39"/>
			<point x="619" y="122" type="curve" smooth="yes"/>
			<point x="619" y="523" type="line" smooth="yes"/>
			<point x="619" y="606"/>
			<point x="635" y="611"/>
			<point x="705" y="614" type="curve"/>
			<point x="711" y="620"/>
			<point x="711" y="641"/>
			<point x="705" y="647" type="curve"/>
			<point x="664" y="646"/>
			<point x="613" y="645"/>
			<point x="575" y="645" type="curve" smooth="yes"/>
			<point x="538" y="645"/>
			<point x="490" y="646"/>
			<point x="446" y="647" type="curve"/>
			<point x="440" y="641"/>
			<point x="440" y="620"/>
			<point x="446" y="614" type="curve"/>
			<point x="516" y="611"/>
			<point x="533" y="606"/>
			<point x="533" y="523" type="curve" smooth="yes"/>
			<point x="533" y="363" type="line"/>
			<point x="192" y="363" type="line"/>
			<point x="192" y="523" type="line" smooth="yes"/>
			<point x="192" y="606"/>
			<point x="208" y="611"/>
			<point x="278" y="614" type="curve"/>
			<point x="284" y="620"/>
			<point x="284" y="641"/>
			<point x="278" y="647" type="curve"/>
			<point x="240" y="646"/>
			<point x="199" y="645"/>
			<point x="148" y="645" type="curve" smooth="yes"/>
			<point x="98" y="645"/>
			<point x="57" y="646"/>
			<point x="19" y="647" type="curve"/>
			<point x="13" y="641"/>
			<point x="13" y="620"/>
			<point x="19" y="614" type="curve"/>
			<point x="89" y="611"/>
			<point x="106" y="606"/>
			<point x="106" y="523" type="curve" smooth="yes"/>
			<point x="106" y="122" type="line" smooth="yes"/>
			<point x="106" y="39"/>
			<point x="89" y="34"/>
			<point x="19" y="31" type="curve"/>
			<point x="13" y="25"/>
			<point x="13" y="4"/>
		</contour>
	</outline>
	<anchor name="t.uni0302" x="362" y="740"/>
	<anchor name="b.minus-60" x="362" y="-60"/>
	<anchor name="b.cedilla" x="153" y="10"/>
	<anchor name="ypogegrammeni" x="362" y="-60"/>
	<guideline x="362" y="0" angle="90"/>
</glyph>
<glyph name="I" format="2">
  <advance width="297"/>
  <unicode hex="0049"/>
  <anchor x="150" y="740" name="t.uni0302"/>
  <anchor x="147" y="-110" name="m.uni0316_2"/>
  <anchor x="147" y="1" name="m.uni0327_5"/>
  <anchor x="148" y="325" name="m.uni0334_6"/>
  <outline>
    <contour>
      <point x="106" y="122" type="line"/>
      <point x="191" y="122" type="line"/>
      <point x="191" y="523" type="line"/>
      <point x="106" y="523" type="line"/>
    </contour>
    <contour>
      <point x="19" y="-2" type="curve"/>
      <point x="64" y="-1"/>
      <point x="113" y="0"/>
      <point x="149" y="0" type="curve" smooth="yes"/>
      <point x="185" y="0"/>
      <point x="233" y="-1"/>
      <point x="278" y="-2" type="curve"/>
      <point x="284" y="4"/>
      <point x="284" y="25"/>
      <point x="278" y="31" type="curve"/>
      <point x="208" y="34"/>
      <point x="191" y="39"/>
      <point x="191" y="122" type="curve"/>
      <point x="106" y="122" type="line"/>
      <point x="106" y="39"/>
      <point x="89" y="34"/>
      <point x="19" y="31" type="curve"/>
      <point x="13" y="25"/>
      <point x="13" y="4"/>
    </contour>
    <contour>
      <point x="19" y="614" type="curve"/>
      <point x="89" y="611"/>
      <point x="106" y="606"/>
      <point x="106" y="523" type="curve"/>
      <point x="191" y="523" type="line"/>
      <point x="191" y="606"/>
      <point x="208" y="611"/>
      <point x="278" y="614" type="curve"/>
      <point x="284" y="620"/>
      <point x="284" y="641"/>
      <point x="278" y="647" type="curve"/>
      <point x="234" y="646"/>
      <point x="187" y="645"/>
      <point x="148" y="645" type="curve" smooth="yes"/>
      <point x="115" y="645"/>
      <point x="66" y="646"/>
      <point x="19" y="647" type="curve"/>
      <point x="13" y="641"/>
      <point x="13" y="620"/>
    </contour>
  </outline>
</glyph>
<glyph name="K" format="2">
  <advance width="639"/>
  <unicode hex="004B"/>
  <anchor x="315" y="740" name="top"/>
  <anchor x="315" y="-60" name="b.minus-60"/>
  <outline>
    <contour>
      <point x="107" y="120.001" type="line" name=".sk2"/>
      <point x="107" y="45.0008"/>
      <point x="97.6904" y="34.0337"/>
      <point x="19.6801" y="31.3146" type="curve"/>
      <point x="13.0664" y="25.298"/>
      <point x="12.9908" y="4.29816"/>
      <point x="19.5613" y="-1.68521" type="curve"/>
      <point x="86.5645" y="-0.926433"/>
      <point x="120.568" y="-0.0488483"/>
      <point x="146.568" y="-0.142455" type="curve"/>
      <point x="164.708" y="0"/>
      <point x="222.306" y="-0.7179"/>
      <point x="280" y="-2" type="curve"/>
      <point x="286" y="4"/>
      <point x="286" y="25"/>
      <point x="280" y="31" type="curve"/>
      <point x="210" y="34"/>
      <point x="193" y="39"/>
      <point x="193" y="122" type="curve" smooth="yes"/>
      <point x="193" y="308.47" type="line"/>
      <point x="232.34" y="305.89"/>
      <point x="258.42" y="293.86"/>
      <point x="276" y="271" type="curve" smooth="yes"/>
      <point x="433" y="73" type="line" smooth="yes"/>
      <point x="453" y="47"/>
      <point x="467" y="20"/>
      <point x="469" y="4" type="curve"/>
      <point x="469" y="1"/>
      <point x="470" y="-2"/>
      <point x="474" y="-2" type="curve"/>
      <point x="494" y="-1"/>
      <point x="507" y="0"/>
      <point x="528" y="0" type="curve" smooth="yes"/>
      <point x="562" y="0"/>
      <point x="596" y="-1"/>
      <point x="629" y="-2" type="curve"/>
      <point x="635" y="4"/>
      <point x="635" y="25"/>
      <point x="629" y="31" type="curve"/>
      <point x="600" y="34"/>
      <point x="571.6" y="36.65"/>
      <point x="541" y="73" type="curve" smooth="yes"/>
      <point x="322" y="333" type="line" smooth="yes"/>
      <point x="314.24" y="342.2"/>
      <point x="309" y="350"/>
      <point x="309" y="358" type="curve" smooth="yes"/>
      <point x="309" y="365"/>
      <point x="309.95" y="372.03"/>
      <point x="344" y="407" type="curve" smooth="yes"/>
      <point x="491" y="558" type="line" smooth="yes"/>
      <point x="537.88" y="606.15"/>
      <point x="577" y="611"/>
      <point x="617" y="614" type="curve"/>
      <point x="623" y="620"/>
      <point x="623" y="641"/>
      <point x="617" y="647" type="curve"/>
      <point x="586" y="646"/>
      <point x="554" y="645"/>
      <point x="522" y="645" type="curve" smooth="yes"/>
      <point x="485" y="645"/>
      <point x="446" y="646"/>
      <point x="409" y="647" type="curve"/>
      <point x="403" y="641"/>
      <point x="403" y="620"/>
      <point x="409" y="614" type="curve"/>
      <point x="445" y="611"/>
      <point x="479.09" y="606.9"/>
      <point x="437" y="562" type="curve" smooth="yes"/>
      <point x="272" y="386" type="line" smooth="yes"/>
      <point x="250.58" y="363.15"/>
      <point x="227.96" y="349.86"/>
      <point x="193" y="346.73" type="curve"/>
      <point x="193" y="523" type="line" smooth="yes"/>
      <point x="193" y="606"/>
      <point x="210" y="611"/>
      <point x="280" y="614" type="curve"/>
      <point x="286" y="620"/>
      <point x="286" y="641"/>
      <point x="280" y="647" type="curve"/>
      <point x="222.303" y="645.742"/>
      <point x="164.713" y="645"/>
      <point x="147" y="645" type="curve" name=".sk1"/>
      <point x="122" y="644.908"/>
      <point x="87" y="646"/>
      <point x="20" y="647" type="curve"/>
      <point x="14" y="641"/>
      <point x="14" y="620"/>
      <point x="20" y="614" type="curve"/>
      <point x="98" y="611"/>
      <point x="107" y="600"/>
      <point x="107" y="525" type="curve"/>
    </contour>
  </outline>
</glyph>
<glyph name="L" format="2">
  <advance width="529"/>
  <unicode hex="004C"/>
  <anchor x="150" y="740" name="top"/>
  <anchor x="254" y="-60" name="b.minus-60"/>
  <anchor x="352" y="658" name="apostrophe"/>
  <outline>
    <contour>
      <point x="106" y="120" type="line" name=".sk2"/>
      <point x="106" y="45"/>
      <point x="97" y="34"/>
      <point x="19" y="31" type="curve"/>
      <point x="12.408" y="24.9597"/>
      <point x="12.408" y="3.95968"/>
      <point x="19" y="-2" type="curve"/>
      <point x="86" y="-1"/>
      <point x="120" y="0"/>
      <point x="146" y="0" type="curve"/>
      <point x="363" y="0" type="line" smooth="yes"/>
      <point x="390" y="0"/>
      <point x="473" y="-2"/>
      <point x="482" y="-2" type="curve"/>
      <point x="492" y="48"/>
      <point x="502" y="113"/>
      <point x="508" y="165" type="curve"/>
      <point x="498" y="170"/>
      <point x="487" y="172"/>
      <point x="475" y="170" type="curve"/>
      <point x="455" y="98"/>
      <point x="418" y="39"/>
      <point x="312" y="39" type="curve" smooth="yes"/>
      <point x="249" y="39" type="line" smooth="yes"/>
      <point x="210" y="39"/>
      <point x="192" y="58"/>
      <point x="192" y="109" type="curve" smooth="yes"/>
      <point x="192" y="523" type="line" smooth="yes"/>
      <point x="192" y="606"/>
      <point x="209" y="611"/>
      <point x="279" y="614" type="curve"/>
      <point x="285" y="620"/>
      <point x="285" y="641"/>
      <point x="279" y="647" type="curve"/>
      <point x="221.303" y="645.713"/>
      <point x="163.713" y="645"/>
      <point x="146" y="645" type="curve" name=".sk1"/>
      <point x="121" y="644.91"/>
      <point x="86" y="646"/>
      <point x="19" y="647" type="curve"/>
      <point x="13" y="641"/>
      <point x="13" y="620"/>
      <point x="19" y="614" type="curve"/>
      <point x="97" y="611"/>
      <point x="106" y="600"/>
      <point x="106" y="525" type="curve"/>
    </contour>
  </outline>
</glyph>
<glyph name="M" format="2">
	<unicode hex="004D"/>
	<advance width="839"/>
	<outline>
		<contour>
			<point x="663" y="116" type="line" smooth="yes"/>
			<point x="668.038" y="35.0024"/>
			<point x="664" y="34"/>
			<point x="599" y="31" type="curve"/>
			<point x="593" y="25"/>
			<point x="593" y="4"/>
			<point x="599" y="-2" type="curve"/>
			<point x="636" y="-1"/>
			<point x="676" y="0"/>
			<point x="706" y="0" type="curve" smooth="yes"/>
			<point x="736" y="0"/>
			<point x="782" y="-1"/>
			<point x="815" y="-2" type="curve"/>
			<point x="821" y="4"/>
			<point x="821" y="25"/>
			<point x="815" y="31" type="curve"/>
			<point x="747" y="34"/>
			<point x="743.915" y="37.9939"/>
			<point x="738" y="121" type="curve" smooth="yes"/>
			<point x="708" y="542" type="line" smooth="yes"/>
			<point x="704.151" y="596.011"/>
			<point x="709" y="610"/>
			<point x="777" y="614" type="curve"/>
			<point x="783" y="620"/>
			<point x="783" y="641"/>
			<point x="777" y="647" type="curve"/>
			<point x="646" y="645" type="line"/>
			<point x="434" y="138" type="line" smooth="yes"/>
			<point x="430" y="128"/>
			<point x="427" y="124"/>
			<point x="425" y="124" type="curve" smooth="yes"/>
			<point x="423" y="124"/>
			<point x="420" y="129"/>
			<point x="417" y="137" type="curve" smooth="yes"/>
			<point x="212" y="645" type="line"/>
			<point x="67" y="647" type="line"/>
			<point x="61" y="641"/>
			<point x="61" y="620"/>
			<point x="67" y="614" type="curve"/>
			<point x="136" y="610"/>
			<point x="142" y="608"/>
			<point x="135" y="533" type="curve" smooth="yes"/>
			<point x="95" y="121" type="line" smooth="yes"/>
			<point x="89" y="61"/>
			<point x="77" y="36"/>
			<point x="20" y="31" type="curve"/>
			<point x="14" y="25"/>
			<point x="14" y="4"/>
			<point x="20" y="-2" type="curve"/>
			<point x="50" y="-1"/>
			<point x="82" y="0"/>
			<point x="106" y="0" type="curve" smooth="yes"/>
			<point x="130" y="0"/>
			<point x="170" y="-1"/>
			<point x="200" y="-2" type="curve"/>
			<point x="206" y="4"/>
			<point x="206" y="25"/>
			<point x="200" y="31" type="curve"/>
			<point x="134" y="36"/>
			<point x="129" y="67"/>
			<point x="134" y="123" type="curve" smooth="yes"/>
			<point x="172" y="524" type="line"/>
			<point x="174" y="524" type="line"/>
			<point x="381" y="5" type="line" smooth="yes"/>
			<point x="384" y="-2"/>
			<point x="390" y="-10"/>
			<point x="396" y="-10" type="curve" smooth="yes"/>
			<point x="402" y="-10"/>
			<point x="406" y="-3"/>
			<point x="410" y="5" type="curve"/>
			<point x="635" y="534" type="line"/>
			<point x="637" y="534" type="line"/>
		</contour>
	</outline>
	<anchor name="t.uni0302" x="396" y="740"/>
	<anchor name="b.minus-60" x="396" y="-60"/>
</glyph>
<glyph name="N" format="2">
  <advance width="699"/>
  <unicode hex="004E"/>
  <anchor x="370" y="740" name="top"/>
  <anchor x="370" y="-60" name="b.minus-60"/>
  <outline>
    <contour>
      <point x="15" y="-2" type="curve"/>
      <point x="58" y="-1"/>
      <point x="103" y="0"/>
      <point x="127" y="0" type="curve" smooth="yes"/>
      <point x="150" y="0"/>
      <point x="196" y="-1"/>
      <point x="238" y="-2" type="curve"/>
      <point x="244" y="4"/>
      <point x="244" y="25"/>
      <point x="238" y="31" type="curve"/>
      <point x="168" y="38"/>
      <point x="151" y="42"/>
      <point x="151" y="133" type="curve" smooth="yes"/>
      <point x="151" y="439" type="line" smooth="yes"/>
      <point x="151" y="473"/>
      <point x="151" y="488"/>
      <point x="159" y="488" type="curve" smooth="yes"/>
      <point x="165" y="488"/>
      <point x="176" y="477"/>
      <point x="193" y="455" type="curve" smooth="yes"/>
      <point x="542" y="14" type="line" smooth="yes"/>
      <point x="554" y="-1"/>
      <point x="558" y="-4"/>
      <point x="569" y="-10" type="curve"/>
      <point x="583" y="-10"/>
      <point x="603" y="-8"/>
      <point x="618" y="0" type="curve"/>
      <point x="611" y="24"/>
      <point x="605" y="57"/>
      <point x="605" y="103" type="curve" smooth="yes"/>
      <point x="605" y="512" type="line" smooth="yes"/>
      <point x="605" y="601"/>
      <point x="622" y="607"/>
      <point x="692" y="614" type="curve"/>
      <point x="698" y="620"/>
      <point x="698" y="641"/>
      <point x="692" y="647" type="curve"/>
      <point x="651" y="646"/>
      <point x="604" y="645"/>
      <point x="580" y="645" type="curve" smooth="yes"/>
      <point x="559" y="645"/>
      <point x="513" y="646"/>
      <point x="469" y="647" type="curve"/>
      <point x="463" y="641"/>
      <point x="463" y="620"/>
      <point x="469" y="614" type="curve"/>
      <point x="539" y="607"/>
      <point x="556" y="603"/>
      <point x="556" y="512" type="curve" smooth="yes"/>
      <point x="556" y="185" type="line" smooth="yes"/>
      <point x="556" y="166"/>
      <point x="556" y="155"/>
      <point x="549" y="155" type="curve" smooth="yes"/>
      <point x="545" y="155"/>
      <point x="530" y="173"/>
      <point x="501" y="210" type="curve" smooth="yes"/>
      <point x="158" y="645" type="line"/>
      <point x="23" y="647" type="line"/>
      <point x="17" y="641"/>
      <point x="17" y="620"/>
      <point x="23" y="614" type="curve"/>
      <point x="66" y="611"/>
      <point x="96" y="576"/>
      <point x="102" y="550" type="curve"/>
      <point x="102" y="133" type="line" smooth="yes"/>
      <point x="102" y="44"/>
      <point x="85" y="38"/>
      <point x="15" y="31" type="curve"/>
      <point x="9" y="25"/>
      <point x="9" y="4"/>
    </contour>
  </outline>
</glyph>
<glyph name="O" format="2">
  <advance width="700"/>
  <unicode hex="004F"/>
  <anchor x="343" y="740" name="top"/>
  <anchor x="383" y="10" name="b.ogonek"/>
  <anchor x="343" y="-60" name="b.minus-60"/>
  <anchor x="526" y="561" name="t.horn"/>
  <outline>
    <contour>
      <point x="664" y="329" type="curve" smooth="yes"/>
      <point x="664" y="536"/>
      <point x="521" y="658"/>
      <point x="345" y="658" type="curve" smooth="yes"/>
      <point x="148" y="658"/>
      <point x="36" y="504"/>
      <point x="36" y="320" type="curve" smooth="yes"/>
      <point x="36" y="113"/>
      <point x="179" y="-10"/>
      <point x="354" y="-10" type="curve" smooth="yes"/>
      <point x="547" y="-10"/>
      <point x="664" y="141"/>
    </contour>
    <contour>
      <point x="338" y="622" type="curve" smooth="yes"/>
      <point x="461" y="622"/>
      <point x="568" y="512"/>
      <point x="568" y="311" type="curve" smooth="yes"/>
      <point x="568" y="131"/>
      <point x="482" y="26"/>
      <point x="366" y="26" type="curve" smooth="yes"/>
      <point x="247" y="26"/>
      <point x="132" y="135"/>
      <point x="132" y="327" type="curve" smooth="yes"/>
      <point x="132" y="537"/>
      <point x="230" y="622"/>
    </contour>
  </outline>
</glyph>
<glyph name="P" format="2">
  <advance width="545"/>
  <unicode hex="0050"/>
  <anchor x="252" y="740" name="top"/>
  <anchor x="252" y="-60" name="b.minus-60"/>
  <outline>
    <contour>
      <point x="107" y="120" type="line" name=".sk2"/>
      <point x="107" y="45"/>
      <point x="98" y="34"/>
      <point x="20" y="31" type="curve"/>
      <point x="13" y="25"/>
      <point x="13" y="4"/>
      <point x="20" y="-2" type="curve"/>
      <point x="87" y="-1"/>
      <point x="121" y="0"/>
      <point x="147" y="0" type="curve"/>
      <point x="166" y="0"/>
      <point x="228" y="-1"/>
      <point x="294" y="-2" type="curve"/>
      <point x="300" y="4"/>
      <point x="300" y="25"/>
      <point x="294" y="31" type="curve"/>
      <point x="206" y="36"/>
      <point x="193" y="48"/>
      <point x="193" y="122" type="curve" smooth="yes"/>
      <point x="193" y="554" type="line" smooth="yes"/>
      <point x="193" y="595"/>
      <point x="224" y="619"/>
      <point x="279" y="619" type="curve" smooth="yes"/>
      <point x="370" y="619"/>
      <point x="415" y="569"/>
      <point x="415" y="468" type="curve" smooth="yes"/>
      <point x="415" y="364"/>
      <point x="368" y="315"/>
      <point x="268" y="315" type="curve" smooth="yes"/>
      <point x="231" y="315"/>
      <point x="208" y="316"/>
      <point x="181" y="321" type="curve"/>
      <point x="181" y="308"/>
      <point x="185" y="297"/>
      <point x="192" y="290" type="curve"/>
      <point x="221" y="284"/>
      <point x="242" y="282"/>
      <point x="273" y="282" type="curve" smooth="yes"/>
      <point x="417" y="282"/>
      <point x="511" y="363"/>
      <point x="511" y="486" type="curve" smooth="yes"/>
      <point x="511" y="585"/>
      <point x="421" y="652"/>
      <point x="286" y="652" type="curve" smooth="yes"/>
      <point x="227" y="652"/>
      <point x="167" y="645"/>
      <point x="147" y="645" type="curve" name=".sk1"/>
      <point x="122" y="644"/>
      <point x="87" y="646"/>
      <point x="20" y="647" type="curve"/>
      <point x="14" y="641"/>
      <point x="14" y="620"/>
      <point x="20" y="614" type="curve"/>
      <point x="98" y="611"/>
      <point x="107" y="600"/>
      <point x="107" y="525" type="curve"/>
    </contour>
  </outline>
</glyph>
<glyph name="Q" format="2">
  <advance width="702"/>
  <unicode hex="0051"/>
  <anchor x="344" y="740" name="t.uni0302"/>
  <outline>
    <contour>
      <point x="37" y="310" type="curve" smooth="yes"/>
      <point x="37" y="129"/>
      <point x="158" y="11"/>
      <point x="309" y="-8" type="curve"/>
      <point x="253" y="-36"/>
      <point x="173" y="-98"/>
      <point x="139" y="-153" type="curve"/>
      <point x="178" y="-173" type="line"/>
      <point x="190" y="-156"/>
      <point x="203" y="-141"/>
      <point x="216" y="-127" type="curve"/>
      <point x="230" y="-117"/>
      <point x="243" y="-114"/>
      <point x="251" y="-114" type="curve" smooth="yes"/>
      <point x="294" y="-114"/>
      <point x="330" y="-133"/>
      <point x="369" y="-155" type="curve" smooth="yes"/>
      <point x="416" y="-182"/>
      <point x="466" y="-209"/>
      <point x="537" y="-209" type="curve" smooth="yes"/>
      <point x="600" y="-209"/>
      <point x="642" y="-183"/>
      <point x="681" y="-127" type="curve"/>
      <point x="664" y="-115" type="line"/>
      <point x="642" y="-142"/>
      <point x="606" y="-152"/>
      <point x="577" y="-152" type="curve" smooth="yes"/>
      <point x="535" y="-152"/>
      <point x="495.07" y="-133.853"/>
      <point x="453" y="-114" type="curve" smooth="yes"/>
      <point x="406.069" y="-91.8529"/>
      <point x="356" y="-70"/>
      <point x="298" y="-70" type="curve" smooth="yes"/>
      <point x="292" y="-70"/>
      <point x="285" y="-70"/>
      <point x="278" y="-71" type="curve"/>
      <point x="328" y="-35"/>
      <point x="377" y="-14"/>
      <point x="409" y="-5" type="curve"/>
      <point x="578" y="23"/>
      <point x="666" y="166"/>
      <point x="666" y="329" type="curve" smooth="yes"/>
      <point x="666" y="536"/>
      <point x="523" y="658"/>
      <point x="344" y="658" type="curve" smooth="yes"/>
      <point x="150" y="658"/>
      <point x="37" y="504"/>
    </contour>
    <contour>
      <point x="133" y="327" type="curve" smooth="yes"/>
      <point x="133" y="537"/>
      <point x="232" y="622"/>
      <point x="331" y="622" type="curve" smooth="yes"/>
      <point x="463" y="622"/>
      <point x="570" y="512"/>
      <point x="570" y="310" type="curve" smooth="yes"/>
      <point x="570" y="131"/>
      <point x="484" y="26"/>
      <point x="370" y="26" type="curve" smooth="yes"/>
      <point x="248" y="26"/>
      <point x="133" y="135"/>
    </contour>
  </outline>
</glyph>
<glyph name="R" format="2">
  <advance width="591"/>
  <unicode hex="0052"/>
  <anchor x="267" y="740" name="top"/>
  <anchor x="275" y="-60" name="b.minus-60"/>
  <outline>
    <contour>
      <point x="107" y="120" type="line" name=".sk2"/>
      <point x="107" y="45"/>
      <point x="98" y="34"/>
      <point x="20" y="31" type="curve"/>
      <point x="13" y="25"/>
      <point x="13" y="4"/>
      <point x="20" y="-2" type="curve"/>
      <point x="87" y="-1"/>
      <point x="121" y="0"/>
      <point x="147" y="0" type="curve"/>
      <point x="165" y="0"/>
      <point x="222" y="-1"/>
      <point x="280" y="-2" type="curve"/>
      <point x="286" y="4"/>
      <point x="286" y="25"/>
      <point x="280" y="31" type="curve"/>
      <point x="210" y="34"/>
      <point x="193" y="39"/>
      <point x="193" y="122" type="curve" smooth="yes"/>
      <point x="193" y="554" type="line" smooth="yes"/>
      <point x="193" y="583"/>
      <point x="205" y="618"/>
      <point x="276" y="618" type="curve" smooth="yes"/>
      <point x="337" y="618"/>
      <point x="409" y="596"/>
      <point x="409" y="478" type="curve" smooth="yes"/>
      <point x="409" y="353"/>
      <point x="338" y="325"/>
      <point x="241" y="325" type="curve" smooth="yes"/>
      <point x="170" y="325" type="line"/>
      <point x="170" y="290" type="line"/>
      <point x="279" y="290"/>
      <point x="294" y="279"/>
      <point x="310" y="253" type="curve" smooth="yes"/>
      <point x="417" y="79" type="line" smooth="yes"/>
      <point x="446" y="32"/>
      <point x="489" y="-10"/>
      <point x="549" y="-10" type="curve" smooth="yes"/>
      <point x="564" y="-10"/>
      <point x="581" y="-8"/>
      <point x="591" y="-3" type="curve"/>
      <point x="595" y="4"/>
      <point x="594" y="13"/>
      <point x="590" y="21" type="curve"/>
      <point x="545" y="21"/>
      <point x="520" y="55"/>
      <point x="494" y="98" type="curve" smooth="yes"/>
      <point x="368" y="308" type="line"/>
      <point x="411" y="322"/>
      <point x="501" y="374"/>
      <point x="501" y="479" type="curve" smooth="yes"/>
      <point x="501" y="615"/>
      <point x="391" y="652"/>
      <point x="275" y="652" type="curve" smooth="yes"/>
      <point x="219" y="652"/>
      <point x="163" y="645"/>
      <point x="147" y="645" type="curve" name=".sk1"/>
      <point x="122" y="644"/>
      <point x="87" y="646"/>
      <point x="20" y="647" type="curve"/>
      <point x="14" y="641"/>
      <point x="14" y="620"/>
      <point x="20" y="614" type="curve"/>
      <point x="98" y="611"/>
      <point x="107" y="600"/>
      <point x="107" y="525" type="curve"/>
    </contour>
  </outline>
</glyph>
<glyph name="S" format="2">
  <advance width="485"/>
  <unicode hex="0053"/>
  <anchor x="232" y="740" name="top"/>
  <anchor x="232" y="-60" name="b.minus-60"/>
  <anchor x="241" y="0" name="b.cedilla"/>
  <outline>
    <contour>
      <point x="47" y="13" type="curve"/>
      <point x="110" y="13"/>
      <point x="138" y="-10"/>
      <point x="227" y="-10" type="curve" smooth="yes"/>
      <point x="348" y="-10"/>
      <point x="444" y="76"/>
      <point x="444" y="184" type="curve" smooth="yes"/>
      <point x="444" y="269"/>
      <point x="392" y="328"/>
      <point x="282" y="368" type="curve" smooth="yes"/>
      <point x="173" y="408"/>
      <point x="122" y="454"/>
      <point x="122" y="512" type="curve" smooth="yes"/>
      <point x="122" y="570"/>
      <point x="175" y="624"/>
      <point x="232" y="624" type="curve" smooth="yes"/>
      <point x="286" y="624"/>
      <point x="353" y="586"/>
      <point x="380" y="496" type="curve"/>
      <point x="393" y="494"/>
      <point x="405" y="496"/>
      <point x="413" y="502" type="curve"/>
      <point x="406" y="549"/>
      <point x="405" y="573"/>
      <point x="406" y="630" type="curve"/>
      <point x="344" y="638"/>
      <point x="323" y="658"/>
      <point x="241" y="658" type="curve" smooth="yes"/>
      <point x="132" y="658"/>
      <point x="51" y="584"/>
      <point x="51" y="485" type="curve" smooth="yes"/>
      <point x="51" y="402"/>
      <point x="105" y="344"/>
      <point x="226" y="298" type="curve" smooth="yes"/>
      <point x="286" y="275"/>
      <point x="360" y="247"/>
      <point x="360" y="149" type="curve" smooth="yes"/>
      <point x="360" y="69"/>
      <point x="316" y="26"/>
      <point x="235" y="26" type="curve" smooth="yes"/>
      <point x="138" y="26"/>
      <point x="81" y="72"/>
      <point x="60" y="168" type="curve"/>
      <point x="48" y="172"/>
      <point x="38" y="171"/>
      <point x="27" y="165" type="curve"/>
      <point x="39" y="96"/>
      <point x="43" y="65"/>
    </contour>
  </outline>
</glyph>
<glyph name="T" format="2">
  <advance width="597"/>
  <unicode hex="0054"/>
  <anchor x="308" y="740" name="t.uni0302"/>
  <anchor x="308" y="-60" name="b.minus-60"/>
  <anchor x="306" y="0" name="b.cedilla"/>
  <outline>
    <contour>
      <point x="350" y="122" type="curve" smooth="yes"/>
      <point x="350" y="504" type="line" smooth="yes"/>
      <point x="350" y="568"/>
      <point x="360" y="606"/>
      <point x="396" y="606" type="curve" smooth="yes"/>
      <point x="418" y="606" type="line" smooth="yes"/>
      <point x="493" y="606"/>
      <point x="540" y="580"/>
      <point x="557" y="503" type="curve"/>
      <point x="568" y="503"/>
      <point x="582" y="504"/>
      <point x="591" y="508" type="curve"/>
      <point x="584" y="554"/>
      <point x="579" y="605"/>
      <point x="578" y="650" type="curve"/>
      <point x="578" y="651"/>
      <point x="576" y="653"/>
      <point x="575" y="653" type="curve"/>
      <point x="541" y="650"/>
      <point x="430" y="645"/>
      <point x="351" y="645" type="curve" smooth="yes"/>
      <point x="265" y="645" type="line" smooth="yes"/>
      <point x="188" y="645"/>
      <point x="70" y="650"/>
      <point x="32" y="653" type="curve"/>
      <point x="30" y="653"/>
      <point x="28" y="651"/>
      <point x="28" y="650" type="curve"/>
      <point x="24" y="605"/>
      <point x="14" y="553"/>
      <point x="3" y="505" type="curve"/>
      <point x="13" y="501"/>
      <point x="25" y="500"/>
      <point x="37" y="500" type="curve"/>
      <point x="57" y="580"/>
      <point x="103" y="606"/>
      <point x="169" y="606" type="curve" smooth="yes"/>
      <point x="218" y="606" type="line" smooth="yes"/>
      <point x="255" y="606"/>
      <point x="265" y="568"/>
      <point x="265" y="507" type="curve" smooth="yes"/>
      <point x="265" y="122" type="line" smooth="yes"/>
      <point x="265" y="39"/>
      <point x="248" y="34"/>
      <point x="168" y="31" type="curve"/>
      <point x="165" y="28"/>
      <point x="164" y="22"/>
      <point x="164" y="15" type="curve" smooth="yes"/>
      <point x="164" y="8"/>
      <point x="165" y="1"/>
      <point x="168" y="-2" type="curve"/>
      <point x="217" y="-1"/>
      <point x="268" y="0"/>
      <point x="308" y="0" type="curve" smooth="yes"/>
      <point x="346" y="0"/>
      <point x="397" y="-1"/>
      <point x="447" y="-2" type="curve"/>
      <point x="450" y="1"/>
      <point x="452" y="8"/>
      <point x="452" y="15" type="curve" smooth="yes"/>
      <point x="452" y="22"/>
      <point x="450" y="28"/>
      <point x="447" y="31" type="curve"/>
      <point x="367" y="34"/>
      <point x="350" y="39"/>
    </contour>
  </outline>
</glyph>
<glyph name="U" format="2">
  <advance width="661"/>
  <unicode hex="0055"/>
  <anchor x="346" y="740" name="top"/>
  <anchor x="391" y="10" name="b.ogonek"/>
  <anchor x="344" y="-60" name="b.minus-60"/>
  <anchor x="615" y="610" name="t.horn"/>
  <outline>
    <contour>
      <point x="87" y="233" type="line" smooth="yes"/>
      <point x="87" y="29"/>
      <point x="219" y="-10"/>
      <point x="321" y="-10" type="curve" smooth="yes"/>
      <point x="526" y="-10"/>
      <point x="575" y="117"/>
      <point x="575" y="295" type="curve" smooth="yes"/>
      <point x="575" y="523" type="line" smooth="yes"/>
      <point x="575" y="603"/>
      <point x="592" y="607"/>
      <point x="652" y="614" type="curve"/>
      <point x="658" y="620"/>
      <point x="658" y="641"/>
      <point x="652" y="647" type="curve"/>
      <point x="614" y="646"/>
      <point x="573" y="645"/>
      <point x="550" y="645" type="curve" smooth="yes"/>
      <point x="529" y="645"/>
      <point x="480" y="646"/>
      <point x="434" y="647" type="curve"/>
      <point x="428" y="641"/>
      <point x="428" y="620"/>
      <point x="434" y="614" type="curve"/>
      <point x="509" y="607"/>
      <point x="526" y="604"/>
      <point x="526" y="523" type="curve" smooth="yes"/>
      <point x="526" y="277" type="line" smooth="yes"/>
      <point x="526" y="165"/>
      <point x="511" y="31"/>
      <point x="342" y="31" type="curve" smooth="yes"/>
      <point x="200" y="31"/>
      <point x="172" y="148"/>
      <point x="172" y="266" type="curve" smooth="yes"/>
      <point x="172" y="523" type="line" smooth="yes"/>
      <point x="172" y="606"/>
      <point x="187" y="611"/>
      <point x="264" y="614" type="curve"/>
      <point x="270" y="620"/>
      <point x="270" y="641"/>
      <point x="264" y="647" type="curve"/>
      <point x="205" y="646"/>
      <point x="146" y="645"/>
      <point x="127" y="645" type="curve" name=".sk1"/>
      <point x="102" y="645"/>
      <point x="67" y="646"/>
      <point x="0" y="647" type="curve"/>
      <point x="-6" y="641"/>
      <point x="-6" y="620"/>
      <point x="0" y="614" type="curve"/>
      <point x="78" y="611"/>
      <point x="87" y="600"/>
      <point x="87" y="525" type="curve"/>
    </contour>
  </outline>
</glyph>
<glyph name="V" format="2">
	<unicode hex="0056"/>
	<advance width="654"/>
	<outline>
		<contour>
			<point x="295" y="11" type="line" smooth="yes"/>
			<point x="301" y="-5"/>
			<point x="308" y="-12"/>
			<point x="318" y="-12" type="curve" smooth="yes"/>
			<point x="329" y="-12"/>
			<point x="336" y="-3"/>
			<point x="342" y="11" type="curve" smooth="yes"/>
			<point x="549" y="521" type="line" smooth="yes"/>
			<point x="568" y="568"/>
			<point x="584" y="607"/>
			<point x="647" y="614" type="curve"/>
			<point x="653" y="620"/>
			<point x="653" y="641"/>
			<point x="647" y="647" type="curve"/>
			<point x="617" y="646"/>
			<point x="582" y="645"/>
			<point x="559" y="645" type="curve" smooth="yes"/>
			<point x="536" y="645"/>
			<point x="491" y="646"/>
			<point x="450" y="647" type="curve"/>
			<point x="444" y="641"/>
			<point x="444" y="620"/>
			<point x="450" y="614" type="curve"/>
			<point x="524" y="609"/>
			<point x="524" y="582"/>
			<point x="503" y="528" type="curve" smooth="yes"/>
			<point x="345" y="127" type="line"/>
			<point x="341" y="127" type="line"/>
			<point x="181" y="534" type="line" smooth="yes"/>
			<point x="158" y="594"/>
			<point x="164" y="607"/>
			<point x="232" y="614" type="curve"/>
			<point x="238" y="620"/>
			<point x="238" y="641"/>
			<point x="232" y="647" type="curve"/>
			<point x="192" y="646"/>
			<point x="147" y="645"/>
			<point x="111" y="645" type="curve" smooth="yes"/>
			<point x="75" y="645"/>
			<point x="40" y="646"/>
			<point x="7" y="647" type="curve"/>
			<point x="1" y="641"/>
			<point x="2" y="620"/>
			<point x="8" y="614" type="curve"/>
			<point x="63" y="609"/>
			<point x="71" y="592"/>
			<point x="98" y="523" type="curve" smooth="yes"/>
		</contour>
	</outline>
	<anchor name="t.uni0302" x="334" y="740"/>
	<anchor name="b.minus-60" x="346" y="-60"/>
</glyph>
<glyph name="W" format="2">
	<unicode hex="0057"/>
	<advance width="949"/>
	<outline>
		<contour>
			<point x="609" y="15" type="line" smooth="yes"/>
			<point x="615" y="-2"/>
			<point x="620" y="-12"/>
			<point x="632" y="-12" type="curve" smooth="yes"/>
			<point x="643" y="-12"/>
			<point x="650" y="-1"/>
			<point x="655" y="14" type="curve"/>
			<point x="856" y="553" type="line" smooth="yes"/>
			<point x="869" y="588"/>
			<point x="887" y="611"/>
			<point x="942" y="614" type="curve"/>
			<point x="948" y="620"/>
			<point x="948" y="641"/>
			<point x="942" y="647" type="curve"/>
			<point x="913" y="646"/>
			<point x="881" y="645"/>
			<point x="855" y="645" type="curve" smooth="yes"/>
			<point x="829" y="645"/>
			<point x="785" y="646"/>
			<point x="745" y="647" type="curve"/>
			<point x="739" y="641"/>
			<point x="739" y="620"/>
			<point x="745" y="614" type="curve"/>
			<point x="786" y="611"/>
			<point x="826" y="608"/>
			<point x="811" y="565" type="curve" smooth="yes"/>
			<point x="655" y="131" type="line"/>
			<point x="652" y="132" type="line"/>
			<point x="514" y="554" type="line" smooth="yes"/>
			<point x="497" y="608"/>
			<point x="532" y="611"/>
			<point x="566" y="614" type="curve"/>
			<point x="572" y="620"/>
			<point x="572" y="641"/>
			<point x="566" y="647" type="curve"/>
			<point x="525" y="646"/>
			<point x="481" y="645"/>
			<point x="441" y="645" type="curve" smooth="yes"/>
			<point x="408" y="645"/>
			<point x="373" y="646"/>
			<point x="341" y="647" type="curve"/>
			<point x="335" y="641"/>
			<point x="335" y="620"/>
			<point x="341" y="614" type="curve"/>
			<point x="394" y="611"/>
			<point x="416" y="580"/>
			<point x="425" y="554" type="curve" smooth="yes"/>
		</contour>
		<contour>
			<point x="266" y="15" type="line"/>
			<point x="271" y="-1"/>
			<point x="277" y="-12"/>
			<point x="288" y="-12" type="curve" smooth="yes"/>
			<point x="301" y="-12"/>
			<point x="307" y="-2"/>
			<point x="314" y="15" type="curve"/>
			<point x="494" y="418" type="line"/>
			<point x="472" y="483" type="line"/>
			<point x="317" y="129" type="line"/>
			<point x="312" y="130" type="line"/>
			<point x="166" y="572" type="line" smooth="yes"/>
			<point x="154" y="607"/>
			<point x="181" y="612"/>
			<point x="216" y="614" type="curve"/>
			<point x="222" y="620"/>
			<point x="222" y="641"/>
			<point x="216" y="647" type="curve"/>
			<point x="183" y="646"/>
			<point x="139" y="645"/>
			<point x="100" y="645" type="curve" smooth="yes"/>
			<point x="65" y="645"/>
			<point x="36" y="646"/>
			<point x="7" y="647" type="curve"/>
			<point x="1" y="641"/>
			<point x="1" y="620"/>
			<point x="7" y="614" type="curve"/>
			<point x="52" y="611"/>
			<point x="59" y="610"/>
			<point x="78" y="556" type="curve" smooth="yes"/>
		</contour>
	</outline>
	<anchor name="t.uni0302" x="466" y="740"/>
	<anchor name="b.minus-60" x="354" y="-60"/>
</glyph>
<glyph name="Y" format="2">
	<unicode hex="0059"/>
	<advance width="575"/>
	<outline>
		<contour>
			<point x="337.5" y="122" type="curve" smooth="yes"/>
			<point x="337.5" y="258" type="line" smooth="yes"/>
			<point x="337.5" y="288"/>
			<point x="338.859" y="303.799"/>
			<point x="355.461" y="334" type="curve" smooth="yes"/>
			<point x="474.205" y="550" type="line" smooth="yes"/>
			<point x="502.219" y="600.959"/>
			<point x="524.097" y="610"/>
			<point x="569" y="614" type="curve"/>
			<point x="575" y="620"/>
			<point x="575" y="641"/>
			<point x="569" y="647" type="curve"/>
			<point x="541" y="646"/>
			<point x="509" y="645"/>
			<point x="486" y="645" type="curve" smooth="yes"/>
			<point x="463" y="645"/>
			<point x="427" y="646"/>
			<point x="395" y="647" type="curve"/>
			<point x="389" y="641"/>
			<point x="389" y="620"/>
			<point x="395" y="614" type="curve"/>
			<point x="439" y="611"/>
			<point x="455" y="601"/>
			<point x="434" y="561" type="curve" smooth="yes"/>
			<point x="323" y="352" type="line" smooth="yes"/>
			<point x="315" y="337"/>
			<point x="310" y="338"/>
			<point x="301" y="354" type="curve" smooth="yes"/>
			<point x="185" y="559" type="line" smooth="yes"/>
			<point x="161" y="601"/>
			<point x="165" y="611"/>
			<point x="221" y="614" type="curve"/>
			<point x="227" y="620"/>
			<point x="227" y="641"/>
			<point x="221" y="647" type="curve"/>
			<point x="185" y="646"/>
			<point x="147" y="645"/>
			<point x="107" y="645" type="curve" smooth="yes"/>
			<point x="68" y="645"/>
			<point x="35" y="646"/>
			<point x="5" y="647" type="curve"/>
			<point x="-1" y="641"/>
			<point x="0" y="620"/>
			<point x="6" y="614" type="curve"/>
			<point x="47.9146" y="611"/>
			<point x="65.3373" y="605.273"/>
			<point x="99.8089" y="547" type="curve" smooth="yes"/>
			<point x="230.543" y="326" type="line" smooth="yes"/>
			<point x="247.911" y="296.64"/>
			<point x="251.5" y="286"/>
			<point x="251.5" y="249" type="curve" smooth="yes"/>
			<point x="251.5" y="122" type="line" smooth="yes"/>
			<point x="251.5" y="39"/>
			<point x="234.588" y="34"/>
			<point x="155" y="31" type="curve"/>
			<point x="149" y="25"/>
			<point x="149" y="4"/>
			<point x="155" y="-2" type="curve"/>
			<point x="204" y="-1"/>
			<point x="256" y="0"/>
			<point x="295" y="0" type="curve" smooth="yes"/>
			<point x="334" y="0"/>
			<point x="384" y="-1"/>
			<point x="434" y="-2" type="curve"/>
			<point x="440" y="4"/>
			<point x="440" y="25"/>
			<point x="434" y="31" type="curve"/>
			<point x="354.412" y="34"/>
			<point x="337.5" y="39"/>
		</contour>
	</outline>
	<anchor name="t.uni0302" x="303" y="740"/>
	<anchor name="b.minus-60" x="353" y="-60"/>
</glyph>
<glyph name="Z" format="2">
	<unicode hex="005A"/>
	<advance width="604"/>
	<outline>
		<contour>
			<point x="41" y="15" type="curve" smooth="yes"/>
			<point x="41" y="5"/>
			<point x="46" y="0"/>
			<point x="60" y="0" type="curve" smooth="yes"/>
			<point x="424" y="0" type="line" smooth="yes"/>
			<point x="451" y="0"/>
			<point x="541" y="-2"/>
			<point x="550" y="-3" type="curve"/>
			<point x="550" y="-3"/>
			<point x="552" y="-1"/>
			<point x="552" y="-1" type="curve"/>
			<point x="556" y="54"/>
			<point x="566" y="113"/>
			<point x="578" y="165" type="curve"/>
			<point x="571" y="167"/>
			<point x="560" y="170"/>
			<point x="547" y="170" type="curve"/>
			<point x="516" y="99"/>
			<point x="491" y="44"/>
			<point x="382" y="42" type="curve" smooth="yes"/>
			<point x="189" y="38" type="line"/>
			<point x="172" y="38"/>
			<point x="164" y="43"/>
			<point x="164" y="52" type="curve" smooth="yes"/>
			<point x="164" y="57"/>
			<point x="167" y="63"/>
			<point x="172" y="72" type="curve"/>
			<point x="547" y="591" type="line" smooth="yes"/>
			<point x="567" y="619"/>
			<point x="571" y="625"/>
			<point x="571" y="636" type="curve" smooth="yes"/>
			<point x="571" y="643"/>
			<point x="566" y="647"/>
			<point x="558" y="647" type="curve" smooth="yes"/>
			<point x="546" y="647"/>
			<point x="515" y="645"/>
			<point x="485" y="645" type="curve" smooth="yes"/>
			<point x="264" y="645" type="line" smooth="yes"/>
			<point x="217" y="645"/>
			<point x="122" y="650"/>
			<point x="86" y="654" type="curve"/>
			<point x="86" y="654"/>
			<point x="82" y="652"/>
			<point x="82" y="651" type="curve"/>
			<point x="79" y="598"/>
			<point x="69" y="542"/>
			<point x="61" y="501" type="curve"/>
			<point x="71" y="498"/>
			<point x="80" y="496"/>
			<point x="91" y="496" type="curve"/>
			<point x="112" y="565"/>
			<point x="150.007" y="600.578"/>
			<point x="225" y="602" type="curve" smooth="yes"/>
			<point x="436" y="606" type="line"/>
			<point x="442" y="606"/>
			<point x="446" y="603"/>
			<point x="446" y="597" type="curve" smooth="yes"/>
			<point x="446" y="592"/>
			<point x="443" y="586"/>
			<point x="438" y="579" type="curve" smooth="yes"/>
			<point x="49" y="38" type="line" smooth="yes"/>
			<point x="43" y="30"/>
			<point x="41" y="22"/>
		</contour>
	</outline>
	<anchor name="t.uni0302" x="308" y="740"/>
	<anchor name="b.minus-60" x="282" y="-60"/>
</glyph>
<glyph name="underscore" format="2">
  <advance width="486"/>
  <unicode hex="005F"/>
  <outline>
    <contour>
      <point x="356" y="-110" type="line"/>
      <point x="170" y="-110" type="line"/>
      <point x="170" y="-149" type="line"/>
      <point x="356" y="-149" type="line"/>
    </contour>
    <contour>
      <point x="196" y="-149" type="line"/>
      <point x="196" y="-110" type="line"/>
      <point x="23" y="-110" type="line" smooth="yes"/>
      <point x="14" y="-110"/>
      <point x="4" y="-125"/>
      <point x="4" y="-135" type="curve" smooth="yes"/>
      <point x="4" y="-141"/>
      <point x="7" y="-149"/>
      <point x="15" y="-149" type="curve" smooth="yes"/>
    </contour>
    <contour>
      <point x="329" y="-149" type="line"/>
      <point x="462" y="-149" type="line" smooth="yes"/>
      <point x="474" y="-149"/>
      <point x="483" y="-134"/>
      <point x="483" y="-123" type="curve" smooth="yes"/>
      <point x="483" y="-118"/>
      <point x="480" y="-110"/>
      <point x="471" y="-110" type="curve" smooth="yes"/>
      <point x="329" y="-110" type="line"/>
    </contour>
  </outline>
</glyph>
<glyph name="a" format="2">
  <advance width="457"/>
  <unicode hex="0061"/>
  <anchor x="209" y="500" name="top"/>
  <anchor x="210" y="500" name="t.ring"/>
  <anchor x="426" y="10" name="b.ogonek"/>
  <anchor x="222" y="-60" name="b.minus-60"/>
  <outline>
    <contour>
      <point x="291" y="48" type="line"/>
      <point x="297" y="17"/>
      <point x="310" y="-10"/>
      <point x="360" y="-10" type="curve" smooth="yes"/>
      <point x="398" y="-10"/>
      <point x="434" y="7"/>
      <point x="455" y="27" type="curve"/>
      <point x="453" y="39"/>
      <point x="449" y="48"/>
      <point x="438" y="54" type="curve"/>
      <point x="431" y="48"/>
      <point x="414" y="38"/>
      <point x="400" y="38" type="curve" smooth="yes"/>
      <point x="372" y="38"/>
      <point x="371" y="77"/>
      <point x="371" y="123" type="curve" smooth="yes"/>
      <point x="371" y="270" type="line" smooth="yes"/>
      <point x="371" y="380"/>
      <point x="320" y="439"/>
      <point x="226" y="439" type="curve" smooth="yes"/>
      <point x="136" y="439"/>
      <point x="53" y="385"/>
      <point x="53" y="326" type="curve" smooth="yes"/>
      <point x="53" y="304"/>
      <point x="65" y="292"/>
      <point x="88" y="292" type="curve" smooth="yes"/>
      <point x="117" y="292"/>
      <point x="136" y="313"/>
      <point x="136" y="332" type="curve" smooth="yes"/>
      <point x="136" y="340"/>
      <point x="133" y="347"/>
      <point x="133" y="361" type="curve" smooth="yes"/>
      <point x="133" y="392"/>
      <point x="152" y="406"/>
      <point x="200" y="406" type="curve" smooth="yes"/>
      <point x="264" y="406"/>
      <point x="291" y="364"/>
      <point x="291" y="265" type="curve" smooth="yes"/>
      <point x="291" y="79" type="line"/>
      <point x="253" y="47"/>
      <point x="220" y="31"/>
      <point x="189" y="31" type="curve" smooth="yes"/>
      <point x="139" y="31"/>
      <point x="117" y="71"/>
      <point x="117" y="109" type="curve" smooth="yes"/>
      <point x="117" y="147"/>
      <point x="138" y="192"/>
      <point x="212" y="212" type="curve" smooth="yes"/>
      <point x="306" y="237" type="line"/>
      <point x="306" y="268" type="line"/>
      <point x="199" y="243" type="line" smooth="yes"/>
      <point x="103" y="220"/>
      <point x="34" y="166"/>
      <point x="34" y="98" type="curve" smooth="yes"/>
      <point x="34" y="16"/>
      <point x="90" y="-10"/>
      <point x="159" y="-10" type="curve" smooth="yes"/>
      <point x="195" y="-10"/>
      <point x="226" y="-3"/>
      <point x="269" y="32" type="curve" smooth="yes"/>
      <point x="289" y="48" type="line"/>
    </contour>
  </outline>
</glyph>
<glyph name="b" format="2">
  <advance width="493"/>
  <unicode hex="0062"/>
  <anchor x="247" y="740" name="top"/>
  <anchor x="229" y="-60" name="b.minus-60"/>
  <outline>
    <contour>
      <point x="73" y="0" type="curve"/>
      <point x="78" y="-8"/>
      <point x="83" y="-12"/>
      <point x="95" y="-12" type="curve"/>
      <point x="110" y="0"/>
      <point x="123" y="13"/>
      <point x="134" y="27" type="curve"/>
      <point x="164" y="-3"/>
      <point x="193" y="-10"/>
      <point x="235" y="-10" type="curve" smooth="yes"/>
      <point x="337" y="-10"/>
      <point x="456" y="83"/>
      <point x="456" y="233" type="curve" smooth="yes"/>
      <point x="456" y="349"/>
      <point x="379" y="439"/>
      <point x="279" y="439" type="curve" smooth="yes"/>
      <point x="231" y="439"/>
      <point x="204" y="426"/>
      <point x="144" y="375" type="curve"/>
      <point x="144" y="336" type="line"/>
      <point x="196" y="384"/>
      <point x="217" y="395"/>
      <point x="259" y="395" type="curve" smooth="yes"/>
      <point x="320" y="395"/>
      <point x="370" y="321"/>
      <point x="370" y="224" type="curve" smooth="yes"/>
      <point x="370" y="110"/>
      <point x="324" y="24"/>
      <point x="229" y="24" type="curve" smooth="yes"/>
      <point x="198" y="24"/>
      <point x="177" y="46"/>
      <point x="157" y="71" type="curve"/>
      <point x="157" y="576" type="line" name=".sk1"/>
      <point x="157" y="627"/>
      <point x="158" y="658"/>
      <point x="161" y="691" type="curve"/>
      <point x="161" y="695"/>
      <point x="156" y="698"/>
      <point x="148" y="698" type="curve"/>
      <point x="116" y="685"/>
      <point x="55" y="673"/>
      <point x="10" y="669" type="curve"/>
      <point x="8" y="663"/>
      <point x="9" y="649"/>
      <point x="12" y="641" type="curve"/>
      <point x="69" y="636"/>
      <point x="77" y="628"/>
      <point x="77" y="576" type="curve"/>
      <point x="77" y="71" type="line" smooth="yes"/>
      <point x="77" y="32"/>
      <point x="76" y="14"/>
    </contour>
  </outline>
</glyph>
<glyph name="d" format="2">
  <advance width="506"/>
  <unicode hex="0064"/>
  <anchor x="259" y="740" name="t.uni0302"/>
  <anchor x="245" y="-60" name="b.minus-60"/>
  <anchor x="483" y="658" name="apostrophe"/>
  <outline>
    <contour>
      <point x="360" y="-10" type="curve"/>
      <point x="368" y="-13"/>
      <point x="373" y="-12"/>
      <point x="379" y="-10" type="curve"/>
      <point x="401" y="8"/>
      <point x="436" y="23"/>
      <point x="497" y="30" type="curve"/>
      <point x="503" y="36"/>
      <point x="503" y="51"/>
      <point x="497" y="57" type="curve"/>
      <point x="433" y="62"/>
      <point x="424" y="81"/>
      <point x="424" y="130" type="curve" smooth="yes"/>
      <point x="424" y="583" type="line" smooth="yes"/>
      <point x="424" y="648"/>
      <point x="428" y="684"/>
      <point x="428" y="688" type="curve" smooth="yes"/>
      <point x="428" y="695"/>
      <point x="424" y="698"/>
      <point x="415" y="698" type="curve"/>
      <point x="390" y="688"/>
      <point x="315" y="674"/>
      <point x="275" y="671" type="curve"/>
      <point x="273" y="663"/>
      <point x="275" y="647"/>
      <point x="281" y="641" type="curve"/>
      <point x="329" y="641"/>
      <point x="345" y="629"/>
      <point x="345" y="595" type="curve" smooth="yes"/>
      <point x="345" y="107" type="line" smooth="yes"/>
      <point x="345" y="61"/>
      <point x="349" y="34"/>
    </contour>
    <contour>
      <point x="361" y="412" type="line"/>
      <point x="327" y="429"/>
      <point x="287" y="439"/>
      <point x="258" y="439" type="curve" smooth="yes"/>
      <point x="125" y="439"/>
      <point x="39" y="332"/>
      <point x="39" y="203" type="curve" smooth="yes"/>
      <point x="39" y="80"/>
      <point x="101" y="-10"/>
      <point x="209" y="-10" type="curve" smooth="yes"/>
      <point x="258" y="-10"/>
      <point x="328" y="39"/>
      <point x="355" y="70" type="curve"/>
      <point x="354" y="109" type="line"/>
      <point x="328" y="83"/>
      <point x="280" y="37"/>
      <point x="235" y="37" type="curve" smooth="yes"/>
      <point x="181" y="37"/>
      <point x="125" y="95.8392"/>
      <point x="125" y="220.499" type="curve" smooth="yes"/>
      <point x="125" y="301.278"/>
      <point x="145" y="403"/>
      <point x="247" y="403" type="curve" smooth="yes"/>
      <point x="294" y="403"/>
      <point x="311" y="390.176"/>
      <point x="361" y="330" type="curve"/>
    </contour>
  </outline>
</glyph>
<glyph name="e" format="2">
  <advance width="451"/>
  <unicode hex="0065"/>
  <anchor x="246" y="500" name="top"/>
  <anchor x="326" y="10" name="b.ogonek"/>
  <anchor x="255" y="-60" name="b.minus-60"/>
  <anchor x="243" y="0" name="b.cedilla"/>
  <outline>
    <contour>
      <point x="389" y="93" type="curve"/>
      <point x="349" y="52"/>
      <point x="319" y="39"/>
      <point x="265" y="39" type="curve" smooth="yes"/>
      <point x="177" y="39"/>
      <point x="124" y="118"/>
      <point x="124" y="248" type="curve"/>
      <point x="390" y="246" type="line" smooth="yes"/>
      <point x="402" y="246"/>
      <point x="409" y="252"/>
      <point x="409" y="263" type="curve" smooth="yes"/>
      <point x="409" y="366"/>
      <point x="344" y="437"/>
      <point x="249" y="437" type="curve" smooth="yes"/>
      <point x="127" y="437"/>
      <point x="40" y="335"/>
      <point x="40" y="198" type="curve" smooth="yes"/>
      <point x="40" y="70"/>
      <point x="116" y="-10"/>
      <point x="236" y="-10" type="curve" smooth="yes"/>
      <point x="309" y="-10"/>
      <point x="365" y="19"/>
      <point x="410" y="77" type="curve"/>
      <point x="407" y="87"/>
      <point x="401" y="92"/>
    </contour>
    <contour>
      <point x="127" y="282" type="line"/>
      <point x="139" y="354"/>
      <point x="185" y="404"/>
      <point x="242" y="404" type="curve" smooth="yes"/>
      <point x="292" y="404"/>
      <point x="323" y="365"/>
      <point x="323" y="299" type="curve" smooth="yes"/>
      <point x="323" y="289"/>
      <point x="318" y="285"/>
      <point x="308" y="285" type="curve" smooth="yes"/>
    </contour>
  </outline>
</glyph>
<glyph name="f" format="2">
  <advance width="310"/>
  <unicode hex="0066"/>
  <anchor x="233" y="740" name="top"/>
  <anchor x="353" y="-60" name="b.minus-60"/>
  <outline>
    <contour>
      <point x="30" y="-2" type="curve"/>
      <point x="63" y="-1"/>
      <point x="107" y="0"/>
      <point x="147" y="0" type="curve"/>
      <point x="147" y="122" type="line"/>
      <point x="102" y="122" type="line"/>
      <point x="102" y="40"/>
      <point x="91" y="35"/>
      <point x="30" y="31" type="curve"/>
      <point x="24" y="25"/>
      <point x="24" y="4"/>
    </contour>
    <contour>
      <point x="102" y="110" type="line"/>
      <point x="182" y="110" type="line"/>
      <point x="182" y="486" type="line" smooth="yes"/>
      <point x="182" y="640"/>
      <point x="227" y="664"/>
      <point x="260" y="664" type="curve" smooth="yes"/>
      <point x="290" y="664"/>
      <point x="306" y="652"/>
      <point x="320" y="617" type="curve" smooth="yes"/>
      <point x="328" y="599"/>
      <point x="339" y="585"/>
      <point x="360" y="585" type="curve" smooth="yes"/>
      <point x="377" y="585"/>
      <point x="401" y="606"/>
      <point x="401" y="626" type="curve" smooth="yes"/>
      <point x="401" y="684"/>
      <point x="322" y="698"/>
      <point x="279" y="698" type="curve" smooth="yes"/>
      <point x="195" y="698"/>
      <point x="102" y="625"/>
      <point x="102" y="469" type="curve" smooth="yes"/>
    </contour>
    <contour>
      <point x="221" y="390" type="line"/>
      <point x="221" y="429" type="line"/>
      <point x="48" y="429" type="line" smooth="yes"/>
      <point x="39" y="429"/>
      <point x="29" y="414"/>
      <point x="29" y="404" type="curve" smooth="yes"/>
      <point x="29" y="398"/>
      <point x="32" y="390"/>
      <point x="40" y="390" type="curve" smooth="yes"/>
    </contour>
    <contour>
      <point x="146" y="390" type="line"/>
      <point x="279" y="390" type="line" smooth="yes"/>
      <point x="291" y="390"/>
      <point x="300" y="405"/>
      <point x="300" y="416" type="curve" smooth="yes"/>
      <point x="300" y="421"/>
      <point x="297" y="429"/>
      <point x="288" y="429" type="curve" smooth="yes"/>
      <point x="146" y="429" type="line"/>
    </contour>
    <contour>
      <point x="137" y="0" type="line"/>
      <point x="177" y="0"/>
      <point x="221" y="-1"/>
      <point x="254" y="-2" type="curve"/>
      <point x="260" y="4"/>
      <point x="260" y="25"/>
      <point x="254" y="31" type="curve"/>
      <point x="193" y="35"/>
      <point x="182" y="40"/>
      <point x="182" y="122" type="curve"/>
      <point x="137" y="122" type="line"/>
    </contour>
  </outline>
</glyph>
<glyph name="h" format="2">
  <advance width="547"/>
  <unicode hex="0068"/>
  <anchor x="291" y="740" name="top"/>
  <anchor x="272" y="-60" name="b.minus-60"/>
  <anchor x="132" y="0" name="b.cedilla"/>
  <outline>
    <contour>
      <point x="22" y="-2" type="curve"/>
      <point x="52" y="-1"/>
      <point x="92" y="0"/>
      <point x="132" y="0" type="curve" smooth="yes"/>
      <point x="172" y="0"/>
      <point x="203" y="-1"/>
      <point x="233" y="-2" type="curve"/>
      <point x="239" y="4"/>
      <point x="239" y="25"/>
      <point x="233" y="31" type="curve"/>
      <point x="182" y="36"/>
      <point x="172" y="40"/>
      <point x="172" y="122" type="curve"/>
      <point x="92" y="122" type="line"/>
      <point x="92" y="40"/>
      <point x="82" y="36"/>
      <point x="22" y="31" type="curve"/>
      <point x="16" y="25"/>
      <point x="16" y="4"/>
    </contour>
    <contour>
      <point x="319" y="-2" type="curve"/>
      <point x="349" y="-1"/>
      <point x="381" y="0"/>
      <point x="421" y="0" type="curve" smooth="yes"/>
      <point x="461" y="0"/>
      <point x="498" y="-1"/>
      <point x="528" y="-2" type="curve"/>
      <point x="533" y="4"/>
      <point x="533" y="25"/>
      <point x="528" y="31" type="curve"/>
      <point x="472" y="36"/>
      <point x="461" y="40"/>
      <point x="461" y="122" type="curve"/>
      <point x="381" y="122" type="line"/>
      <point x="381" y="40"/>
      <point x="371" y="36"/>
      <point x="319" y="31" type="curve"/>
      <point x="314" y="25"/>
      <point x="314" y="4"/>
    </contour>
    <contour>
      <point x="172" y="110" type="line"/>
      <point x="172" y="576" type="line" name=".sk1"/>
      <point x="172" y="627"/>
      <point x="173" y="658"/>
      <point x="176" y="691" type="curve"/>
      <point x="176" y="695"/>
      <point x="171" y="698"/>
      <point x="163" y="698" type="curve"/>
      <point x="131" y="685"/>
      <point x="70" y="673"/>
      <point x="25" y="669" type="curve"/>
      <point x="23" y="663"/>
      <point x="24" y="649"/>
      <point x="27" y="641" type="curve"/>
      <point x="84" y="636"/>
      <point x="92" y="628"/>
      <point x="92" y="576" type="curve"/>
      <point x="92" y="110" type="line"/>
    </contour>
    <contour>
      <point x="461" y="110" type="line"/>
      <point x="461" y="271" type="line" smooth="yes"/>
      <point x="461" y="391"/>
      <point x="429" y="439"/>
      <point x="350" y="439" type="curve" smooth="yes"/>
      <point x="297" y="439"/>
      <point x="232" y="403"/>
      <point x="159" y="334" type="curve"/>
      <point x="161" y="298" type="line"/>
      <point x="210" y="356"/>
      <point x="264" y="387"/>
      <point x="316" y="387" type="curve" smooth="yes"/>
      <point x="357" y="387"/>
      <point x="381" y="346"/>
      <point x="381" y="274" type="curve" smooth="yes"/>
      <point x="381" y="110" type="line"/>
    </contour>
    <contour>
      <point x="92" y="576" type="curve"/>
      <point x="172" y="576" type="line"/>
      <point x="172" y="627"/>
      <point x="173" y="658"/>
      <point x="176" y="691" type="curve"/>
      <point x="176" y="695"/>
      <point x="171" y="698"/>
      <point x="163" y="698" type="curve"/>
      <point x="131" y="685"/>
      <point x="70" y="673"/>
      <point x="25" y="669" type="curve"/>
      <point x="23" y="663"/>
      <point x="24" y="649"/>
      <point x="27" y="641" type="curve"/>
      <point x="84" y="636"/>
      <point x="92" y="628"/>
    </contour>
  </outline>
</glyph>
<glyph name="i" format="2">
	<unicode hex="0069"/>
	<advance width="272"/>
	<outline>
		<component base="dotlessi"/>
		<contour>
			<point x="90" y="597" type="curve" smooth="yes"/>
			<point x="90" y="569"/>
			<point x="112" y="547"/>
			<point x="140" y="547" type="curve" smooth="yes"/>
			<point x="168" y="547"/>
			<point x="190" y="569"/>
			<point x="190" y="597" type="curve" smooth="yes"/>
			<point x="190" y="625"/>
			<point x="168" y="647"/>
			<point x="140" y="647" type="curve" smooth="yes"/>
			<point x="112" y="647"/>
			<point x="90" y="625"/>
		</contour>
	</outline>
	<anchor name="t.uni0302" x="137" y="795"/>
	<anchor name="b.ogonek" x="212" y="10"/>
	<anchor name="b.minus-60" x="151" y="-60"/>
</glyph>
<glyph name="j" format="2">
	<unicode hex="006A"/>
	<advance width="261"/>
	<outline>
		<component base="uni0237"/>
		<contour>
			<point x="79" y="597" type="curve" smooth="yes"/>
			<point x="79" y="569"/>
			<point x="101" y="547"/>
			<point x="129" y="547" type="curve" smooth="yes"/>
			<point x="157" y="547"/>
			<point x="179" y="569"/>
			<point x="179" y="597" type="curve" smooth="yes"/>
			<point x="179" y="625"/>
			<point x="157" y="647"/>
			<point x="129" y="647" type="curve" smooth="yes"/>
			<point x="101" y="647"/>
			<point x="79" y="625"/>
		</contour>
	</outline>
</glyph>
<glyph name="k" format="2">
  <advance width="516"/>
  <unicode hex="006B"/>
  <anchor x="263" y="740" name="top"/>
  <anchor x="270" y="-60" name="b.minus-60"/>
  <outline>
    <contour>
      <point x="30" y="-2" type="curve"/>
      <point x="60" y="-1"/>
      <point x="100" y="0"/>
      <point x="140" y="0" type="curve" smooth="yes"/>
      <point x="180" y="0"/>
      <point x="211" y="-1"/>
      <point x="241" y="-2" type="curve"/>
      <point x="247" y="4"/>
      <point x="247" y="25"/>
      <point x="241" y="31" type="curve"/>
      <point x="190" y="36"/>
      <point x="180" y="40"/>
      <point x="180" y="122" type="curve"/>
      <point x="100" y="122" type="line"/>
      <point x="100" y="40"/>
      <point x="90" y="36"/>
      <point x="30" y="31" type="curve"/>
      <point x="24" y="25"/>
      <point x="24" y="4"/>
    </contour>
    <contour>
      <point x="100" y="110" type="line"/>
      <point x="180" y="110" type="line"/>
      <point x="180" y="576" type="line" name=".sk1"/>
      <point x="180" y="627"/>
      <point x="181" y="658"/>
      <point x="184" y="691" type="curve"/>
      <point x="184" y="695"/>
      <point x="179" y="698"/>
      <point x="171" y="698" type="curve"/>
      <point x="139" y="685"/>
      <point x="78" y="673"/>
      <point x="33" y="669" type="curve"/>
      <point x="31" y="663"/>
      <point x="32" y="649"/>
      <point x="35" y="641" type="curve"/>
      <point x="92" y="636"/>
      <point x="100" y="628"/>
      <point x="100" y="576" type="curve"/>
    </contour>
    <contour>
      <point x="153" y="210" type="line"/>
      <point x="200" y="210"/>
      <point x="228" y="200"/>
      <point x="250" y="171" type="curve" smooth="yes"/>
      <point x="323" y="73" type="line" smooth="yes"/>
      <point x="352" y="34"/>
      <point x="364" y="15"/>
      <point x="365" y="3" type="curve"/>
      <point x="365" y="0"/>
      <point x="366" y="-2"/>
      <point x="369" y="-2" type="curve"/>
      <point x="389" y="-1"/>
      <point x="411" y="0"/>
      <point x="431" y="0" type="curve" smooth="yes"/>
      <point x="462" y="0"/>
      <point x="493" y="-1"/>
      <point x="513" y="-2" type="curve"/>
      <point x="519" y="4"/>
      <point x="519" y="25"/>
      <point x="513" y="31" type="curve"/>
      <point x="470" y="36"/>
      <point x="448" y="47"/>
      <point x="427" y="73" type="curve" smooth="yes"/>
      <point x="295" y="239" type="line" smooth="yes"/>
      <point x="291" y="244"/>
      <point x="288" y="248"/>
      <point x="288" y="253" type="curve" smooth="yes"/>
      <point x="288" y="257"/>
      <point x="288" y="259"/>
      <point x="292" y="263" type="curve" smooth="yes"/>
      <point x="380" y="354" type="line" smooth="yes"/>
      <point x="410" y="386"/>
      <point x="445" y="394"/>
      <point x="485" y="398" type="curve"/>
      <point x="491" y="404"/>
      <point x="491" y="425"/>
      <point x="485" y="431" type="curve"/>
      <point x="462" y="430"/>
      <point x="434" y="429"/>
      <point x="398" y="429" type="curve" smooth="yes"/>
      <point x="360" y="429"/>
      <point x="323" y="430"/>
      <point x="300" y="431" type="curve"/>
      <point x="294" y="425"/>
      <point x="294" y="404"/>
      <point x="300" y="398" type="curve"/>
      <point x="328" y="396"/>
      <point x="336" y="387"/>
      <point x="336" y="377" type="curve" smooth="yes"/>
      <point x="336" y="348"/>
      <point x="263" y="277"/>
      <point x="236" y="258" type="curve" smooth="yes"/>
      <point x="210" y="240"/>
      <point x="171" y="232"/>
      <point x="153" y="232" type="curve"/>
    </contour>
  </outline>
</glyph>
<glyph name="l" format="2">
  <advance width="256"/>
  <unicode hex="006C"/>
  <anchor x="116" y="740" name="top"/>
  <anchor x="134" y="-60" name="b.minus-60"/>
  <anchor x="256" y="658" name="apostrophe"/>
  <outline>
    <contour>
      <point x="22" y="-2" type="curve"/>
      <point x="55" y="-1"/>
      <point x="99" y="0"/>
      <point x="139" y="0" type="curve"/>
      <point x="139" y="122" type="line"/>
      <point x="94" y="122" type="line"/>
      <point x="94" y="40"/>
      <point x="83" y="35"/>
      <point x="22" y="31" type="curve"/>
      <point x="16" y="25"/>
      <point x="16" y="4"/>
    </contour>
    <contour>
      <point x="94" y="110" type="line"/>
      <point x="174" y="110" type="line"/>
      <point x="174" y="576" type="line" name=".sk1"/>
      <point x="174" y="627"/>
      <point x="175" y="658"/>
      <point x="178" y="691" type="curve"/>
      <point x="178" y="695"/>
      <point x="173" y="698"/>
      <point x="165" y="698" type="curve"/>
      <point x="133" y="685"/>
      <point x="72" y="673"/>
      <point x="27" y="669" type="curve"/>
      <point x="25" y="663"/>
      <point x="26" y="649"/>
      <point x="29" y="641" type="curve"/>
      <point x="86" y="636"/>
      <point x="94" y="628"/>
      <point x="94" y="576" type="curve"/>
    </contour>
    <contour>
      <point x="94" y="576" type="curve"/>
      <point x="174" y="576" type="line"/>
      <point x="174" y="627"/>
      <point x="175" y="658"/>
      <point x="178" y="691" type="curve"/>
      <point x="178" y="695"/>
      <point x="173" y="698"/>
      <point x="165" y="698" type="curve"/>
      <point x="133" y="685"/>
      <point x="72" y="673"/>
      <point x="27" y="669" type="curve"/>
      <point x="25" y="663"/>
      <point x="26" y="649"/>
      <point x="29" y="641" type="curve"/>
      <point x="86" y="636"/>
      <point x="94" y="628"/>
    </contour>
    <contour>
      <point x="129" y="0" type="line"/>
      <point x="169" y="0"/>
      <point x="213" y="-1"/>
      <point x="246" y="-2" type="curve"/>
      <point x="252" y="4"/>
      <point x="252" y="25"/>
      <point x="246" y="31" type="curve"/>
      <point x="185" y="35"/>
      <point x="174" y="40"/>
      <point x="174" y="122" type="curve"/>
      <point x="129" y="122" type="line"/>
    </contour>
  </outline>
  <guideline angle="90" x="94" y="0"/>
  <guideline angle="90" x="17" y="0"/>
</glyph>
<glyph name="m" format="2">
  <advance width="794"/>
  <unicode hex="006D"/>
  <anchor x="408" y="500" name="top"/>
  <anchor x="411" y="-60" name="b.minus-60"/>
  <outline>
    <contour>
      <point x="30" y="-2" type="curve"/>
      <point x="60" y="-1"/>
      <point x="100" y="0"/>
      <point x="140" y="0" type="curve" smooth="yes"/>
      <point x="180" y="0"/>
      <point x="211" y="-1"/>
      <point x="241" y="-2" type="curve"/>
      <point x="247" y="4"/>
      <point x="247" y="25"/>
      <point x="241" y="31" type="curve"/>
      <point x="190" y="36"/>
      <point x="180" y="40"/>
      <point x="180" y="122" type="curve"/>
      <point x="100" y="122" type="line"/>
      <point x="100" y="40"/>
      <point x="90" y="36"/>
      <point x="30" y="31" type="curve"/>
      <point x="24" y="25"/>
      <point x="24" y="4"/>
    </contour>
    <contour>
      <point x="309" y="-2" type="curve"/>
      <point x="342" y="-1"/>
      <point x="370" y="0"/>
      <point x="410" y="0" type="curve" smooth="yes"/>
      <point x="450" y="0"/>
      <point x="478" y="-1"/>
      <point x="511" y="-2" type="curve"/>
      <point x="517" y="4"/>
      <point x="517" y="25"/>
      <point x="511" y="31" type="curve"/>
      <point x="460" y="35"/>
      <point x="450" y="40"/>
      <point x="450" y="122" type="curve"/>
      <point x="370" y="122" type="line"/>
      <point x="370" y="40"/>
      <point x="360" y="35"/>
      <point x="309" y="31" type="curve"/>
      <point x="303" y="25"/>
      <point x="303" y="4"/>
    </contour>
    <contour>
      <point x="578" y="-2" type="curve"/>
      <point x="608" y="-1"/>
      <point x="640" y="0"/>
      <point x="680" y="0" type="curve" smooth="yes"/>
      <point x="720" y="0"/>
      <point x="757" y="-1"/>
      <point x="787" y="-2" type="curve"/>
      <point x="792" y="4"/>
      <point x="792" y="25"/>
      <point x="787" y="31" type="curve"/>
      <point x="731" y="36"/>
      <point x="720" y="40"/>
      <point x="720" y="122" type="curve"/>
      <point x="640" y="122" type="line"/>
      <point x="640" y="40"/>
      <point x="630" y="36"/>
      <point x="578" y="31" type="curve"/>
      <point x="573" y="25"/>
      <point x="573" y="4"/>
    </contour>
    <contour>
      <point x="100" y="316" type="curve"/>
      <point x="180" y="336" type="line"/>
      <point x="180" y="370"/>
      <point x="174" y="422"/>
      <point x="168" y="434" type="curve" smooth="yes"/>
      <point x="166" y="439"/>
      <point x="162" y="442"/>
      <point x="156" y="442" type="curve"/>
      <point x="119" y="427"/>
      <point x="88" y="420"/>
      <point x="33" y="413" type="curve"/>
      <point x="31" y="408"/>
      <point x="32" y="393"/>
      <point x="35" y="385" type="curve"/>
      <point x="92" y="380"/>
      <point x="100" y="371"/>
    </contour>
    <contour>
      <point x="640" y="122" type="line"/>
      <point x="720" y="122" type="line"/>
      <point x="720" y="281" type="line" smooth="yes"/>
      <point x="720" y="370"/>
      <point x="704" y="440"/>
      <point x="616" y="440" type="curve" smooth="yes"/>
      <point x="561" y="440"/>
      <point x="483" y="408"/>
      <point x="431" y="344" type="curve"/>
      <point x="434" y="305" type="line"/>
      <point x="487" y="372"/>
      <point x="537" y="388"/>
      <point x="580" y="388" type="curve" smooth="yes"/>
      <point x="618" y="388"/>
      <point x="640" y="366"/>
      <point x="640" y="299" type="curve" smooth="yes"/>
    </contour>
    <contour>
      <point x="370" y="122" type="line"/>
      <point x="450" y="122" type="line"/>
      <point x="450" y="282" type="line" smooth="yes"/>
      <point x="450" y="358"/>
      <point x="435" y="440"/>
      <point x="340" y="440" type="curve" smooth="yes"/>
      <point x="277" y="440"/>
      <point x="208" y="388"/>
      <point x="167" y="337" type="curve"/>
      <point x="172" y="304" type="line"/>
      <point x="205" y="343"/>
      <point x="252" y="388"/>
      <point x="304" y="388" type="curve" smooth="yes"/>
      <point x="342" y="388"/>
      <point x="370" y="364"/>
      <point x="370" y="297" type="curve" smooth="yes"/>
    </contour>
    <contour>
      <point x="100" y="122" type="line"/>
      <point x="180" y="122" type="line"/>
      <point x="180" y="336" type="line"/>
      <point x="100" y="316" type="line"/>
    </contour>
  </outline>
</glyph>
<glyph name="n" format="2">
  <advance width="542"/>
  <unicode hex="006E"/>
  <anchor x="243" y="500" name="t.uni0302"/>
  <anchor x="252" y="-60" name="b.minus-60"/>
  <anchor x="-19" y="658" name="apostrophe"/>
  <outline>
    <contour>
      <point x="314.3" y="-2" type="curve"/>
      <point x="344.3" y="-1"/>
      <point x="376.3" y="0"/>
      <point x="416.3" y="0" type="curve" smooth="yes"/>
      <point x="456.3" y="0"/>
      <point x="493.3" y="-1"/>
      <point x="523.3" y="-2" type="curve"/>
      <point x="528.3" y="4"/>
      <point x="528.3" y="25"/>
      <point x="523.3" y="31" type="curve"/>
      <point x="467.3" y="36"/>
      <point x="456.3" y="40"/>
      <point x="456.3" y="122" type="curve"/>
      <point x="376.3" y="122" type="line"/>
      <point x="376.3" y="40"/>
      <point x="366.3" y="36"/>
      <point x="314.3" y="31" type="curve"/>
      <point x="309.3" y="25"/>
      <point x="309.3" y="4"/>
    </contour>
    <contour>
      <point x="23.3001" y="-2" type="curve"/>
      <point x="53.3001" y="-1"/>
      <point x="93.3001" y="0"/>
      <point x="133.3" y="0" type="curve" smooth="yes"/>
      <point x="173.3" y="0"/>
      <point x="204.3" y="-1"/>
      <point x="234.3" y="-2" type="curve"/>
      <point x="240.3" y="4"/>
      <point x="240.3" y="25"/>
      <point x="234.3" y="31" type="curve"/>
      <point x="183.3" y="36"/>
      <point x="173.3" y="40"/>
      <point x="173.3" y="122" type="curve"/>
      <point x="93.3001" y="122" type="line"/>
      <point x="93.3001" y="40"/>
      <point x="83.3001" y="36"/>
      <point x="23.3001" y="31" type="curve"/>
      <point x="17.3001" y="25"/>
      <point x="17.3001" y="4"/>
    </contour>
    <contour>
      <point x="376.3" y="122" type="line"/>
      <point x="456.3" y="122" type="line"/>
      <point x="456.3" y="271" type="line" smooth="yes"/>
      <point x="456.3" y="390.446"/>
      <point x="424.22" y="439"/>
      <point x="345.3" y="439" type="curve" smooth="yes"/>
      <point x="289.562" y="439"/>
      <point x="224.072" y="392.636"/>
      <point x="161.3" y="336" type="curve"/>
      <point x="173.3" y="311" type="line"/>
      <point x="230.131" y="362.919"/>
      <point x="268.208" y="387"/>
      <point x="304.831" y="387" type="curve" smooth="yes"/>
      <point x="352.667" y="387"/>
      <point x="376.3" y="345.915"/>
      <point x="376.3" y="274" type="curve" smooth="yes"/>
    </contour>
    <contour>
      <point x="93.3001" y="122" type="line"/>
      <point x="173.3" y="122" type="line"/>
      <point x="173.3" y="336" type="line"/>
      <point x="93.3001" y="316" type="line"/>
    </contour>
    <contour>
      <point x="93.3001" y="316" type="curve"/>
      <point x="173.3" y="336" type="line"/>
      <point x="173.3" y="369.727"/>
      <point x="167.3" y="422"/>
      <point x="161.3" y="434" type="curve" smooth="yes"/>
      <point x="158.81" y="438.981"/>
      <point x="155.127" y="442"/>
      <point x="149.3" y="442" type="curve"/>
      <point x="112.165" y="427.411"/>
      <point x="81.6776" y="420.223"/>
      <point x="26.3001" y="413" type="curve"/>
      <point x="24.653" y="408.059"/>
      <point x="25.7546" y="392.636"/>
      <point x="28.3001" y="385" type="curve"/>
      <point x="85.7124" y="379.684"/>
      <point x="93.3001" y="370.746"/>
    </contour>
  </outline>
  <guideline angle="90" x="133.3" y="0"/>
  <guideline angle="90" x="416.3" y="0"/>
</glyph>
<glyph name="o" format="2">
  <advance width="502"/>
  <unicode hex="006F"/>
  <anchor x="237" y="500" name="t.uni0302"/>
  <anchor x="338" y="10" name="b.ogonek"/>
  <anchor x="250" y="-60" name="b.minus-60"/>
  <outline>
    <contour>
      <point x="250" y="-10" type="curve" smooth="yes"/>
      <point x="380" y="-10"/>
      <point x="462" y="87"/>
      <point x="462" y="212.972" type="curve" smooth="yes"/>
      <point x="462" y="318"/>
      <point x="405" y="439"/>
      <point x="257.09" y="439" type="curve" smooth="yes"/>
      <point x="118" y="439"/>
      <point x="40" y="332"/>
      <point x="40" y="213.574" type="curve" smooth="yes"/>
      <point x="40" y="103"/>
      <point x="108" y="-10"/>
    </contour>
    <contour>
      <point x="260.935" y="25" type="curve" smooth="yes"/>
      <point x="160" y="25"/>
      <point x="126" y="151"/>
      <point x="126" y="231.099" type="curve" smooth="yes"/>
      <point x="126" y="315"/>
      <point x="163.305" y="404"/>
      <point x="245.785" y="404" type="curve" smooth="yes"/>
      <point x="323" y="404"/>
      <point x="376" y="326"/>
      <point x="376" y="182" type="curve" smooth="yes"/>
      <point x="376" y="56"/>
      <point x="311" y="25"/>
    </contour>
  </outline>
</glyph>
<glyph name="p" format="2">
  <advance width="519"/>
  <unicode hex="0070"/>
  <anchor x="216" y="500" name="t.uni0302"/>
  <anchor x="331" y="-60" name="b.minus-60"/>
  <outline>
    <contour>
      <point x="80" y="-110" type="line"/>
      <point x="160" y="-110" type="line"/>
      <point x="160" y="311" type="line" smooth="yes"/>
      <point x="160" y="365"/>
      <point x="152.932" y="410.985"/>
      <point x="148" y="434" type="curve" smooth="yes"/>
      <point x="146.932" y="438.986"/>
      <point x="144" y="442"/>
      <point x="136" y="442" type="curve"/>
      <point x="108" y="431"/>
      <point x="82" y="422"/>
      <point x="13" y="413" type="curve"/>
      <point x="11" y="407"/>
      <point x="13" y="391"/>
      <point x="15" y="385" type="curve"/>
      <point x="69" y="380"/>
      <point x="80" y="375"/>
      <point x="80" y="317" type="curve" smooth="yes"/>
    </contour>
    <contour>
      <point x="144" y="16" type="line"/>
      <point x="168" y="3"/>
      <point x="227" y="-10"/>
      <point x="260" y="-10" type="curve" smooth="yes"/>
      <point x="400" y="-10"/>
      <point x="481" y="102"/>
      <point x="481" y="235" type="curve" smooth="yes"/>
      <point x="481" y="341"/>
      <point x="406" y="439"/>
      <point x="304" y="439" type="curve" smooth="yes"/>
      <point x="258" y="439"/>
      <point x="201" y="402"/>
      <point x="161" y="357" type="curve"/>
      <point x="152" y="357" type="line"/>
      <point x="152" y="302" type="line"/>
      <point x="176" y="332"/>
      <point x="226" y="393"/>
      <point x="276" y="393" type="curve" smooth="yes"/>
      <point x="340" y="393"/>
      <point x="395" y="321"/>
      <point x="395" y="208" type="curve" smooth="yes"/>
      <point x="395" y="126"/>
      <point x="366" y="24"/>
      <point x="254" y="24" type="curve" smooth="yes"/>
      <point x="217" y="24"/>
      <point x="185" y="40"/>
      <point x="144" y="74" type="curve"/>
    </contour>
    <contour>
      <point x="8" y="-234" type="curve"/>
      <point x="41" y="-233"/>
      <point x="80" y="-232"/>
      <point x="120" y="-232" type="curve" smooth="yes"/>
      <point x="160" y="-232"/>
      <point x="199" y="-233"/>
      <point x="232" y="-234" type="curve"/>
      <point x="238" y="-228"/>
      <point x="238" y="-207"/>
      <point x="232" y="-201" type="curve"/>
      <point x="171" y="-197"/>
      <point x="160" y="-192"/>
      <point x="160" y="-110" type="curve"/>
      <point x="80" y="-110" type="line"/>
      <point x="80" y="-192"/>
      <point x="69" y="-197"/>
      <point x="8" y="-201" type="curve"/>
      <point x="2" y="-207"/>
      <point x="2" y="-228"/>
    </contour>
  </outline>
</glyph>
<glyph name="r" format="2">
  <advance width="376"/>
  <unicode hex="0072"/>
  <anchor x="196" y="500" name="top"/>
  <anchor x="147" y="-60" name="b.minus-60"/>
  <outline>
    <contour>
      <point x="182" y="110" type="line"/>
      <point x="182" y="261" type="line" smooth="yes"/>
      <point x="182" y="309"/>
      <point x="226" y="377"/>
      <point x="252" y="377" type="curve" smooth="yes"/>
      <point x="283" y="377"/>
      <point x="281" y="341"/>
      <point x="314" y="341" type="curve" smooth="yes"/>
      <point x="342" y="341"/>
      <point x="361" y="361"/>
      <point x="361" y="388" type="curve" smooth="yes"/>
      <point x="361" y="419"/>
      <point x="336" y="439"/>
      <point x="305" y="439" type="curve" smooth="yes"/>
      <point x="254" y="439"/>
      <point x="206" y="383"/>
      <point x="183" y="344" type="curve"/>
      <point x="179" y="344" type="line"/>
      <point x="177" y="384"/>
      <point x="172" y="427"/>
      <point x="170" y="434" type="curve"/>
      <point x="168" y="439"/>
      <point x="166" y="442"/>
      <point x="158" y="442" type="curve"/>
      <point x="130" y="431"/>
      <point x="104" y="422"/>
      <point x="35" y="413" type="curve"/>
      <point x="33" y="407"/>
      <point x="35" y="391"/>
      <point x="37" y="385" type="curve"/>
      <point x="91" y="380"/>
      <point x="102" y="375"/>
      <point x="102" y="317" type="curve" smooth="yes"/>
      <point x="102" y="110" type="line"/>
    </contour>
    <contour>
      <point x="30" y="-2" type="curve"/>
      <point x="63" y="-1"/>
      <point x="107" y="0"/>
      <point x="147" y="0" type="curve"/>
      <point x="147" y="122" type="line"/>
      <point x="102" y="122" type="line"/>
      <point x="102" y="40"/>
      <point x="91" y="35"/>
      <point x="30" y="31" type="curve"/>
      <point x="24" y="25"/>
      <point x="24" y="4"/>
    </contour>
    <contour>
      <point x="137" y="0" type="line"/>
      <point x="177" y="0"/>
      <point x="221" y="-1"/>
      <point x="254" y="-2" type="curve"/>
      <point x="260" y="4"/>
      <point x="260" y="25"/>
      <point x="254" y="31" type="curve"/>
      <point x="193" y="35"/>
      <point x="182" y="40"/>
      <point x="182" y="122" type="curve"/>
      <point x="137" y="122" type="line"/>
    </contour>
  </outline>
</glyph>
<glyph name="s" format="2">
  <advance width="390"/>
  <unicode hex="0073"/>
  <anchor x="194" y="500" name="top"/>
  <anchor x="210" y="-60" name="b.minus-60"/>
  <anchor x="208" y="0" name="b.cedilla"/>
  <outline>
    <contour>
      <point x="58" y="138" type="curve"/>
      <point x="68" y="89"/>
      <point x="72" y="43"/>
      <point x="72" y="0" type="curve"/>
      <point x="117" y="0"/>
      <point x="156" y="-10"/>
      <point x="201" y="-10" type="curve" smooth="yes"/>
      <point x="290" y="-10"/>
      <point x="350" y="41"/>
      <point x="350" y="117" type="curve" smooth="yes"/>
      <point x="350" y="184"/>
      <point x="301" y="224"/>
      <point x="233" y="249" type="curve" smooth="yes"/>
      <point x="173" y="272"/>
      <point x="133" y="287"/>
      <point x="133" y="335" type="curve" smooth="yes"/>
      <point x="133" y="381"/>
      <point x="169" y="404"/>
      <point x="204" y="404" type="curve" smooth="yes"/>
      <point x="225" y="404"/>
      <point x="283" y="396"/>
      <point x="296" y="311" type="curve"/>
      <point x="302" y="307"/>
      <point x="322" y="308"/>
      <point x="328" y="312" type="curve"/>
      <point x="322" y="351"/>
      <point x="320" y="385"/>
      <point x="321" y="419" type="curve"/>
      <point x="290" y="424"/>
      <point x="255" y="439"/>
      <point x="211" y="439" type="curve" smooth="yes"/>
      <point x="123" y="439"/>
      <point x="62" y="392"/>
      <point x="62" y="325" type="curve" smooth="yes"/>
      <point x="62" y="254"/>
      <point x="95" y="223"/>
      <point x="181" y="188" type="curve" smooth="yes"/>
      <point x="255" y="157"/>
      <point x="274" y="136"/>
      <point x="274" y="102" type="curve" smooth="yes"/>
      <point x="274" y="54"/>
      <point x="244" y="25"/>
      <point x="193" y="25" type="curve" smooth="yes"/>
      <point x="119" y="25"/>
      <point x="105" y="78"/>
      <point x="89" y="139" type="curve"/>
      <point x="83" y="145"/>
      <point x="64" y="144"/>
    </contour>
  </outline>
</glyph>
<glyph name="t" format="2">
  <advance width="316"/>
  <unicode hex="0074"/>
  <anchor x="137" y="630" name="t.uni0302"/>
  <anchor x="168" y="-60" name="b.minus-60"/>
  <anchor x="175" y="0" name="b.cedilla"/>
  <outline>
    <contour>
      <point x="65" y="429" type="line" smooth="yes"/>
      <point x="51" y="429"/>
      <point x="35" y="422"/>
      <point x="25" y="414" type="curve"/>
      <point x="25" y="396" type="line" smooth="yes"/>
      <point x="25" y="391"/>
      <point x="26" y="390"/>
      <point x="30" y="390" type="curve" smooth="yes"/>
      <point x="89" y="390" type="line"/>
      <point x="89" y="89" type="line" smooth="yes"/>
      <point x="89" y="18"/>
      <point x="121" y="-10"/>
      <point x="167" y="-10" type="curve" smooth="yes"/>
      <point x="213" y="-10"/>
      <point x="263" y="12"/>
      <point x="302" y="56" type="curve"/>
      <point x="300" y="66"/>
      <point x="294" y="72"/>
      <point x="284" y="73" type="curve"/>
      <point x="258" y="53"/>
      <point x="228" y="45"/>
      <point x="202" y="45" type="curve" smooth="yes"/>
      <point x="175" y="45"/>
      <point x="169" y="75"/>
      <point x="169" y="137" type="curve" smooth="yes"/>
      <point x="169" y="390" type="line"/>
      <point x="273" y="390" type="line" smooth="yes"/>
      <point x="283" y="390"/>
      <point x="297" y="394"/>
      <point x="297" y="403" type="curve" smooth="yes"/>
      <point x="297" y="423" type="line" smooth="yes"/>
      <point x="297" y="427"/>
      <point x="294" y="429"/>
      <point x="289" y="429" type="curve" smooth="yes"/>
      <point x="169" y="429" type="line"/>
      <point x="170" y="468" type="line" smooth="yes"/>
      <point x="171.667" y="533.009"/>
      <point x="177" y="569"/>
      <point x="177" y="573" type="curve"/>
      <point x="177" y="579"/>
      <point x="174" y="582"/>
      <point x="169" y="582" type="curve" smooth="yes"/>
      <point x="164" y="582"/>
      <point x="97" y="552"/>
      <point x="95" y="545" type="curve"/>
      <point x="92" y="532"/>
      <point x="89" y="487"/>
      <point x="89" y="429" type="curve"/>
    </contour>
  </outline>
</glyph>
<glyph name="braceleft" format="2">
	<unicode hex="007B"/>
	<advance width="277"/>
	<outline>
		<contour>
			<point x="178" y="552" type="line" smooth="yes"/>
			<point x="173.036" y="655.002"/>
			<point x="220" y="672"/>
			<point x="258" y="683" type="curve"/>
			<point x="264" y="689"/>
			<point x="264" y="701"/>
			<point x="258" y="707" type="curve"/>
			<point x="168" y="707"/>
			<point x="102.315" y="667.011"/>
			<point x="106" y="554" type="curve" smooth="yes"/>
			<point x="112" y="370" type="line"/>
			<point x="112" y="320"/>
			<point x="88" y="266"/>
			<point x="14" y="259" type="curve"/>
			<point x="5" y="250"/>
			<point x="6" y="243"/>
			<point x="14" y="235" type="curve"/>
			<point x="88" y="226"/>
			<point x="114" y="182"/>
			<point x="112" y="121" type="curve" smooth="yes"/>
			<point x="106" y="-49" type="line" smooth="yes"/>
			<point x="101" y="-179"/>
			<point x="157" y="-212"/>
			<point x="258" y="-212" type="curve"/>
			<point x="264" y="-206"/>
			<point x="264" y="-194"/>
			<point x="258" y="-188" type="curve"/>
			<point x="214" y="-188"/>
			<point x="174" y="-138"/>
			<point x="178" y="-54" type="curve" smooth="yes"/>
			<point x="186" y="95" type="line" smooth="yes"/>
			<point x="190" y="177"/>
			<point x="149" y="217"/>
			<point x="81" y="245" type="curve"/>
			<point x="81" y="249" type="line"/>
			<point x="148" y="268"/>
			<point x="190.289" y="297.013"/>
			<point x="186" y="386" type="curve" smooth="yes"/>
		</contour>
	</outline>
</glyph>
<glyph name="bar" format="2">
  <advance width="204"/>
  <unicode hex="007C"/>
  <outline>
    <contour>
      <point x="124" y="-240" type="curve"/>
      <point x="124" y="720" type="line"/>
      <point x="115" y="726"/>
      <point x="89" y="726"/>
      <point x="80" y="720" type="curve"/>
      <point x="80" y="-240" type="line"/>
      <point x="89" y="-246"/>
      <point x="115" y="-246"/>
    </contour>
  </outline>
</glyph>
<glyph name="braceright" format="2">
	<unicode hex="007D"/>
	<advance width="277"/>
	<outline>
		<contour>
			<point x="95" y="-58" type="line" smooth="yes"/>
			<point x="99.9639" y="-161.002"/>
			<point x="53" y="-178"/>
			<point x="15" y="-189" type="curve"/>
			<point x="9" y="-195"/>
			<point x="9" y="-207"/>
			<point x="15" y="-213" type="curve"/>
			<point x="105" y="-213"/>
			<point x="170.685" y="-173.011"/>
			<point x="167" y="-60" type="curve" smooth="yes"/>
			<point x="161" y="124" type="line"/>
			<point x="161" y="174"/>
			<point x="185" y="228"/>
			<point x="259" y="235" type="curve"/>
			<point x="268" y="244"/>
			<point x="267" y="251"/>
			<point x="259" y="259" type="curve"/>
			<point x="186" y="268"/>
			<point x="158.847" y="312.005"/>
			<point x="161" y="373" type="curve" smooth="yes"/>
			<point x="167" y="543" type="line" smooth="yes"/>
			<point x="171.589" y="673.015"/>
			<point x="116" y="706"/>
			<point x="15" y="706" type="curve"/>
			<point x="9" y="700"/>
			<point x="9" y="688"/>
			<point x="15" y="682" type="curve"/>
			<point x="59" y="682"/>
			<point x="99.5116" y="632.028"/>
			<point x="95" y="548" type="curve" smooth="yes"/>
			<point x="87" y="399" type="line" smooth="yes"/>
			<point x="82.5984" y="317.021"/>
			<point x="124" y="277"/>
			<point x="192" y="249" type="curve"/>
			<point x="192" y="245" type="line"/>
			<point x="125" y="226"/>
			<point x="82.7115" y="196.987"/>
			<point x="87" y="108" type="curve" smooth="yes"/>
		</contour>
	</outline>
</glyph>
<glyph name="asciitilde" format="2">
	<unicode hex="007E"/>
	<advance width="451"/>
	<outline>
		<contour>
			<point x="152" y="278" type="curve" smooth="yes"/>
			<point x="208.603" y="278"/>
			<point x="246.085" y="213"/>
			<point x="301" y="213" type="curve" smooth="yes"/>
			<point x="325" y="213"/>
			<point x="390" y="226"/>
			<point x="421" y="333" type="curve"/>
			<point x="418.151" y="338.699"/>
			<point x="409.341" y="339"/>
			<point x="404" y="339" type="curve"/>
			<point x="382" y="289"/>
			<point x="333" y="272"/>
			<point x="305" y="272" type="curve" smooth="yes"/>
			<point x="252.121" y="272"/>
			<point x="214.922" y="337"/>
			<point x="158" y="337" type="curve" smooth="yes"/>
			<point x="93.0248" y="337"/>
			<point x="41.7922" y="267.961"/>
			<point x="30" y="209" type="curve"/>
			<point x="36" y="206"/>
			<point x="41" y="205"/>
			<point x="47" y="205" type="curve"/>
			<point x="70" y="249"/>
			<point x="117" y="278"/>
		</contour>
	</outline>
</glyph>
<glyph name="currency" format="2">
  <advance width="465"/>
  <unicode hex="00A4"/>
  <outline>
    <contour>
      <point x="44" y="304" type="curve" smooth="yes"/>
      <point x="44" y="261"/>
      <point x="59" y="222"/>
      <point x="86" y="189" type="curve"/>
      <point x="29" y="144" type="line"/>
      <point x="72" y="101" type="line"/>
      <point x="117" y="157" type="line"/>
      <point x="151" y="132"/>
      <point x="189" y="119"/>
      <point x="231" y="119" type="curve" smooth="yes"/>
      <point x="274" y="119"/>
      <point x="313" y="132"/>
      <point x="348" y="158" type="curve"/>
      <point x="396" y="105" type="line"/>
      <point x="434" y="145" type="line"/>
      <point x="379" y="191" type="line"/>
      <point x="404" y="224"/>
      <point x="418" y="262"/>
      <point x="418" y="304" type="curve" smooth="yes"/>
      <point x="418" y="348"/>
      <point x="404" y="386"/>
      <point x="378" y="418" type="curve"/>
      <point x="436" y="465" type="line"/>
      <point x="395" y="508" type="line"/>
      <point x="346" y="450" type="line"/>
      <point x="312" y="476"/>
      <point x="274" y="490"/>
      <point x="231" y="490" type="curve" smooth="yes"/>
      <point x="190" y="490"/>
      <point x="153" y="477"/>
      <point x="118" y="452" type="curve"/>
      <point x="70" y="506" type="line"/>
      <point x="31" y="464" type="line"/>
      <point x="86" y="420" type="line"/>
      <point x="59" y="388"/>
      <point x="44" y="349"/>
    </contour>
    <contour>
      <point x="108" y="305" type="curve" smooth="yes"/>
      <point x="108" y="380"/>
      <point x="159" y="445"/>
      <point x="233" y="445" type="curve" smooth="yes"/>
      <point x="298" y="445"/>
      <point x="354" y="383"/>
      <point x="354" y="304" type="curve" smooth="yes"/>
      <point x="354" y="229"/>
      <point x="305" y="164"/>
      <point x="231" y="164" type="curve" smooth="yes"/>
      <point x="156" y="164"/>
      <point x="108" y="228"/>
    </contour>
  </outline>
</glyph>
<glyph name="yen" format="2">
  <advance width="465"/>
  <unicode hex="00A5"/>
  <anchor x="232" y="677" name="top"/>
  <outline>
    <contour>
      <point x="276" y="262.182" type="line"/>
      <point x="388" y="509" type="line" smooth="yes"/>
      <point x="411.545" y="561.208"/>
      <point x="417" y="565"/>
      <point x="464" y="569" type="curve"/>
      <point x="470" y="575"/>
      <point x="472" y="596"/>
      <point x="466" y="602" type="curve"/>
      <point x="434" y="601"/>
      <point x="416" y="600"/>
      <point x="399" y="600" type="curve" smooth="yes"/>
      <point x="387" y="600" type="line" smooth="yes"/>
      <point x="370" y="600"/>
      <point x="346" y="601"/>
      <point x="320" y="602" type="curve"/>
      <point x="314" y="596"/>
      <point x="314" y="575"/>
      <point x="320" y="569" type="curve"/>
      <point x="346.719" y="567.276"/>
      <point x="357.838" y="564.809"/>
      <point x="357.838" y="551.995" type="curve" smooth="yes"/>
      <point x="357.838" y="544.137"/>
      <point x="353.955" y="530.917"/>
      <point x="336" y="490" type="curve" smooth="yes"/>
      <point x="254.932" y="305.253" type="line"/>
      <point x="259.33" y="305.253" type="line"/>
      <point x="148" y="531" type="line" smooth="yes"/>
      <point x="142.688" y="541.772"/>
      <point x="140.173" y="549.558"/>
      <point x="140.173" y="555.117" type="curve" smooth="yes"/>
      <point x="140.173" y="567.566"/>
      <point x="153.112" y="569"/>
      <point x="178" y="569" type="curve"/>
      <point x="184" y="575" name=".hr01"/>
      <point x="184" y="596"/>
      <point x="178" y="602" type="curve"/>
      <point x="162" y="602"/>
      <point x="115.842" y="600"/>
      <point x="98.8424" y="600" type="curve" smooth="yes"/>
      <point x="72.1877" y="600" type="line" smooth="yes"/>
      <point x="58.1877" y="600"/>
      <point x="31" y="601"/>
      <point x="-1" y="602" type="curve"/>
      <point x="-7" y="596"/>
      <point x="-7" y="575"/>
      <point x="-1" y="569" type="curve"/>
      <point x="40" y="565"/>
      <point x="60.5361" y="540.777"/>
      <point x="79" y="503" type="curve" smooth="yes"/>
      <point x="193.339" y="269.794" type="line"/>
      <point x="190" y="270.123" type="line"/>
      <point x="190" y="127" type="line" smooth="yes"/>
      <point x="190" y="39"/>
      <point x="173" y="34"/>
      <point x="88" y="31" type="curve"/>
      <point x="82" y="25"/>
      <point x="82" y="4"/>
      <point x="88" y="-2" type="curve"/>
      <point x="140" y="-1"/>
      <point x="173" y="0"/>
      <point x="230.518" y="0" type="curve" smooth="yes"/>
      <point x="248.729" y="0" type="line" smooth="yes"/>
      <point x="295" y="0"/>
      <point x="331" y="-1"/>
      <point x="378" y="-2" type="curve"/>
      <point x="384" y="4"/>
      <point x="384" y="25"/>
      <point x="378" y="31" type="curve"/>
      <point x="293" y="34"/>
      <point x="276" y="39"/>
      <point x="276" y="127" type="curve" smooth="yes"/>
    </contour>
    <contour>
      <point x="223.388" y="284" type="line"/>
      <point x="67" y="284" type="line" smooth="yes"/>
      <point x="49" y="284"/>
      <point x="43" y="271"/>
      <point x="43" y="263" type="curve" smooth="yes"/>
      <point x="43" y="251" type="line" smooth="yes"/>
      <point x="43" y="245.659"/>
      <point x="43.6593" y="245"/>
      <point x="49" y="245" type="curve" smooth="yes"/>
      <point x="223.388" y="245" type="line"/>
    </contour>
    <contour>
      <point x="253.235" y="245" type="line"/>
      <point x="398" y="245" type="line" smooth="yes"/>
      <point x="409" y="245"/>
      <point x="423" y="249"/>
      <point x="423" y="259" type="curve" smooth="yes"/>
      <point x="423" y="278" type="line" smooth="yes"/>
      <point x="423" y="283.446"/>
      <point x="419.457" y="284"/>
      <point x="415" y="284" type="curve" smooth="yes"/>
      <point x="253.235" y="284" type="line"/>
    </contour>
    <contour>
      <point x="223.388" y="173" type="line"/>
      <point x="67" y="173" type="line" smooth="yes"/>
      <point x="49" y="173"/>
      <point x="43" y="162"/>
      <point x="43" y="154" type="curve" smooth="yes"/>
      <point x="43" y="141" type="line" smooth="yes"/>
      <point x="43" y="136.777"/>
      <point x="44.0444" y="134"/>
      <point x="49" y="134" type="curve" smooth="yes"/>
      <point x="223.388" y="134" type="line"/>
    </contour>
    <contour>
      <point x="423" y="167" type="line" smooth="yes"/>
      <point x="423" y="171"/>
      <point x="419" y="173"/>
      <point x="415" y="173" type="curve" smooth="yes"/>
      <point x="253.235" y="173" type="line"/>
      <point x="253.235" y="134" type="line"/>
      <point x="398" y="134" type="line" smooth="yes"/>
      <point x="409" y="134"/>
      <point x="423" y="138"/>
      <point x="423" y="148" type="curve" smooth="yes"/>
    </contour>
  </outline>
  <guideline angle="246.455" x="336" y="490"/>
  <guideline angle="116.147" x="256" y="311"/>
</glyph>
<glyph name="section" format="2">
	<unicode hex="00A7"/>
	<advance width="473"/>
	<outline>
		<contour>
			<point x="335.911" y="61.8152" type="line"/>
			<point x="394.883" y="104.291"/>
			<point x="423" y="154.86"/>
			<point x="423" y="218.347" type="curve" smooth="yes"/>
			<point x="423" y="335.03"/>
			<point x="328.026" y="381.85"/>
			<point x="252" y="419.729" type="curve" smooth="yes"/>
			<point x="240" y="425.708" type="line" smooth="yes"/>
			<point x="180.012" y="455.596"/>
			<point x="149" y="496.006"/>
			<point x="149" y="542.054" type="curve" smooth="yes"/>
			<point x="149" y="590.622"/>
			<point x="183.5" y="625"/>
			<point x="234.62" y="625" type="curve" smooth="yes"/>
			<point x="272.884" y="625"/>
			<point x="300.238" y="605.739"/>
			<point x="300.238" y="576.863" type="curve" smooth="yes"/>
			<point x="300.238" y="567.291"/>
			<point x="297.233" y="560.447"/>
			<point x="297.264" y="553.322" type="curve" smooth="yes"/>
			<point x="297.343" y="535.204"/>
			<point x="317.038" y="519"/>
			<point x="340.884" y="519" type="curve" smooth="yes"/>
			<point x="362.447" y="519"/>
			<point x="375" y="532.25"/>
			<point x="375" y="556.693" type="curve" smooth="yes"/>
			<point x="375" y="611.741"/>
			<point x="311.337" y="658"/>
			<point x="232.183" y="658" type="curve" smooth="yes"/>
			<point x="145.526" y="658"/>
			<point x="80" y="602.555"/>
			<point x="80" y="517.161" type="curve" smooth="yes"/>
			<point x="80" y="460.122"/>
			<point x="109.235" y="414.807"/>
			<point x="180" y="371" type="curve" smooth="yes"/>
			<point x="222" y="345" type="line" smooth="yes"/>
			<point x="327.805" y="279.502"/>
			<point x="369" y="230.74"/>
			<point x="369" y="176.472" type="curve" smooth="yes"/>
			<point x="369" y="139.053"/>
			<point x="349.414" y="106.022"/>
			<point x="315.225" y="80.3097" type="curve"/>
		</contour>
		<contour>
			<point x="393" y="-32.8202" type="curve" smooth="yes"/>
			<point x="393" y="32.1456"/>
			<point x="353.593" y="82.3753"/>
			<point x="251" y="141" type="curve" smooth="yes"/>
			<point x="237" y="149" type="line" smooth="yes"/>
			<point x="139.801" y="204.542"/>
			<point x="104" y="249.226"/>
			<point x="104" y="308.385" type="curve" smooth="yes"/>
			<point x="104" y="349.507"/>
			<point x="121.298" y="378.131"/>
			<point x="159.495" y="406.828" type="curve"/>
			<point x="137.153" y="424.248" type="line"/>
			<point x="79.6005" y="382.946"/>
			<point x="50" y="329.727"/>
			<point x="50" y="266.404" type="curve" smooth="yes"/>
			<point x="50" y="191.347"/>
			<point x="91.5874" y="135.062"/>
			<point x="184" y="86.2004" type="curve" smooth="yes"/>
			<point x="233" y="60.2923" type="line" smooth="yes"/>
			<point x="294.212" y="27.9276"/>
			<point x="324" y="-10.8885"/>
			<point x="324" y="-56.0355" type="curve" smooth="yes"/>
			<point x="324" y="-104.622"/>
			<point x="289.5" y="-139"/>
			<point x="238.705" y="-139" type="curve" smooth="yes"/>
			<point x="201.212" y="-139"/>
			<point x="173.973" y="-120.27"/>
			<point x="173.973" y="-91.4646" type="curve" smooth="yes"/>
			<point x="173.973" y="-86.2106"/>
			<point x="174.88" y="-68.7271"/>
			<point x="174.642" y="-62.9399" type="curve" smooth="yes"/>
			<point x="173.926" y="-45.4692"/>
			<point x="158.62" y="-33"/>
			<point x="134.951" y="-33" type="curve" smooth="yes"/>
			<point x="110.553" y="-33"/>
			<point x="98" y="-46.25"/>
			<point x="98" y="-70.6934" type="curve" smooth="yes"/>
			<point x="98" y="-125.741"/>
			<point x="161.663" y="-172"/>
			<point x="240.838" y="-172" type="curve" smooth="yes"/>
			<point x="327.5" y="-172"/>
			<point x="393" y="-116.577"/>
		</contour>
	</outline>
</glyph>
<glyph name="ordfeminine" format="2">
  <advance width="307"/>
  <unicode hex="00AA"/>
  <outline>
    <contour>
      <point x="192" y="529" type="curve"/>
      <point x="134" y="514" type="line" smooth="yes"/>
      <point x="72.467" y="498.086"/>
      <point x="31" y="470"/>
      <point x="31" y="428" type="curve" smooth="yes"/>
      <point x="31" y="384.163"/>
      <point x="68.0065" y="358"/>
      <point x="108" y="358" type="curve" smooth="yes"/>
      <point x="141" y="358"/>
      <point x="159" y="367"/>
      <point x="193" y="397" type="curve"/>
      <point x="196.453" y="374.553"/>
      <point x="213.496" y="358.319"/>
      <point x="236.219" y="358.32" type="curve" smooth="yes"/>
      <point x="253.294" y="358.321"/>
      <point x="270.505" y="367.228"/>
      <point x="282" y="380" type="curve"/>
      <point x="282.185" y="386.878"/>
      <point x="279" y="393"/>
      <point x="272" y="396" type="curve"/>
      <point x="269" y="393"/>
      <point x="264" y="391"/>
      <point x="260" y="391" type="curve" smooth="yes"/>
      <point x="252" y="391"/>
      <point x="248" y="403"/>
      <point x="246" y="432" type="curve"/>
      <point x="246" y="523" type="line" smooth="yes"/>
      <point x="246" y="602.262"/>
      <point x="213.867" y="637"/>
      <point x="140" y="637" type="curve" smooth="yes"/>
      <point x="98" y="637"/>
      <point x="36" y="604"/>
      <point x="36" y="564" type="curve" smooth="yes"/>
      <point x="36" y="549"/>
      <point x="47.4681" y="539"/>
      <point x="63.1064" y="539" type="curve" smooth="yes"/>
      <point x="77.3419" y="539"/>
      <point x="88.5653" y="549.229"/>
      <point x="88.5932" y="560.338" type="curve" smooth="yes"/>
      <point x="88.6264" y="573.551"/>
      <point x="84" y="581.773"/>
      <point x="84" y="590.174" type="curve" smooth="yes"/>
      <point x="84" y="602.517"/>
      <point x="93.2551" y="612"/>
      <point x="126.255" y="612" type="curve" smooth="yes"/>
      <point x="170.299" y="612"/>
      <point x="192" y="585.091"/>
    </contour>
    <contour>
      <point x="192" y="423" type="line"/>
      <point x="166" y="400"/>
      <point x="149" y="390"/>
      <point x="128" y="390" type="curve" smooth="yes"/>
      <point x="94" y="390"/>
      <point x="85" y="410"/>
      <point x="85" y="431" type="curve" smooth="yes"/>
      <point x="85" y="462"/>
      <point x="107" y="480"/>
      <point x="192" y="502" type="curve"/>
    </contour>
  </outline>
</glyph>
<glyph name="guillemotleft" format="2">
  <advance width="543"/>
  <unicode hex="00AB"/>
  <outline>
    <contour>
      <point x="156" y="215" type="curve"/>
      <point x="194" y="258"/>
      <point x="231" y="306"/>
      <point x="283" y="385" type="curve"/>
      <point x="281" y="395"/>
      <point x="270" y="403"/>
      <point x="259" y="404" type="curve"/>
      <point x="180" y="319"/>
      <point x="130" y="270"/>
      <point x="74" y="221" type="curve"/>
      <point x="74" y="209" type="line"/>
      <point x="130" y="160"/>
      <point x="180" y="112"/>
      <point x="259" y="26" type="curve"/>
      <point x="270" y="27"/>
      <point x="281" y="35"/>
      <point x="283" y="45" type="curve"/>
      <point x="231" y="124"/>
      <point x="194" y="173"/>
    </contour>
    <contour>
      <point x="336" y="215" type="curve"/>
      <point x="374" y="258"/>
      <point x="411" y="306"/>
      <point x="463" y="385" type="curve"/>
      <point x="461" y="395"/>
      <point x="450" y="403"/>
      <point x="439" y="404" type="curve"/>
      <point x="360" y="319"/>
      <point x="310" y="270"/>
      <point x="254" y="221" type="curve"/>
      <point x="254" y="209" type="line"/>
      <point x="310" y="160"/>
      <point x="360" y="112"/>
      <point x="439" y="26" type="curve"/>
      <point x="450" y="27"/>
      <point x="461" y="35"/>
      <point x="463" y="45" type="curve"/>
      <point x="411" y="124"/>
      <point x="374" y="173"/>
    </contour>
  </outline>
</glyph>
<glyph name="logicalnot" format="2">
  <advance width="599"/>
  <unicode hex="00AC"/>
  <outline>
    <contour>
      <point x="499" y="99" type="line"/>
      <point x="513.624" y="90"/>
      <point x="536.908" y="90"/>
      <point x="553" y="99" type="curve"/>
      <point x="553" y="367" type="line"/>
      <point x="80" y="367" type="line"/>
      <point x="80" y="328" type="line"/>
      <point x="499" y="328" type="line"/>
    </contour>
    <contour>
      <point x="224" y="328" type="line"/>
      <point x="224" y="367" type="line"/>
      <point x="51" y="367" type="line" smooth="yes"/>
      <point x="42" y="367"/>
      <point x="32" y="352"/>
      <point x="32" y="342" type="curve" smooth="yes"/>
      <point x="32" y="336"/>
      <point x="35" y="328"/>
      <point x="43" y="328" type="curve" smooth="yes"/>
    </contour>
  </outline>
</glyph>
<glyph name="macron" format="2">
  <advance width="397"/>
  <unicode hex="00AF"/>
  <anchor x="189" y="600" name="top"/>
  <outline>
    <contour>
      <point x="315" y="537" type="line" smooth="yes"/>
      <point x="328" y="537"/>
      <point x="339" y="555"/>
      <point x="339" y="567" type="curve" smooth="yes"/>
      <point x="339" y="573"/>
      <point x="335" y="581"/>
      <point x="325" y="581" type="curve" smooth="yes"/>
      <point x="81" y="581" type="line" smooth="yes"/>
      <point x="69" y="581"/>
      <point x="59" y="564"/>
      <point x="59" y="552" type="curve" smooth="yes"/>
      <point x="59" y="545"/>
      <point x="62" y="537"/>
      <point x="71" y="537" type="curve" smooth="yes"/>
    </contour>
  </outline>
</glyph>
<glyph name="uni00B2" format="2">
  <advance width="308"/>
  <unicode hex="00B2"/>
  <outline>
    <contour>
      <point x="45" y="710" type="curve" smooth="yes"/>
      <point x="45" y="698"/>
      <point x="58" y="686"/>
      <point x="71" y="686" type="curve" smooth="yes"/>
      <point x="92" y="686"/>
      <point x="104" y="697"/>
      <point x="104" y="717" type="curve" smooth="yes"/>
      <point x="104" y="725"/>
      <point x="102" y="735"/>
      <point x="106" y="744" type="curve"/>
      <point x="116" y="754"/>
      <point x="131" y="759"/>
      <point x="148" y="759" type="curve" smooth="yes"/>
      <point x="179" y="759"/>
      <point x="198" y="738"/>
      <point x="198" y="703" type="curve" smooth="yes"/>
      <point x="198" y="665"/>
      <point x="182" y="631"/>
      <point x="152" y="607" type="curve" smooth="yes"/>
      <point x="129" y="588" type="line" smooth="yes"/>
      <point x="73" y="542"/>
      <point x="40" y="500"/>
      <point x="40" y="476" type="curve" smooth="yes"/>
      <point x="40" y="471"/>
      <point x="41" y="467"/>
      <point x="43" y="464" type="curve"/>
      <point x="249" y="464" type="line"/>
      <point x="254" y="501"/>
      <point x="260" y="529"/>
      <point x="268" y="558" type="curve"/>
      <point x="264" y="562"/>
      <point x="257" y="563"/>
      <point x="244" y="563" type="curve"/>
      <point x="226" y="517"/>
      <point x="209" y="497"/>
      <point x="188" y="497" type="curve" smooth="yes"/>
      <point x="105" y="497" type="line"/>
      <point x="114" y="530"/>
      <point x="130" y="551"/>
      <point x="171" y="583" type="curve" smooth="yes"/>
      <point x="180" y="590" type="line" smooth="yes"/>
      <point x="244" y="639"/>
      <point x="260" y="662"/>
      <point x="260" y="704" type="curve" smooth="yes"/>
      <point x="260" y="756"/>
      <point x="219" y="789"/>
      <point x="152" y="789" type="curve" smooth="yes"/>
      <point x="95" y="789"/>
      <point x="45" y="752"/>
    </contour>
  </outline>
</glyph>
<glyph name="uni00B3" format="2">
  <advance width="314"/>
  <unicode hex="00B3"/>
  <outline>
    <contour>
      <point x="186" y="725" type="curve" smooth="yes"/>
      <point x="186" y="685"/>
      <point x="160" y="658"/>
      <point x="115" y="652" type="curve"/>
      <point x="112" y="643"/>
      <point x="112" y="632"/>
      <point x="117" y="625" type="curve"/>
      <point x="122" y="626"/>
      <point x="130" y="627"/>
      <point x="137" y="627" type="curve" smooth="yes"/>
      <point x="184" y="627"/>
      <point x="212" y="604"/>
      <point x="212" y="566" type="curve" smooth="yes"/>
      <point x="212" y="518"/>
      <point x="184" y="490"/>
      <point x="138" y="490" type="curve" smooth="yes"/>
      <point x="115" y="490"/>
      <point x="105" y="493"/>
      <point x="98" y="501" type="curve"/>
      <point x="94" y="518"/>
      <point x="84" y="525"/>
      <point x="65" y="525" type="curve" smooth="yes"/>
      <point x="51" y="525"/>
      <point x="38" y="516"/>
      <point x="38" y="504" type="curve" smooth="yes"/>
      <point x="38" y="481"/>
      <point x="87" y="460"/>
      <point x="139" y="460" type="curve" smooth="yes"/>
      <point x="217" y="460"/>
      <point x="274" y="507"/>
      <point x="274" y="574" type="curve" smooth="yes"/>
      <point x="274" y="619"/>
      <point x="240" y="656"/>
      <point x="194" y="660" type="curve"/>
      <point x="192" y="660"/>
      <point x="192" y="663"/>
      <point x="194" y="664" type="curve" smooth="yes"/>
      <point x="228" y="683"/>
      <point x="245" y="705"/>
      <point x="245" y="730" type="curve" smooth="yes"/>
      <point x="245" y="767"/>
      <point x="213" y="789"/>
      <point x="160" y="789" type="curve" smooth="yes"/>
      <point x="102" y="789"/>
      <point x="46" y="757"/>
      <point x="46" y="724" type="curve" smooth="yes"/>
      <point x="46" y="721"/>
      <point x="50" y="706"/>
      <point x="69" y="706" type="curve" smooth="yes"/>
      <point x="85" y="706"/>
      <point x="93" y="715"/>
      <point x="96" y="735" type="curve"/>
      <point x="103" y="751"/>
      <point x="131" y="759"/>
      <point x="148" y="759" type="curve" smooth="yes"/>
      <point x="171" y="759"/>
      <point x="186" y="745"/>
    </contour>
  </outline>
</glyph>
<glyph name="mu" format="2">
  <advance width="515"/>
  <unicode hex="00B5"/>
  <outline>
    <contour>
      <point x="343" y="60" type="line"/>
      <point x="348.822" y="13.4218"/>
      <point x="376.405" y="-10"/>
      <point x="422" y="-10" type="curve" smooth="yes"/>
      <point x="474" y="-10"/>
      <point x="510" y="30"/>
      <point x="510" y="35" type="curve" smooth="yes"/>
      <point x="510" y="42"/>
      <point x="502" y="50"/>
      <point x="498" y="50" type="curve" smooth="yes"/>
      <point x="492" y="50"/>
      <point x="489" y="34"/>
      <point x="463" y="34" type="curve" smooth="yes"/>
      <point x="433.369" y="34"/>
      <point x="421" y="49.8701"/>
      <point x="421" y="98.9459" type="curve" smooth="yes"/>
      <point x="421" y="439" type="line"/>
      <point x="395" y="436"/>
      <point x="367" y="429"/>
      <point x="342" y="429" type="curve"/>
      <point x="342" y="107" type="line"/>
      <point x="319" y="74"/>
      <point x="264" y="35"/>
      <point x="209" y="35" type="curve" smooth="yes"/>
      <point x="153" y="35"/>
      <point x="136" y="85"/>
      <point x="136" y="147" type="curve" smooth="yes"/>
      <point x="136" y="343" type="line" smooth="yes"/>
      <point x="136" y="375"/>
      <point x="133.3" y="432.6"/>
      <point x="133" y="439" type="curve"/>
      <point x="103" y="436"/>
      <point x="70" y="429"/>
      <point x="46" y="429" type="curve"/>
      <point x="49.2223" y="414.276"/>
      <point x="57" y="350"/>
      <point x="57" y="322" type="curve" smooth="yes"/>
      <point x="57" y="134" type="line" smooth="yes"/>
      <point x="57" y="99"/>
      <point x="60" y="67"/>
      <point x="63" y="40" type="curve" smooth="yes"/>
      <point x="65" y="21"/>
      <point x="66" y="5"/>
      <point x="66" y="-8" type="curve" smooth="yes"/>
      <point x="66" y="-42"/>
      <point x="63.031" y="-69.4696"/>
      <point x="57" y="-100" type="curve" smooth="yes"/>
      <point x="52.4758" y="-122.903"/>
      <point x="50" y="-146"/>
      <point x="50" y="-169" type="curve" smooth="yes"/>
      <point x="50" y="-210"/>
      <point x="69.6085" y="-234"/>
      <point x="99.4727" y="-234" type="curve" smooth="yes"/>
      <point x="132.062" y="-234"/>
      <point x="150" y="-201.796"/>
      <point x="150" y="-174" type="curve" smooth="yes"/>
      <point x="150" y="-155.139"/>
      <point x="141.854" y="-120.343"/>
      <point x="135" y="-100" type="curve" smooth="yes"/>
      <point x="121.397" y="-59.6262"/>
      <point x="114.576" y="-17.9585"/>
      <point x="114.576" y="24.9095" type="curve"/>
      <point x="126.576" y="11.9095"/>
      <point x="167" y="-10"/>
      <point x="194" y="-10" type="curve" smooth="yes"/>
      <point x="258" y="-10"/>
      <point x="301" y="16"/>
      <point x="340" y="60" type="curve"/>
    </contour>
  </outline>
</glyph>
<glyph name="paragraph" format="2">
  <advance width="572"/>
  <unicode hex="00B6"/>
  <outline>
    <contour>
      <point x="468" y="-141" type="curve" smooth="yes"/>
      <point x="468" y="559.409" type="line" smooth="yes"/>
      <point x="468" y="597.394"/>
      <point x="487.005" y="609.6"/>
      <point x="553" y="614" type="curve"/>
      <point x="555.821" y="618.589"/>
      <point x="557" y="625.088"/>
      <point x="557" y="630.088" type="curve" smooth="yes"/>
      <point x="557" y="634.915"/>
      <point x="556.124" y="642.034"/>
      <point x="553" y="647" type="curve"/>
      <point x="524" y="646"/>
      <point x="482" y="645"/>
      <point x="443" y="645" type="curve" smooth="yes"/>
      <point x="364.636" y="645"/>
      <point x="295.347" y="647"/>
      <point x="217" y="647" type="curve" smooth="yes"/>
      <point x="105.789" y="647"/>
      <point x="27" y="578.163"/>
      <point x="27" y="481" type="curve" smooth="yes"/>
      <point x="27" y="355.141"/>
      <point x="102.858" y="282"/>
      <point x="233.393" y="282" type="curve" smooth="yes"/>
      <point x="254.601" y="282"/>
      <point x="278" y="283"/>
      <point x="287" y="285" type="curve"/>
      <point x="287" y="-141" type="line" smooth="yes"/>
      <point x="287" y="-184.908"/>
      <point x="266.991" y="-196.734"/>
      <point x="203" y="-201" type="curve"/>
      <point x="200.031" y="-205.642"/>
      <point x="198.923" y="-215.181"/>
      <point x="199" y="-220.538" type="curve" smooth="yes"/>
      <point x="199.068" y="-225.218"/>
      <point x="200.151" y="-229.887"/>
      <point x="203" y="-234" type="curve"/>
      <point x="252" y="-232"/>
      <point x="309" y="-232"/>
      <point x="378" y="-232" type="curve" smooth="yes"/>
      <point x="447" y="-232"/>
      <point x="506" y="-232"/>
      <point x="553" y="-234" type="curve"/>
      <point x="555.929" y="-229.386"/>
      <point x="556.865" y="-222.889"/>
      <point x="557" y="-217.815" type="curve" smooth="yes"/>
      <point x="557.133" y="-212.817"/>
      <point x="555.929" y="-206.296"/>
      <point x="553" y="-201" type="curve"/>
      <point x="488.012" y="-196.667"/>
      <point x="468" y="-187.17"/>
    </contour>
    <contour>
      <point x="377" y="-199" type="curve" smooth="yes"/>
      <point x="354" y="-199"/>
      <point x="337" y="-188"/>
      <point x="337" y="-161" type="curve" smooth="yes"/>
      <point x="337" y="574" type="line" smooth="yes"/>
      <point x="337" y="601"/>
      <point x="354" y="612"/>
      <point x="377" y="612" type="curve" smooth="yes"/>
      <point x="400" y="612"/>
      <point x="418" y="605"/>
      <point x="418" y="574" type="curve" smooth="yes"/>
      <point x="418" y="-161" type="line" smooth="yes"/>
      <point x="418" y="-192"/>
      <point x="400" y="-199"/>
    </contour>
  </outline>
</glyph>
<glyph name="cedilla" format="2">
	<unicode hex="00B8"/>
	<advance width="541"/>
	<outline>
		<contour>
			<point x="257" y="-102" type="line"/>
			<point x="273" y="-97"/>
			<point x="283" y="-96"/>
			<point x="302" y="-96" type="curve" smooth="yes"/>
			<point x="323.4" y="-96"/>
			<point x="335" y="-108.303"/>
			<point x="335" y="-131" type="curve" smooth="yes"/>
			<point x="335" y="-155.765"/>
			<point x="315.575" y="-171"/>
			<point x="284" y="-171" type="curve" smooth="yes"/>
			<point x="264" y="-171"/>
			<point x="253" y="-167"/>
			<point x="226" y="-157" type="curve"/>
			<point x="219" y="-164"/>
			<point x="216" y="-171"/>
			<point x="216" y="-183" type="curve"/>
			<point x="241.437" y="-193.902"/>
			<point x="262.082" y="-200"/>
			<point x="290" y="-200" type="curve" smooth="yes"/>
			<point x="351.588" y="-200"/>
			<point x="397" y="-168.593"/>
			<point x="397" y="-126" type="curve" smooth="yes"/>
			<point x="397" y="-89.2735"/>
			<point x="368.058" y="-64"/>
			<point x="326" y="-64" type="curve" smooth="yes"/>
			<point x="317" y="-64"/>
			<point x="306" y="-65"/>
			<point x="298" y="-67" type="curve"/>
			<point x="325" y="0" type="line"/>
			<point x="291" y="0" type="line"/>
			<point x="251" y="-96" type="line"/>
		</contour>
	</outline>
</glyph>
<glyph name="uni00B9" format="2">
  <advance width="267"/>
  <unicode hex="00B9"/>
  <outline>
    <contour>
      <point x="95" y="719" type="curve" smooth="yes"/>
      <point x="107" y="719"/>
      <point x="109" y="710"/>
      <point x="109" y="678" type="curve" smooth="yes"/>
      <point x="109" y="548" type="line" smooth="yes"/>
      <point x="109" y="497"/>
      <point x="78" y="494"/>
      <point x="38" y="492" type="curve"/>
      <point x="33" y="484"/>
      <point x="34" y="469"/>
      <point x="38" y="463" type="curve"/>
      <point x="68" y="464"/>
      <point x="99" y="464"/>
      <point x="134" y="464" type="curve" smooth="yes"/>
      <point x="167" y="464"/>
      <point x="188" y="464"/>
      <point x="218" y="463" type="curve"/>
      <point x="222" y="470"/>
      <point x="222" y="484"/>
      <point x="218" y="492" type="curve"/>
      <point x="184" y="494"/>
      <point x="163" y="497"/>
      <point x="163" y="548" type="curve" smooth="yes"/>
      <point x="163" y="679" type="line" smooth="yes"/>
      <point x="163" y="715"/>
      <point x="163" y="752"/>
      <point x="167" y="787" type="curve"/>
      <point x="165" y="789"/>
      <point x="162" y="790"/>
      <point x="159" y="790" type="curve" smooth="yes"/>
      <point x="156" y="790"/>
      <point x="152" y="789"/>
      <point x="149" y="787" type="curve" smooth="yes"/>
      <point x="105" y="760"/>
      <point x="75" y="748"/>
      <point x="28" y="731" type="curve"/>
      <point x="28" y="719"/>
      <point x="30" y="710"/>
      <point x="38" y="704" type="curve"/>
      <point x="63" y="713"/>
      <point x="82" y="719"/>
    </contour>
  </outline>
</glyph>
<glyph name="guillemotright" format="2">
  <advance width="543"/>
  <unicode hex="00BB"/>
  <outline>
    <contour>
      <point x="207" y="215" type="curve"/>
      <point x="170" y="173"/>
      <point x="132" y="124"/>
      <point x="80" y="45" type="curve"/>
      <point x="83" y="35"/>
      <point x="94" y="27"/>
      <point x="104" y="26" type="curve"/>
      <point x="184" y="112"/>
      <point x="234" y="160"/>
      <point x="289" y="209" type="curve"/>
      <point x="289" y="221" type="line"/>
      <point x="234" y="270"/>
      <point x="184" y="319"/>
      <point x="104" y="404" type="curve"/>
      <point x="94" y="403"/>
      <point x="83" y="395"/>
      <point x="80" y="385" type="curve"/>
      <point x="132" y="306"/>
      <point x="170" y="258"/>
    </contour>
    <contour>
      <point x="387" y="215" type="curve"/>
      <point x="350" y="173"/>
      <point x="312" y="124"/>
      <point x="260" y="45" type="curve"/>
      <point x="263" y="35"/>
      <point x="274" y="27"/>
      <point x="284" y="26" type="curve"/>
      <point x="364" y="112"/>
      <point x="414" y="160"/>
      <point x="469" y="209" type="curve"/>
      <point x="469" y="221" type="line"/>
      <point x="414" y="270"/>
      <point x="364" y="319"/>
      <point x="284" y="404" type="curve"/>
      <point x="274" y="403"/>
      <point x="263" y="395"/>
      <point x="260" y="385" type="curve"/>
      <point x="312" y="306"/>
      <point x="350" y="258"/>
    </contour>
  </outline>
</glyph>
<glyph name="onequarter" format="2">
  <advance width="558"/>
  <unicode hex="00BC"/>
  <outline>
    <component base="uni2074" xOffset="207.851" yOffset="-365.722"/>
    <contour>
      <point x="95" y="585.985" type="curve" smooth="yes"/>
      <point x="107" y="585.985"/>
      <point x="109" y="576.985"/>
      <point x="109" y="544.985" type="curve" smooth="yes"/>
      <point x="109" y="414.985" type="line" smooth="yes"/>
      <point x="109" y="363.985"/>
      <point x="78" y="360.985"/>
      <point x="38" y="358.985" type="curve"/>
      <point x="33" y="350.985"/>
      <point x="34" y="335.985"/>
      <point x="38" y="329.985" type="curve"/>
      <point x="68" y="330.985"/>
      <point x="99" y="330.985"/>
      <point x="134" y="330.985" type="curve" smooth="yes"/>
      <point x="167" y="330.985"/>
      <point x="188" y="330.985"/>
      <point x="218" y="329.985" type="curve"/>
      <point x="222" y="336.985"/>
      <point x="222" y="350.985"/>
      <point x="218" y="358.985" type="curve"/>
      <point x="184" y="360.985"/>
      <point x="163" y="363.985"/>
      <point x="163" y="414.985" type="curve" smooth="yes"/>
      <point x="163" y="546.391" type="line" smooth="yes"/>
      <point x="163" y="581.921"/>
      <point x="162.68" y="618.479"/>
      <point x="167" y="653.985" type="curve"/>
      <point x="164.799" y="656.186"/>
      <point x="162.012" y="657.04"/>
      <point x="159.156" y="657.045" type="curve" smooth="yes"/>
      <point x="155.525" y="657.053"/>
      <point x="151.784" y="655.69"/>
      <point x="149" y="653.985" type="curve"/>
      <point x="104.973" y="627.03"/>
      <point x="75" y="614.985"/>
      <point x="28" y="597.985" type="curve"/>
      <point x="28" y="585.985"/>
      <point x="30" y="576.985"/>
      <point x="38" y="570.985" type="curve"/>
      <point x="63" y="579.985"/>
      <point x="82" y="585.985"/>
    </contour>
    <contour>
      <point x="503.794" y="656.717" type="line"/>
      <point x="36.6015" y="-10" type="line"/>
      <point x="77.6015" y="-10" type="line"/>
      <point x="545.794" y="656.717" type="line"/>
    </contour>
  </outline>
</glyph>
<glyph name="onehalf" format="2">
  <advance width="618"/>
  <unicode hex="00BD"/>
  <outline>
    <contour>
      <point x="95" y="587.031" type="curve" smooth="yes"/>
      <point x="107" y="587.031"/>
      <point x="109" y="578.031"/>
      <point x="109" y="546.031" type="curve" smooth="yes"/>
      <point x="109" y="416.031" type="line" smooth="yes"/>
      <point x="109" y="365.031"/>
      <point x="78" y="362.031"/>
      <point x="38" y="360.031" type="curve"/>
      <point x="33" y="352.031"/>
      <point x="34" y="337.031"/>
      <point x="38" y="331.031" type="curve"/>
      <point x="68" y="332.031"/>
      <point x="99" y="332.031"/>
      <point x="134" y="332.031" type="curve" smooth="yes"/>
      <point x="167" y="332.031"/>
      <point x="188" y="332.031"/>
      <point x="218" y="331.031" type="curve"/>
      <point x="222" y="338.031"/>
      <point x="222" y="352.031"/>
      <point x="218" y="360.031" type="curve"/>
      <point x="184" y="362.031"/>
      <point x="163" y="365.031"/>
      <point x="163" y="416.031" type="curve" smooth="yes"/>
      <point x="163" y="547.436" type="line" smooth="yes"/>
      <point x="163" y="582.967"/>
      <point x="162.68" y="619.524"/>
      <point x="167" y="655.031" type="curve"/>
      <point x="164.799" y="657.231"/>
      <point x="162.012" y="658.085"/>
      <point x="159.156" y="658.091" type="curve" smooth="yes"/>
      <point x="155.525" y="658.098"/>
      <point x="151.784" y="656.735"/>
      <point x="149" y="655.031" type="curve" smooth="yes"/>
      <point x="104.973" y="628.075"/>
      <point x="75" y="616.031"/>
      <point x="28" y="599.031" type="curve"/>
      <point x="28" y="587.031"/>
      <point x="30" y="578.031"/>
      <point x="38" y="572.031" type="curve"/>
      <point x="63" y="581.031"/>
      <point x="82" y="587.031"/>
    </contour>
    <contour>
      <point x="503.794" y="656.717" type="line"/>
      <point x="36.6015" y="-10" type="line"/>
      <point x="77.6015" y="-10" type="line"/>
      <point x="545.794" y="656.717" type="line"/>
    </contour>
    <contour>
      <point x="355" y="245.538" type="curve" smooth="yes"/>
      <point x="355" y="233.638"/>
      <point x="367.958" y="221.813"/>
      <point x="381" y="221.813" type="curve" smooth="yes"/>
      <point x="402.104" y="221.813"/>
      <point x="414.295" y="233.396"/>
      <point x="414.295" y="253.447" type="curve" smooth="yes"/>
      <point x="414.295" y="261.263"/>
      <point x="411.909" y="270.823"/>
      <point x="416" y="280.137" type="curve"/>
      <point x="425.634" y="289.661"/>
      <point x="440.724" y="295.002"/>
      <point x="458" y="295.002" type="curve" smooth="yes"/>
      <point x="489.023" y="295.002"/>
      <point x="508" y="273.602"/>
      <point x="508" y="238.618" type="curve" smooth="yes"/>
      <point x="508" y="200.902"/>
      <point x="491.729" y="166.972"/>
      <point x="462" y="142.695" type="curve" smooth="yes"/>
      <point x="439" y="123.912" type="line" smooth="yes"/>
      <point x="383.056" y="78.2269"/>
      <point x="349.785" y="36.2383"/>
      <point x="350.323" y="12" type="curve" smooth="yes"/>
      <point x="350.429" y="7.25273"/>
      <point x="351.297" y="3.35884"/>
      <point x="353" y="0" type="curve"/>
      <point x="559" y="0" type="line"/>
      <point x="564.099" y="36.6844"/>
      <point x="569.764" y="64.8"/>
      <point x="578" y="94.2901" type="curve"/>
      <point x="573.563" y="97.7987"/>
      <point x="566.6" y="99.2328"/>
      <point x="554" y="99.2328" type="curve"/>
      <point x="535.884" y="52.8807"/>
      <point x="519.075" y="33"/>
      <point x="498" y="33" type="curve" smooth="yes"/>
      <point x="415" y="33" type="line"/>
      <point x="423.822" y="66.4307"/>
      <point x="439.892" y="87.3622"/>
      <point x="481" y="118.969" type="curve" smooth="yes"/>
      <point x="490" y="125.889" type="line" smooth="yes"/>
      <point x="553.729" y="174.889"/>
      <point x="570" y="198.017"/>
      <point x="570" y="239.607" type="curve" smooth="yes"/>
      <point x="570" y="292.492"/>
      <point x="528.885" y="325"/>
      <point x="462" y="325" type="curve" smooth="yes"/>
      <point x="405.448" y="325"/>
      <point x="355" y="287.535"/>
    </contour>
  </outline>
</glyph>
<glyph name="AE" format="2">
  <advance width="880"/>
  <unicode hex="00C6"/>
  <anchor x="480" y="740" name="top"/>
  <outline>
    <contour>
      <point x="7" y="-2" type="curve"/>
      <point x="44" y="0"/>
      <point x="57" y="0"/>
      <point x="96" y="0" type="curve" smooth="yes"/>
      <point x="137" y="0"/>
      <point x="187" y="0"/>
      <point x="224" y="-2" type="curve"/>
      <point x="230" y="4"/>
      <point x="230" y="25"/>
      <point x="224" y="31" type="curve"/>
      <point x="191.808" y="33.5415"/>
      <point x="149.449" y="42.2095"/>
      <point x="149.509" y="63.3541" type="curve" smooth="yes"/>
      <point x="149.521" y="67.8736"/>
      <point x="150.915" y="73.0534"/>
      <point x="154" y="79" type="curve" smooth="yes"/>
      <point x="405" y="561" type="line" smooth="yes"/>
      <point x="411.64" y="573.685"/>
      <point x="418" y="586"/>
      <point x="424" y="598" type="curve"/>
      <point x="427.581" y="594.131"/>
      <point x="429" y="579.681"/>
      <point x="429" y="575" type="curve" smooth="yes"/>
      <point x="429" y="122" type="line" smooth="yes"/>
      <point x="429" y="39"/>
      <point x="412" y="34"/>
      <point x="342" y="31" type="curve"/>
      <point x="336" y="25"/>
      <point x="336" y="4"/>
      <point x="342" y="-2" type="curve"/>
      <point x="391" y="0"/>
      <point x="463.899" y="0"/>
      <point x="472" y="0" type="curve" smooth="yes"/>
      <point x="686" y="0" type="line" smooth="yes"/>
      <point x="728.676" y="0"/>
      <point x="771.346" y="0.3985"/>
      <point x="814" y="-2" type="curve"/>
      <point x="828" y="48"/>
      <point x="843" y="114"/>
      <point x="851" y="165" type="curve"/>
      <point x="841" y="171"/>
      <point x="829" y="173"/>
      <point x="816" y="170" type="curve"/>
      <point x="796" y="98"/>
      <point x="761" y="39"/>
      <point x="685" y="39" type="curve" smooth="yes"/>
      <point x="549" y="39" type="line" smooth="yes"/>
      <point x="527" y="39"/>
      <point x="513" y="55"/>
      <point x="513" y="82" type="curve" smooth="yes"/>
      <point x="513" y="561" type="line" smooth="yes"/>
      <point x="513" y="585"/>
      <point x="525" y="605"/>
      <point x="549" y="605" type="curve" smooth="yes"/>
      <point x="654" y="605" type="line" smooth="yes"/>
      <point x="729" y="605"/>
      <point x="745" y="565"/>
      <point x="767" y="496" type="curve"/>
      <point x="779" y="494"/>
      <point x="790" y="496"/>
      <point x="800" y="501" type="curve"/>
      <point x="795" y="542"/>
      <point x="780" y="638"/>
      <point x="778" y="646" type="curve"/>
      <point x="778" y="648"/>
      <point x="777" y="649"/>
      <point x="774" y="649" type="curve"/>
      <point x="754.774" y="645.504"/>
      <point x="745.351" y="645"/>
      <point x="725" y="645" type="curve" smooth="yes"/>
      <point x="642.83" y="645"/>
      <point x="558.17" y="645"/>
      <point x="476" y="645" type="curve" smooth="yes"/>
      <point x="409" y="645" type="line" smooth="yes"/>
      <point x="373.25" y="645"/>
      <point x="321.5" y="645.9"/>
      <point x="294" y="647" type="curve"/>
      <point x="288.446" y="641.446"/>
      <point x="287.984" y="620.016"/>
      <point x="294" y="614" type="curve"/>
      <point x="323.875" y="614"/>
      <point x="361.117" y="607.725"/>
      <point x="361.035" y="580.37" type="curve" smooth="yes"/>
      <point x="361.015" y="573.846"/>
      <point x="358.872" y="566.123"/>
      <point x="354" y="557" type="curve" smooth="yes"/>
      <point x="111" y="102" type="line" smooth="yes"/>
      <point x="79.3807" y="42.7951"/>
      <point x="51" y="34"/>
      <point x="7" y="31" type="curve"/>
      <point x="1" y="25"/>
      <point x="1" y="4"/>
    </contour>
    <contour>
      <point x="498" y="323" type="line"/>
      <point x="604" y="323" type="line" smooth="yes"/>
      <point x="689" y="323"/>
      <point x="692" y="300"/>
      <point x="695" y="255" type="curve"/>
      <point x="701" y="249"/>
      <point x="722" y="249"/>
      <point x="728" y="255" type="curve"/>
      <point x="727" y="290"/>
      <point x="726" y="309"/>
      <point x="726" y="343" type="curve" smooth="yes"/>
      <point x="726" y="377"/>
      <point x="727" y="399"/>
      <point x="728" y="429" type="curve"/>
      <point x="722" y="435"/>
      <point x="701" y="435"/>
      <point x="695" y="429" type="curve"/>
      <point x="691.331" y="369.08"/>
      <point x="666.303" y="361"/>
      <point x="604" y="361" type="curve" smooth="yes"/>
      <point x="498" y="361" type="line"/>
    </contour>
    <contour>
      <point x="236" y="266" type="line"/>
      <point x="444" y="266" type="line"/>
      <point x="444" y="305" type="line"/>
      <point x="256" y="305" type="line"/>
    </contour>
  </outline>
</glyph>
<glyph name="Eth" format="2">
  <advance width="701"/>
  <unicode hex="00D0"/>
  <anchor x="341" y="850" name="m.uni0302"/>
  <outline>
    <contour>
      <point x="19" y="287" type="curve" smooth="yes"/>
      <point x="199.844" y="287" type="line"/>
      <point x="199.844" y="326" type="line"/>
      <point x="27" y="326" type="line" smooth="yes"/>
      <point x="18" y="326"/>
      <point x="8" y="311"/>
      <point x="8" y="301" type="curve" smooth="yes"/>
      <point x="8" y="295"/>
      <point x="11" y="287"/>
    </contour>
    <contour>
      <point x="19" y="-2" type="curve"/>
      <point x="56" y="-1"/>
      <point x="116.5" y="0"/>
      <point x="149" y="0" type="curve"/>
      <point x="149" y="645" type="line"/>
      <point x="119" y="645"/>
      <point x="59" y="646"/>
      <point x="19" y="647" type="curve"/>
      <point x="13" y="641"/>
      <point x="13" y="620"/>
      <point x="19" y="614" type="curve"/>
      <point x="89" y="611"/>
      <point x="106" y="604"/>
      <point x="106" y="527" type="curve" smooth="yes"/>
      <point x="106" y="120" type="line" smooth="yes"/>
      <point x="106" y="39"/>
      <point x="89" y="34"/>
      <point x="19" y="31" type="curve"/>
      <point x="13" y="25"/>
      <point x="13" y="4"/>
    </contour>
    <contour>
      <point x="19" y="-2" type="curve"/>
      <point x="56" y="-1"/>
      <point x="116.5" y="0"/>
      <point x="149" y="0" type="curve"/>
      <point x="149" y="645" type="line"/>
      <point x="119" y="645"/>
      <point x="59" y="646"/>
      <point x="19" y="647" type="curve"/>
      <point x="13" y="641"/>
      <point x="13" y="620"/>
      <point x="19" y="614" type="curve"/>
      <point x="89" y="611"/>
      <point x="106" y="604"/>
      <point x="106" y="527" type="curve" smooth="yes"/>
      <point x="106" y="120" type="line" smooth="yes"/>
      <point x="106" y="39"/>
      <point x="89" y="34"/>
      <point x="19" y="31" type="curve"/>
      <point x="13" y="25"/>
      <point x="13" y="4"/>
    </contour>
    <contour>
      <point x="148.5" y="0" type="line"/>
      <point x="185.5" y="0"/>
      <point x="228" y="-2"/>
      <point x="331" y="-2" type="curve" smooth="yes"/>
      <point x="472" y="-2"/>
      <point x="658" y="62"/>
      <point x="658" y="308" type="curve" smooth="yes"/>
      <point x="658" y="494"/>
      <point x="505" y="647"/>
      <point x="313" y="647" type="curve" smooth="yes"/>
      <point x="242" y="647"/>
      <point x="187.5" y="645"/>
      <point x="148.5" y="645" type="curve"/>
    </contour>
    <contour>
      <point x="191" y="84" type="curve" smooth="yes"/>
      <point x="191" y="564" type="line" smooth="yes"/>
      <point x="191" y="599"/>
      <point x="226" y="613"/>
      <point x="275" y="613" type="curve" smooth="yes"/>
      <point x="491" y="613"/>
      <point x="562" y="438"/>
      <point x="562" y="284" type="curve" smooth="yes"/>
      <point x="562" y="82"/>
      <point x="441" y="32"/>
      <point x="300" y="32" type="curve" smooth="yes"/>
      <point x="202" y="32"/>
      <point x="191" y="52"/>
    </contour>
    <contour>
      <point x="146.268" y="287" type="line"/>
      <point x="279" y="287" type="line" smooth="yes"/>
      <point x="291" y="287"/>
      <point x="300" y="302"/>
      <point x="300" y="313" type="curve" smooth="yes"/>
      <point x="300" y="318"/>
      <point x="297" y="326"/>
      <point x="288" y="326" type="curve" smooth="yes"/>
      <point x="146.234" y="326" type="line"/>
    </contour>
  </outline>
</glyph>
<glyph name="Oslash" format="2">
  <advance width="701"/>
  <unicode hex="00D8"/>
  <anchor x="343" y="740" name="top"/>
  <anchor x="343" y="-60" name="b.minus-60"/>
  <outline>
    <contour>
      <point x="665" y="329" type="curve" smooth="yes"/>
      <point x="665" y="536"/>
      <point x="522" y="658"/>
      <point x="346" y="658" type="curve" smooth="yes"/>
      <point x="149" y="658"/>
      <point x="36" y="504"/>
      <point x="36" y="320" type="curve" smooth="yes"/>
      <point x="36" y="113"/>
      <point x="179" y="-10"/>
      <point x="354" y="-10" type="curve" smooth="yes"/>
      <point x="548" y="-10"/>
      <point x="665" y="141"/>
    </contour>
    <contour>
      <point x="339" y="622" type="curve" smooth="yes"/>
      <point x="462" y="622"/>
      <point x="569" y="512"/>
      <point x="569" y="311" type="curve" smooth="yes"/>
      <point x="569" y="131"/>
      <point x="483" y="26"/>
      <point x="366" y="26" type="curve" smooth="yes"/>
      <point x="247" y="26"/>
      <point x="132" y="135"/>
      <point x="132" y="327" type="curve" smooth="yes"/>
      <point x="132" y="537"/>
      <point x="231" y="622"/>
    </contour>
    <contour>
      <point x="166" y="135" type="line"/>
      <point x="194" y="94" type="line"/>
      <point x="534" y="515" type="line"/>
      <point x="506" y="556" type="line"/>
    </contour>
    <contour>
      <point x="71" y="19" type="line"/>
      <point x="74" y="4"/>
      <point x="88" y="-13"/>
      <point x="107" y="-13" type="curve"/>
      <point x="168" y="63" type="line"/>
      <point x="133" y="94" type="line"/>
    </contour>
    <contour>
      <point x="532" y="585" type="line"/>
      <point x="567" y="554" type="line"/>
      <point x="626" y="628" type="line"/>
      <point x="624" y="643"/>
      <point x="609" y="658"/>
      <point x="590" y="658" type="curve"/>
    </contour>
  </outline>
</glyph>
<glyph name="germandbls" format="2">
  <advance width="541"/>
  <unicode hex="00DF"/>
  <outline>
    <contour>
      <point x="92" y="122" type="line" smooth="yes"/>
      <point x="92" y="44.413"/>
      <point x="84.275" y="34.225"/>
      <point x="23" y="31" type="curve"/>
      <point x="17" y="25"/>
      <point x="17" y="4"/>
      <point x="23" y="-2" type="curve"/>
      <point x="63.2097" y="0.3403"/>
      <point x="92.7898" y="0"/>
      <point x="118.776" y="0" type="curve" smooth="yes"/>
      <point x="124.776" y="0"/>
      <point x="129.776" y="0"/>
      <point x="135.776" y="0" type="curve" smooth="yes"/>
      <point x="159.832" y="0"/>
      <point x="197.351" y="-0.8606"/>
      <point x="219" y="-2" type="curve"/>
      <point x="225" y="4"/>
      <point x="225" y="25"/>
      <point x="219" y="31" type="curve"/>
      <point x="177.379" y="36.7806"/>
      <point x="171" y="48.875"/>
      <point x="171" y="122" type="curve" smooth="yes"/>
      <point x="171" y="442" type="line" smooth="yes"/>
      <point x="171" y="595.966"/>
      <point x="206.91" y="665"/>
      <point x="287" y="665" type="curve" smooth="yes"/>
      <point x="336.643" y="665"/>
      <point x="365" y="631.917"/>
      <point x="365" y="574" type="curve" smooth="yes"/>
      <point x="365" y="510.857"/>
      <point x="339.394" y="470.619"/>
      <point x="260" y="409" type="curve"/>
      <point x="260" y="396" type="line"/>
      <point x="361.124" y="318.953"/>
      <point x="415" y="235.532"/>
      <point x="415" y="156" type="curve" smooth="yes"/>
      <point x="415" y="77.6378"/>
      <point x="382.678" y="23"/>
      <point x="336.32" y="23" type="curve" smooth="yes"/>
      <point x="305.33" y="23"/>
      <point x="291" y="32.4856"/>
      <point x="291" y="53" type="curve" smooth="yes"/>
      <point x="291" y="65"/>
      <point x="299" y="74"/>
      <point x="299" y="91" type="curve" smooth="yes"/>
      <point x="299" y="111.714"/>
      <point x="290.333" y="121"/>
      <point x="271" y="121" type="curve" smooth="yes"/>
      <point x="252.785" y="121"/>
      <point x="240" y="106.565"/>
      <point x="240" y="86" type="curve" smooth="yes"/>
      <point x="240" y="25.2308"/>
      <point x="278.167" y="-10"/>
      <point x="344" y="-10" type="curve" smooth="yes"/>
      <point x="434.754" y="-10"/>
      <point x="500" y="66.5385"/>
      <point x="500" y="173" type="curve" smooth="yes"/>
      <point x="500" y="256.789"/>
      <point x="448.337" y="324.525"/>
      <point x="320" y="409" type="curve"/>
      <point x="320" y="412" type="line"/>
      <point x="414.032" y="478.236"/>
      <point x="448" y="524.677"/>
      <point x="448" y="587" type="curve" smooth="yes"/>
      <point x="448" y="648.168"/>
      <point x="379.761" y="698"/>
      <point x="296" y="698" type="curve" smooth="yes"/>
      <point x="180.346" y="698"/>
      <point x="92" y="602.292"/>
      <point x="92" y="477" type="curve" smooth="yes"/>
      <point x="92" y="439.298"/>
      <point x="83.3409" y="431"/>
      <point x="44" y="431" type="curve" smooth="yes"/>
      <point x="35.5598" y="431"/>
      <point x="27" y="419.923"/>
      <point x="27" y="409" type="curve" smooth="yes"/>
      <point x="27" y="403.959"/>
      <point x="27.6191" y="400.554"/>
      <point x="29" y="398" type="curve"/>
      <point x="92" y="398" type="line"/>
    </contour>
  </outline>
</glyph>
<glyph name="eth" format="2">
  <advance width="486"/>
  <unicode hex="00F0"/>
  <outline>
    <contour>
      <point x="34" y="208" type="curve" smooth="yes"/>
      <point x="34" y="104"/>
      <point x="107" y="-10"/>
      <point x="231" y="-10" type="curve" smooth="yes"/>
      <point x="374.153" y="-10"/>
      <point x="447" y="103.655"/>
      <point x="447" y="237" type="curve" smooth="yes"/>
      <point x="447" y="390.131"/>
      <point x="383.099" y="495.901"/>
      <point x="278" y="601" type="curve"/>
      <point x="375" y="666" type="line"/>
      <point x="353" y="698" type="line"/>
      <point x="247" y="627" type="line"/>
      <point x="212" y="655"/>
      <point x="176" y="679"/>
      <point x="141" y="698" type="curve"/>
      <point x="125" y="677" type="line"/>
      <point x="156.132" y="654.948"/>
      <point x="182.147" y="628.853"/>
      <point x="209" y="602" type="curve"/>
      <point x="104" y="531" type="line"/>
      <point x="126" y="499" type="line"/>
      <point x="235" y="572" type="line"/>
      <point x="272" y="526"/>
      <point x="302" y="478"/>
      <point x="324" y="425" type="curve"/>
      <point x="299" y="435"/>
      <point x="274" y="439"/>
      <point x="248" y="439" type="curve" smooth="yes"/>
      <point x="118.076" y="439"/>
      <point x="34" y="332.532"/>
    </contour>
    <contour>
      <point x="248" y="26" type="curve" smooth="yes"/>
      <point x="177" y="26"/>
      <point x="120" y="111"/>
      <point x="120" y="225" type="curve" smooth="yes"/>
      <point x="120" y="301"/>
      <point x="145" y="404"/>
      <point x="246" y="404" type="curve" smooth="yes"/>
      <point x="289" y="404"/>
      <point x="324" y="385"/>
      <point x="347" y="356" type="curve"/>
      <point x="359" y="313"/>
      <point x="363" y="269"/>
      <point x="363" y="223" type="curve" smooth="yes"/>
      <point x="363" y="61"/>
      <point x="295" y="26"/>
    </contour>
  </outline>
</glyph>
<glyph name="oslash" format="2">
  <advance width="504"/>
  <unicode hex="00F8"/>
  <anchor x="237" y="500" name="top"/>
  <outline>
    <contour>
      <point x="41" y="214" type="curve" smooth="yes"/>
      <point x="41" y="103"/>
      <point x="109" y="-10"/>
      <point x="251" y="-10" type="curve" smooth="yes"/>
      <point x="381" y="-10"/>
      <point x="463" y="87"/>
      <point x="463" y="213" type="curve" smooth="yes"/>
      <point x="463" y="318"/>
      <point x="406" y="439"/>
      <point x="258" y="439" type="curve" smooth="yes"/>
      <point x="119" y="439"/>
      <point x="41" y="332"/>
    </contour>
    <contour>
      <point x="127" y="231" type="curve" smooth="yes"/>
      <point x="127" y="315"/>
      <point x="164" y="404"/>
      <point x="247" y="404" type="curve" smooth="yes"/>
      <point x="324" y="404"/>
      <point x="377" y="326"/>
      <point x="377" y="182" type="curve" smooth="yes"/>
      <point x="377" y="56"/>
      <point x="312" y="25"/>
      <point x="262" y="25" type="curve" smooth="yes"/>
      <point x="161" y="25"/>
      <point x="127" y="151"/>
    </contour>
    <contour>
      <point x="38" y="-2" type="line"/>
      <point x="40" y="-17"/>
      <point x="52" y="-28"/>
      <point x="68" y="-28" type="curve"/>
      <point x="445" y="431" type="line"/>
      <point x="441" y="444"/>
      <point x="431" y="454"/>
      <point x="414" y="454" type="curve"/>
    </contour>
  </outline>
</glyph>
<glyph name="thorn" format="2">
  <advance width="502"/>
  <unicode hex="00FE"/>
  <anchor x="116" y="740" name="top"/>
  <outline>
    <contour>
      <point x="164" y="-120" type="line"/>
      <point x="164" y="14" type="line"/>
      <point x="190" y="-4"/>
      <point x="222" y="-10"/>
      <point x="253" y="-10" type="curve" smooth="yes"/>
      <point x="387" y="-10"/>
      <point x="465" y="110"/>
      <point x="465" y="235" type="curve" smooth="yes"/>
      <point x="465" y="329"/>
      <point x="399" y="439"/>
      <point x="295" y="439" type="curve" smooth="yes"/>
      <point x="210" y="439"/>
      <point x="174" y="389"/>
      <point x="164" y="372" type="curve"/>
      <point x="164" y="586" type="line"/>
      <point x="84" y="586" type="line"/>
      <point x="84" y="-120" type="line"/>
    </contour>
    <contour>
      <point x="162" y="288" type="line" smooth="yes"/>
      <point x="162" y="358"/>
      <point x="236" y="393"/>
      <point x="269" y="393" type="curve" smooth="yes"/>
      <point x="357" y="393"/>
      <point x="379" y="276"/>
      <point x="379" y="208" type="curve" smooth="yes"/>
      <point x="379" y="121"/>
      <point x="354" y="24"/>
      <point x="248" y="24" type="curve" smooth="yes"/>
      <point x="199" y="24"/>
      <point x="162" y="47"/>
      <point x="162" y="98" type="curve" smooth="yes"/>
    </contour>
    <contour>
      <point x="84" y="576" type="curve"/>
      <point x="164" y="576" type="line"/>
      <point x="164" y="627"/>
      <point x="165" y="658"/>
      <point x="168" y="691" type="curve"/>
      <point x="168" y="695"/>
      <point x="163" y="698"/>
      <point x="155" y="698" type="curve"/>
      <point x="123" y="685"/>
      <point x="62" y="672"/>
      <point x="17" y="669" type="curve"/>
      <point x="15" y="663"/>
      <point x="16" y="649"/>
      <point x="19" y="641" type="curve"/>
      <point x="76" y="636"/>
      <point x="84" y="628"/>
    </contour>
    <contour>
      <point x="119" y="-232" type="line"/>
      <point x="159" y="-232"/>
      <point x="203" y="-233"/>
      <point x="236" y="-234" type="curve"/>
      <point x="242" y="-228"/>
      <point x="242" y="-207"/>
      <point x="236" y="-201" type="curve"/>
      <point x="175" y="-197"/>
      <point x="164" y="-192"/>
      <point x="164" y="-110" type="curve"/>
      <point x="119" y="-110" type="line"/>
    </contour>
    <contour>
      <point x="12" y="-234" type="curve"/>
      <point x="45" y="-233"/>
      <point x="89" y="-232"/>
      <point x="129" y="-232" type="curve"/>
      <point x="129" y="-110" type="line"/>
      <point x="84" y="-110" type="line"/>
      <point x="84" y="-192"/>
      <point x="73" y="-197"/>
      <point x="12" y="-201" type="curve"/>
      <point x="6" y="-207"/>
      <point x="6" y="-228"/>
    </contour>
  </outline>
</glyph>
<glyph name="dcroat" format="2">
  <advance width="506"/>
  <unicode hex="0111"/>
  <outline>
    <component base="d"/>
    <contour>
      <point x="199.505" y="533" type="curve" smooth="yes"/>
      <point x="380.349" y="533" type="line"/>
      <point x="380.349" y="572" type="line"/>
      <point x="207.505" y="572" type="line" smooth="yes"/>
      <point x="198.505" y="572"/>
      <point x="188.505" y="557"/>
      <point x="188.505" y="547" type="curve" smooth="yes"/>
      <point x="188.505" y="541"/>
      <point x="191.505" y="533"/>
    </contour>
    <contour>
      <point x="342.268" y="533" type="line"/>
      <point x="475" y="533" type="line" smooth="yes"/>
      <point x="487" y="533"/>
      <point x="496" y="548"/>
      <point x="496" y="559" type="curve" smooth="yes"/>
      <point x="496" y="564"/>
      <point x="493" y="572"/>
      <point x="484" y="572" type="curve" smooth="yes"/>
      <point x="342.234" y="572" type="line"/>
    </contour>
  </outline>
</glyph>
<glyph name="Hbar" format="2">
  <advance width="727"/>
  <unicode hex="0126"/>
  <outline>
    <component base="H"/>
    <contour>
      <point x="220" y="507" type="line"/>
      <point x="220" y="546" type="line"/>
      <point x="47" y="546" type="line" smooth="yes"/>
      <point x="38" y="546"/>
      <point x="28" y="531"/>
      <point x="28" y="521" type="curve" smooth="yes"/>
      <point x="28" y="515"/>
      <point x="31" y="507"/>
      <point x="39" y="507" type="curve" smooth="yes"/>
    </contour>
    <contour>
      <point x="547" y="546" type="line"/>
      <point x="176" y="546" type="line"/>
      <point x="176" y="507" type="line"/>
      <point x="547" y="507" type="line"/>
    </contour>
    <contour>
      <point x="526" y="507" type="line"/>
      <point x="659" y="507" type="line" smooth="yes"/>
      <point x="671" y="507"/>
      <point x="680" y="522"/>
      <point x="680" y="533" type="curve" smooth="yes"/>
      <point x="680" y="538"/>
      <point x="677" y="546"/>
      <point x="668" y="546" type="curve" smooth="yes"/>
      <point x="526" y="546" type="line"/>
    </contour>
  </outline>
</glyph>
<glyph name="hbar" format="2">
  <advance width="538"/>
  <unicode hex="0127"/>
  <outline>
    <contour>
      <point x="23" y="-2" type="curve"/>
      <point x="53" y="-1"/>
      <point x="93" y="0"/>
      <point x="133" y="0" type="curve" smooth="yes"/>
      <point x="173" y="0"/>
      <point x="204" y="-1"/>
      <point x="234" y="-2" type="curve"/>
      <point x="240" y="4"/>
      <point x="240" y="25"/>
      <point x="234" y="31" type="curve"/>
      <point x="183" y="36"/>
      <point x="173" y="40"/>
      <point x="173" y="122" type="curve"/>
      <point x="93" y="122" type="line"/>
      <point x="93" y="40"/>
      <point x="83" y="36"/>
      <point x="23" y="31" type="curve"/>
      <point x="17" y="25"/>
      <point x="17" y="4"/>
    </contour>
    <contour>
      <point x="320" y="-2" type="curve"/>
      <point x="350" y="-1"/>
      <point x="382" y="0"/>
      <point x="422" y="0" type="curve" smooth="yes"/>
      <point x="462" y="0"/>
      <point x="499" y="-1"/>
      <point x="529" y="-2" type="curve"/>
      <point x="534" y="4"/>
      <point x="534" y="25"/>
      <point x="529" y="31" type="curve"/>
      <point x="473" y="36"/>
      <point x="462" y="40"/>
      <point x="462" y="122" type="curve"/>
      <point x="382" y="122" type="line"/>
      <point x="382" y="40"/>
      <point x="372" y="36"/>
      <point x="320" y="31" type="curve"/>
      <point x="315" y="25"/>
      <point x="315" y="4"/>
    </contour>
    <contour>
      <point x="218" y="530" type="line"/>
      <point x="218" y="569" type="line"/>
      <point x="45" y="569" type="line" smooth="yes"/>
      <point x="36" y="569"/>
      <point x="26" y="554"/>
      <point x="26" y="544" type="curve" smooth="yes"/>
      <point x="26" y="538"/>
      <point x="29" y="530"/>
      <point x="37" y="530" type="curve" smooth="yes"/>
    </contour>
    <contour>
      <point x="173" y="110" type="line"/>
      <point x="173" y="586" type="line"/>
      <point x="93" y="586" type="line"/>
      <point x="93" y="110" type="line"/>
    </contour>
    <contour>
      <point x="462" y="110" type="line"/>
      <point x="462" y="271" type="line" smooth="yes"/>
      <point x="462" y="391.203"/>
      <point x="430.42" y="439"/>
      <point x="351" y="439" type="curve" smooth="yes"/>
      <point x="298.235" y="439"/>
      <point x="233.298" y="403.302"/>
      <point x="160" y="334" type="curve"/>
      <point x="162" y="298" type="line"/>
      <point x="210.65" y="355.612"/>
      <point x="265.315" y="387"/>
      <point x="317" y="387" type="curve" smooth="yes"/>
      <point x="358.367" y="387"/>
      <point x="382" y="345.915"/>
      <point x="382" y="274" type="curve" smooth="yes"/>
      <point x="382" y="110" type="line"/>
    </contour>
    <contour>
      <point x="93" y="576" type="curve"/>
      <point x="173" y="576" type="line"/>
      <point x="173" y="627.125"/>
      <point x="174.065" y="657.732"/>
      <point x="177" y="691" type="curve"/>
      <point x="177" y="695.154"/>
      <point x="171.714" y="698"/>
      <point x="164" y="698" type="curve"/>
      <point x="131.618" y="685.278"/>
      <point x="70.9207" y="672.523"/>
      <point x="26" y="669" type="curve"/>
      <point x="24.3714" y="663.3"/>
      <point x="25.4091" y="648.773"/>
      <point x="28" y="641" type="curve"/>
      <point x="85" y="636"/>
      <point x="93" y="628"/>
    </contour>
    <contour>
      <point x="178" y="530" type="line"/>
      <point x="311" y="530" type="line" smooth="yes"/>
      <point x="323" y="530"/>
      <point x="332" y="545"/>
      <point x="332" y="556" type="curve" smooth="yes"/>
      <point x="332" y="561"/>
      <point x="329" y="569"/>
      <point x="320" y="569" type="curve" smooth="yes"/>
      <point x="178" y="569" type="line"/>
    </contour>
  </outline>
</glyph>
<glyph name="iogonek" format="2">
  <advance width="271"/>
  <unicode hex="012F"/>
  <anchor x="132" y="825" name="m.uni0302"/>
  <outline>
    <component base="ogonek" xOffset="-7.5"/>
    <contour>
      <point x="90" y="597" type="curve" smooth="yes"/>
      <point x="90" y="569"/>
      <point x="112" y="547"/>
      <point x="140" y="547" type="curve" smooth="yes"/>
      <point x="168" y="547"/>
      <point x="190" y="569"/>
      <point x="190" y="597" type="curve" smooth="yes"/>
      <point x="190" y="625"/>
      <point x="168" y="647"/>
      <point x="140" y="647" type="curve" smooth="yes"/>
      <point x="112" y="647"/>
      <point x="90" y="625"/>
    </contour>
    <contour>
      <point x="30" y="-2" type="curve"/>
      <point x="63" y="-1"/>
      <point x="102" y="0"/>
      <point x="142" y="0" type="curve" smooth="yes" name=".hr01"/>
      <point x="182" y="0"/>
      <point x="221" y="-1"/>
      <point x="254" y="-2" type="curve"/>
      <point x="260" y="4"/>
      <point x="260" y="25"/>
      <point x="254" y="31" type="curve"/>
      <point x="193" y="35"/>
      <point x="182" y="40"/>
      <point x="182" y="122" type="curve"/>
      <point x="102" y="122" type="line"/>
      <point x="102" y="40"/>
      <point x="91" y="35"/>
      <point x="30" y="31" type="curve"/>
      <point x="24" y="25"/>
      <point x="24" y="4"/>
    </contour>
    <contour>
      <point x="102" y="320" type="curve"/>
      <point x="182" y="320" type="line"/>
      <point x="182" y="370"/>
      <point x="183" y="401"/>
      <point x="186" y="435" type="curve"/>
      <point x="186" y="439"/>
      <point x="181" y="442"/>
      <point x="173" y="442" type="curve"/>
      <point x="145" y="431"/>
      <point x="86" y="417"/>
      <point x="35" y="413" type="curve"/>
      <point x="33" y="406"/>
      <point x="35" y="391"/>
      <point x="37" y="385" type="curve"/>
      <point x="93.65" y="379.85"/>
      <point x="102" y="371.5"/>
    </contour>
    <contour>
      <point x="102" y="122" type="line"/>
      <point x="182" y="122" type="line"/>
      <point x="182" y="320" type="line"/>
      <point x="102" y="320" type="line"/>
    </contour>
  </outline>
</glyph>
